<?xml version="1.0" encoding="UTF-8"?>
<svg version="1.1" xmlns="http://www.w3.org/2000/svg" width="800" height="479">
<path d="M0 0 C0.71020798 -0.00287018 1.42041595 -0.00574036 2.15214539 -0.00869751 C3.65246377 -0.01073491 5.15280891 -0.00522763 6.65307617 0.00732422 C8.93144338 0.02331276 11.20801759 0.00750334 13.48632812 -0.01171875 C14.94922262 -0.00973487 16.41211601 -0.00588819 17.875 0 C18.5481575 -0.00607269 19.221315 -0.01214539 19.91487122 -0.0184021 C24.80125641 0.05298971 28.44670031 0.8636847 32.63671875 3.3984375 C36.96093354 9.93692208 38.45714897 17.49234189 40.33984375 25.02734375 C40.69387497 26.41608152 41.04870758 27.80461519 41.40426636 29.19296265 C42.37284353 32.98476707 43.32988947 36.77939898 44.28495026 40.57462692 C45.30030502 44.60101221 46.3264031 48.62465931 47.35107422 52.64868164 C49.62475261 61.58692577 51.88414205 70.52874598 54.14074707 79.47131348 C55.71147544 85.69585474 57.28480586 91.91973699 58.85839844 98.14355469 C67.76023934 133.35560184 67.76023934 133.35560184 71.1887722 146.96979523 C72.20455616 151.00323923 73.2210806 155.03649648 74.23761368 159.06975174 C74.9424399 161.86785477 75.6460237 164.66626831 76.34957886 167.46469116 C76.77351603 169.14696841 77.19751344 170.82923048 77.62158203 172.51147461 C77.81259617 173.27291055 78.00361031 174.03434649 78.20041275 174.81885624 C78.93182853 177.71585067 79.69142792 180.562565 80.63671875 183.3984375 C80.8054931 182.68303205 80.97426744 181.96762659 81.14815617 181.23054218 C85.28897511 163.67855426 89.43063325 146.12676454 93.57318211 128.57518482 C95.5766124 120.08675707 97.57977691 111.59826677 99.58227539 103.10961914 C101.33128287 95.69553026 103.08083007 88.28156896 104.83097881 80.86774939 C105.75434405 76.95619549 106.67747078 73.04458571 107.59994698 69.13282204 C109.4570249 61.25860113 111.3180925 53.38536052 113.18828267 45.51424259 C114.17005673 41.37849661 115.14224357 37.24062409 116.10783416 33.10107094 C116.58401773 31.06402798 117.06353972 29.02780404 117.54444027 26.99186993 C118.13465166 24.49206883 118.71944925 21.99098066 119.29773045 19.48839283 C122.38300721 6.50674829 122.38300721 6.50674829 126.57421875 2.5859375 C132.26394395 -0.68996489 139.00974181 0.17629083 145.37133789 0.15820312 C147.43221717 0.1485174 149.49208962 0.11747672 151.55273438 0.0859375 C164.57008402 0.03481389 164.57008402 0.03481389 169.63671875 3.3984375 C173.35754794 8.11061901 174.72820786 12.48446363 176.02416992 18.20849609 C176.23185281 19.08018086 176.43953569 19.95186563 176.653512 20.8499651 C177.34051554 23.74633209 178.01006954 26.64644361 178.6796875 29.546875 C179.16508887 31.60867587 179.65158353 33.67021962 180.13909912 35.73152161 C181.44452854 41.26418944 182.73513194 46.8002196 184.02311325 52.33697128 C185.3579882 58.06312431 186.70702705 63.785936 188.05493164 69.5090332 C190.22530386 78.73143261 192.38832714 87.95552168 194.54492188 97.18115234 C198.31515311 113.30893686 202.11098358 129.43065134 205.915555 145.55036545 C207.01365195 150.2042385 208.10811501 154.85894565 209.1992054 159.51446629 C209.8649256 162.3536627 210.53253235 165.19241331 211.20053864 168.03107262 C211.65018946 169.9448603 212.09732125 171.85923928 212.54437256 173.77363586 C212.93994354 175.4522596 212.93994354 175.4522596 213.34350586 177.16479492 C213.57089951 178.13478928 213.79829315 179.10478363 214.03257751 180.10417175 C214.55478576 182.4051621 214.55478576 182.4051621 215.63671875 184.3984375 C217.30679906 177.96169689 218.97681702 171.52494017 220.64611816 165.08799744 C220.85639837 164.2771466 221.06667858 163.46629576 221.28333092 162.63087368 C221.72619671 160.9231599 222.1690588 159.21544515 222.6119175 157.50772953 C224.00846459 152.12293014 225.40599989 146.73838825 226.80418301 141.35401344 C231.9722018 121.45018204 237.11979996 101.54141297 242.21797371 81.61956596 C243.78117667 75.51435183 245.34843195 69.41017634 246.91561031 63.30598164 C248.4303079 57.40390288 249.93799384 51.50008716 251.44083595 45.59497929 C252.38353406 41.89781083 253.33281829 38.20235635 254.28385925 34.50732613 C254.72329177 32.7943586 255.15998598 31.0806858 255.59367371 29.36625481 C261.23139694 7.0930654 261.23139694 7.0930654 266.63671875 2.3984375 C272.95068727 -0.29877536 279.38274041 0.06189195 286.11425781 0.08276367 C288.26287875 0.08593921 290.41014105 0.06237086 292.55859375 0.03710938 C293.93098786 0.0348375 295.30338564 0.03413237 296.67578125 0.03515625 C297.91537598 0.03217529 299.1549707 0.02919434 300.43212891 0.02612305 C303.95633228 0.43557072 305.11858267 0.97894758 307.63671875 3.3984375 C309.36929918 10.54126923 306.59863242 18.06951729 304.40234375 24.8125 C304.05768066 25.91014175 303.71301758 27.00778351 303.35791016 28.13868713 C302.21398263 31.77123622 301.05023313 35.39711953 299.88671875 39.0234375 C299.06553976 41.61400062 298.24898288 44.20601233 297.43261719 46.7980957 C295.71364179 52.25036946 293.98631706 57.69993075 292.25390625 63.14794922 C289.73296206 71.0795847 287.24174143 79.02032921 284.76171875 86.96484375 C284.56181273 87.60518492 284.3619067 88.24552608 284.15594292 88.90527153 C283.3445513 91.50468357 282.53332629 94.10414746 281.72243404 96.70371532 C280.28822637 101.30122195 278.8509728 105.89776858 277.41235352 110.49389648 C272.8252818 125.1522584 268.2629806 139.81806715 263.7265625 154.4921875 C263.22774335 156.10517206 262.72891322 157.71815323 262.23007202 159.33113098 C259.32339275 168.73084454 259.32339275 168.73084454 256.42272949 178.13241577 C253.51675503 187.56159728 250.59610612 196.98585895 247.63671875 206.3984375 C247.28917542 207.504151 246.94163208 208.6098645 246.58355713 209.74908447 C245.65111797 212.69486021 244.70432882 215.63547239 243.75 218.57421875 C243.48865768 219.40003952 243.22731537 220.22586029 242.95805359 221.07670593 C241.43866875 225.68051759 239.81588336 229.64616181 236.63671875 233.3984375 C230.35760291 236.46674226 223.25004414 235.73407221 216.41455078 235.71411133 C214.1430686 235.71094635 211.87288456 235.73446321 209.6015625 235.75976562 C208.14453288 235.7620386 206.68749979 235.76274212 205.23046875 235.76171875 C203.91755859 235.76469971 202.60464844 235.76768066 201.25195312 235.77075195 C197.18581297 235.35200103 194.97131654 234.77413309 191.63671875 232.3984375 C188.24766672 227.19757857 186.63044244 221.44739294 185.23339844 215.46557617 C185.02413475 214.60518832 184.81487106 213.74480047 184.59926605 212.85834026 C183.90974328 210.01318219 183.23414295 207.16491159 182.55859375 204.31640625 C182.07015264 202.28854535 181.58085526 200.26089054 181.09075928 198.23342896 C179.78178407 192.80775859 178.4848177 187.37928389 177.19021606 181.95016861 C175.85054951 176.34100499 174.49985751 170.73449779 173.15039062 165.12768555 C170.46634054 153.96750663 167.79515882 142.80428226 165.12817383 131.64001465 C163.73679581 125.81578316 162.34261616 119.9922262 160.94726562 114.16894531 C156.49409674 95.58264605 152.05344073 76.99343551 147.63671875 58.3984375 C145.5820381 61.98379844 144.69643221 65.75337503 143.76757812 69.74047852 C143.59101181 70.48037773 143.4144455 71.22027695 143.23252869 71.98259735 C142.64381069 74.45475616 142.06216143 76.92852328 141.48046875 79.40234375 C141.06192652 81.16623797 140.6429301 82.93002447 140.22351074 84.69371033 C139.32550286 88.47355755 138.43046839 92.2540923 137.53759766 96.03515625 C136.13343406 101.97948972 134.71981032 107.92154872 133.3046875 113.86328125 C129.28464709 130.75108344 125.27718867 147.64174298 121.31754303 164.54381847 C119.67871388 171.53840011 118.03098842 178.53084458 116.37667084 185.52177906 C115.22477467 190.39305822 114.0859989 195.26715984 112.9569931 200.14379215 C112.25498278 203.16215323 111.54075376 206.17752457 110.82310486 209.19220161 C110.49673729 210.5741741 110.17537314 211.95734019 109.8596344 213.34177971 C106.53220277 227.90843686 106.53220277 227.90843686 101.63671875 233.3984375 C95.17970483 236.69637472 87.22395013 235.6908337 80.13671875 235.6484375 C78.84378906 235.65617188 77.55085938 235.66390625 76.21875 235.671875 C61.16857572 235.64093939 61.16857572 235.64093939 56.44921875 231.4609375 C51.22231259 222.62926848 48.8966054 212.01028614 45.91796875 202.23828125 C45.46321056 200.75382609 45.0082176 199.26944284 44.55300903 197.78512573 C43.33159343 193.7995681 42.11389622 189.81288366 40.89704132 185.82593155 C39.87247836 182.47057189 38.8457885 179.11586449 37.81915474 175.76113796 C29.09452643 147.24949208 20.43686396 118.71758434 11.80628586 90.17734909 C8.77236994 80.14475339 5.73072025 70.11452851 2.68359375 60.0859375 C2.28221602 58.76478588 1.88083865 57.44363415 1.47946167 56.1224823 C-0.04436926 51.10703443 -1.56842341 46.09165463 -3.09344482 41.0765686 C-4.11356317 37.72176595 -5.13300724 34.36675903 -6.15234375 31.01171875 C-6.45029846 30.03271606 -6.74825317 29.05371338 -7.05523682 28.04504395 C-11.66404404 12.8699242 -11.66404404 12.8699242 -11.73828125 8.1484375 C-11.76664063 7.31828125 -11.795 6.488125 -11.82421875 5.6328125 C-11.36328125 3.3984375 -11.36328125 3.3984375 -9.79467773 1.78369141 C-6.43868037 -0.12834083 -3.85021982 0.00989229 0 0 Z " fill="#242E3D" transform="translate(263.36328125,8.6015625)"/>
<path d="M0 0 C4.98581279 1.24351039 9.15455663 4.01546683 13.52270508 6.64477539 C15.75213225 7.93495005 17.98541931 9.21847103 20.22192383 10.49633789 C20.8107132 10.83299469 21.39950256 11.16965149 22.00613403 11.51651001 C89.23544656 49.70958522 165.02715793 74.42931339 376.58520508 104.64477539 C377.86943359 104.66668945 379.15366211 104.68860352 380.47680664 104.71118164 C442.86583124 105.65131569 504.80284999 98.6124378 565.58520508 84.64477539 C566.34575195 84.47010742 567.10629883 84.29543945 567.88989258 84.11547852 C590.48933365 78.89874212 612.63828435 72.56642314 634.65600586 65.28283691 C636.47137944 64.68242197 638.28801728 64.08583343 640.10473633 63.48950195 C650.61515988 60.02031411 661.00319542 56.3136206 671.27661133 52.19555664 C672.02283752 51.89723938 672.76906372 51.59892212 673.53790283 51.29156494 C677.2202495 49.81665695 680.89514169 48.32644388 684.56030273 46.80932617 C685.90573099 46.26331418 687.25126635 45.71756599 688.59692383 45.17211914 C690.36749146 44.44109985 690.36749146 44.44109985 692.17382812 43.6953125 C697.12824794 42.16959372 700.98906674 42.03087603 705.83520508 43.89477539 C710.16739686 46.65162471 710.16739686 46.65162471 711.58520508 49.64477539 C712.38974759 54.84947019 712.1707677 58.65643876 709.00634766 63.06469727 C706.04197036 66.3606 702.35900582 68.7308762 698.71020508 71.20727539 C697.82961426 71.81297363 696.94902344 72.41867187 696.04174805 73.04272461 C686.17765338 79.7376462 675.95296997 85.77019847 665.58520508 91.64477539 C664.70670898 92.1471875 663.82821289 92.64959961 662.9230957 93.16723633 C636.92894992 107.97561367 609.70653179 119.58655035 581.58520508 129.64477539 C580.94492371 129.87380554 580.30464233 130.10283569 579.6449585 130.33880615 C500.19972757 158.59109901 414.21700135 168.50156713 135.15762329 108.77871704 C90.87571688 87.62703574 49.14399018 62.02922011 11.58422852 30.33081055 C9.60403742 28.66065914 7.61464588 27.00198224 5.62426758 25.34399414 C4.38140086 24.2992287 3.13918097 23.25369315 1.89770508 22.20727539 C1.3455835 21.74756348 0.79346191 21.28785156 0.22460938 20.81420898 C-9.91862669 12.17523338 -9.91862669 12.17523338 -11.03979492 6.45727539 C-10.41479492 3.64477539 -10.41479492 3.64477539 -8.97729492 1.20727539 C-5.79602936 -0.73252068 -3.62377342 -0.48730627 0 0 Z " fill="#FF9900" transform="translate(14.414794921875,313.355224609375)"/>
<path d="M0 0 C15.99364768 15.29376358 22.16467976 37.08125876 22.8729496 58.67275333 C22.96243795 63.67690879 22.9618462 68.67882347 22.94921875 73.68359375 C22.95916303 75.87394679 22.97111812 78.0642915 22.98495483 80.25462341 C23.01699259 85.96653861 23.0276784 91.67826263 23.03179932 97.39025879 C23.04062402 106.53040235 23.07664087 115.67039142 23.12397385 124.81040764 C23.13634107 127.96233659 23.13582072 131.11405877 23.13369751 134.26600647 C23.15131154 143.48583121 23.35467896 152.61877807 24.28662109 161.79663086 C24.3619488 162.55181031 24.4372765 163.30698977 24.51488686 164.08505344 C25.76450875 174.98607313 30.35486239 184.65393086 35.2734375 194.3671875 C36.5992128 197.793246 37.05455549 199.67009035 36.41015625 203.3046875 C32.93790389 208.99313427 27.60900782 212.64689634 22.09765625 216.1796875 C21.38931641 216.664375 20.68097656 217.1490625 19.95117188 217.6484375 C14.96672835 220.88403275 10.42678972 222.5793957 4.41015625 222.3046875 C-6.93692216 217.4416539 -13.05248934 202.63595522 -18.58984375 192.3046875 C-19.43804687 193.21089844 -20.28625 194.11710938 -21.16015625 195.05078125 C-28.94961748 203.20823086 -36.67237695 209.90354932 -46.58984375 215.3046875 C-47.1837793 215.63049805 -47.77771484 215.95630859 -48.38964844 216.29199219 C-60.77577249 222.92765349 -74.50359256 226.78464933 -88.58984375 227.3046875 C-89.56824219 227.34464844 -90.54664062 227.38460937 -91.5546875 227.42578125 C-113.2727842 227.87330567 -133.10715659 222.87038881 -149.203125 207.78515625 C-164.12549625 192.27663621 -168.11823826 174.82861548 -168.00927734 153.97143555 C-167.59792764 135.52837252 -161.47806653 119.08351719 -148.328125 105.91796875 C-136.93707183 95.0469066 -122.9381714 87.91395663 -107.58984375 84.3046875 C-106.85636719 84.12881104 -106.12289062 83.95293457 -105.3671875 83.77172852 C-96.69390738 81.92454982 -88.03559718 81.95156516 -79.21484375 81.9921875 C-78.01930878 81.99442322 -78.01930878 81.99442322 -76.79962158 81.9967041 C-64.18643056 82.03908862 -51.97127395 82.73720532 -39.58984375 85.3046875 C-38.73084473 85.48112793 -37.8718457 85.65756836 -36.98681641 85.83935547 C-31.83448063 86.91524266 -26.7072396 88.07376322 -21.58984375 89.3046875 C-21.65989689 85.14562069 -21.74838421 80.9874278 -21.85229492 76.82910156 C-21.88507476 75.42132724 -21.91324405 74.01343623 -21.9362793 72.60546875 C-22.1844208 57.82257098 -23.39088257 41.87014221 -33.44140625 30.14453125 C-46.14644152 18.22406987 -64.63064218 17.61588005 -81.13671875 18.0234375 C-99.93906994 18.81400588 -118.01194437 24.43406921 -135.39111328 31.38793945 C-139.80472482 33.13190346 -144.05381684 34.51602308 -148.83984375 34.1171875 C-151.27676337 32.98576053 -151.60018687 31.77376955 -152.58984375 29.3046875 C-152.84863281 26.91040039 -152.84863281 26.91040039 -152.85546875 24.27734375 C-152.85804688 23.32021484 -152.860625 22.36308594 -152.86328125 21.37695312 C-152.85554688 20.38373047 -152.8478125 19.39050781 -152.83984375 18.3671875 C-152.84757812 17.37783203 -152.8553125 16.38847656 -152.86328125 15.36914062 C-152.86070312 14.41072266 -152.858125 13.45230469 -152.85546875 12.46484375 C-152.85321289 11.59480713 -152.85095703 10.72477051 -152.84863281 9.82836914 C-152.38742869 5.33075878 -151.15533848 2.85287117 -147.91015625 -0.29296875 C-144.68531687 -2.78807861 -141.20972378 -4.55092352 -137.46484375 -6.1328125 C-136.43810547 -6.57222168 -136.43810547 -6.57222168 -135.390625 -7.02050781 C-95.06863357 -23.73718315 -35.75559304 -30.03243155 0 0 Z M-111.765625 127.140625 C-120.98105794 138.07285166 -121.65521842 150.71317737 -120.58984375 164.3046875 C-118.94531512 172.51793334 -115.01352098 179.97208502 -108.26171875 185.05859375 C-96.10478482 192.79651949 -81.81225639 192.95367952 -67.97070312 190.22631836 C-54.48051568 187.16135025 -43.28759569 181.324505 -33.58984375 171.3046875 C-32.99429688 170.7065625 -32.39875 170.1084375 -31.78515625 169.4921875 C-25.68014243 162.93157563 -23.04635674 155.01310201 -21.58984375 146.3046875 C-21.42162109 145.33015625 -21.42162109 145.33015625 -21.25 144.3359375 C-20.1357144 136.39856063 -20.50723403 128.29947218 -20.58984375 120.3046875 C-47.12833907 111.35270702 -89.54750161 106.68012192 -111.765625 127.140625 Z " fill="#242E3D" transform="translate(204.58984375,22.6953125)"/>
<path d="M0 0 C4.93417357 5.41471916 4.57229217 10.68537742 4.4375 17.625 C4.44458984 18.66140625 4.45167969 19.6978125 4.45898438 20.765625 C4.38483026 29.59566906 4.38483026 29.59566906 1 33 C-5.81619528 33.93629056 -10.90498009 31.80030726 -17.125 29.1875 C-40.25307404 19.9172316 -68.50075424 16.57170189 -92.36328125 25.21875 C-100.34683544 28.72800459 -104.46186491 32.99427189 -107.83203125 40.96875 C-109.94604931 47.62449719 -109.18693837 54.94787275 -106.6875 61.375 C-106.130625 62.24125 -105.57375 63.1075 -105 64 C-104.2265625 65.2375 -104.2265625 65.2375 -103.4375 66.5 C-90.51193013 79.75699474 -67.82279622 84.06759767 -50.74487305 89.24194336 C-14.50862797 100.26154233 -14.50862797 100.26154233 -2 112 C-1.32066406 112.59039062 -0.64132812 113.18078125 0.05859375 113.7890625 C10.82226777 123.6778065 16.58829054 137.00755151 17.37890625 151.4765625 C18.02753432 172.36930512 13.26313221 189.25431999 -1 205 C-15.39261553 220.04454585 -36.42542679 228.69889642 -57 231 C-57.825 231.10828125 -58.65 231.2165625 -59.5 231.328125 C-88.52893815 234.61115967 -129.14646048 231.55815091 -153 213 C-157.81428493 207.35566594 -157.24755838 201.64113677 -157.3125 194.5625 C-157.34150391 193.51255859 -157.37050781 192.46261719 -157.40039062 191.38085938 C-157.40876953 190.36958984 -157.41714844 189.35832031 -157.42578125 188.31640625 C-157.44036377 187.39287354 -157.45494629 186.46934082 -157.4699707 185.51782227 C-156.84892865 182.19064998 -155.68582993 181.00665792 -153 179 C-146.54765174 178.016927 -139.81546431 181.39697131 -134 183.8125 C-108.45089204 193.94742262 -74.45573493 200.26314156 -48.1171875 189.48828125 C-39.74524744 185.75271062 -34.61365682 181.68655706 -30.1875 173.75 C-27.4744036 165.18232716 -27.10491403 157.24436925 -31 149 C-39.80708659 133.4226449 -64.91745388 129.23838807 -80.5 124.5 C-106.84445733 116.4890972 -133.30887803 108.30085786 -147.375 82.5625 C-147.69686279 81.97847412 -148.01872559 81.39444824 -148.3503418 80.79272461 C-152.98352587 71.81432215 -154.54423701 62.6515018 -154.4375 52.625 C-154.42992676 51.61985352 -154.42235352 50.61470703 -154.41455078 49.57910156 C-154.24125973 41.74432219 -153.25332922 35.2059722 -150 28 C-149.57589844 27.05253906 -149.15179687 26.10507812 -148.71484375 25.12890625 C-145.21049449 18.09092348 -140.53152484 12.54104554 -135 7 C-134.38511719 6.37351562 -133.77023437 5.74703125 -133.13671875 5.1015625 C-103.06826592 -23.35723012 -32.62259807 -26.94113436 0 0 Z " fill="#242E3D" transform="translate(746,19)"/>
<path d="M0 0 C5.95075687 6.52663657 4.47619365 17.08939574 4.1328125 25.30908203 C1.25786153 66.75868767 -17.71231001 106.9882881 -48.0625 135.125 C-52.10442978 137.81961986 -54.2676496 137.35700889 -59.0625 137.125 C-60.0625 136.125 -60.0625 136.125 -60.46484375 132.953125 C-60.37687929 126.85245132 -57.73986271 121.42455902 -55.44750977 115.87316895 C-54.03438065 112.44017541 -52.67502704 108.98610687 -51.31640625 105.53125 C-51.039711 104.82873108 -50.76301575 104.12621216 -50.47793579 103.40240479 C-36.99103111 70.29190238 -36.99103111 70.29190238 -35.0625 35.125 C-38.18688143 29.57709419 -40.96731948 27.3040347 -47.09765625 25.5390625 C-72.99659517 19.23561705 -102.11559565 23.67551088 -128.26171875 26.7109375 C-131.53274605 27.06728785 -134.71214565 27.28891424 -138 27.3125 C-139.37478516 27.33376953 -139.37478516 27.33376953 -140.77734375 27.35546875 C-143.0625 27.125 -143.0625 27.125 -145.0625 25.125 C-145.5 22.3125 -145.5 22.3125 -145.0625 19.125 C-126.76843069 -1.68781799 -91.66218865 -7.4083292 -65.5 -9.625 C-44.62527254 -10.63303513 -18.48374152 -11.31657644 0 0 Z " fill="#FF9900" transform="translate(792.0625,306.875)"/>
</svg>
