<?xml version="1.0" encoding="UTF-8"?>
<svg version="1.1" xmlns="http://www.w3.org/2000/svg" width="800" height="901">
<path d="M0 0 C5.35692557 3.14407226 10.73928467 6.24373788 16.12207031 9.34326172 C17.20133789 9.96523438 18.28060547 10.58720703 19.39257812 11.22802734 C21.58321997 12.49043112 23.77397532 13.75263795 25.96484375 15.01464844 C32.47578288 18.76604196 38.98370225 22.52267166 45.4921875 26.27832031 C50.93292367 29.41758418 56.37438508 32.55557669 61.81738281 35.69091797 C72.26913231 41.71323501 82.71006579 47.75245509 93.12207031 53.84326172 C101.79969273 58.91851295 110.51312599 63.92834938 119.24707031 68.90576172 C128.96822648 74.44577902 138.65601689 80.03950981 148.31396484 85.68920898 C158.83791656 91.84342913 169.40087169 97.92946168 179.96484375 104.01464844 C185.39366974 107.1425632 190.82026312 110.2743462 196.24707031 113.40576172 C198.41372614 114.65578051 200.58039281 115.9057805 202.74707031 117.15576172 C222.24707031 128.40576172 222.24707031 128.40576172 241.74707031 139.65576172 C243.35654541 140.58424927 243.35654541 140.58424927 244.99853516 141.53149414 C247.16044915 142.7788272 249.32223348 144.02638502 251.48388672 145.27416992 C256.97221616 148.44185004 262.46289564 151.60532933 267.95800781 154.76123047 C273.38255072 157.87781077 278.79977721 161.00672746 284.2109375 164.14648438 C286.19392388 165.29551942 288.17887027 166.44118039 290.16601562 167.58300781 C309.85352838 178.91274341 309.85352838 178.91274341 317.24707031 186.90576172 C318.27960938 188.01951172 318.27960938 188.01951172 319.33300781 189.15576172 C332.75524714 204.78932783 337.87917537 222.49022081 337.75500488 242.7565918 C337.75962366 244.41687216 337.7659831 246.07714842 337.77391386 247.73741627 C337.79049622 252.26230273 337.78241177 256.7868485 337.76996899 261.31173563 C337.76087503 266.20616788 337.77490967 271.10054375 337.78588867 275.9949646 C337.80363228 285.56835987 337.79985247 295.14162937 337.78823811 304.71502948 C337.77918766 312.4987203 337.77798675 320.28237598 337.78233337 328.06607056 C337.78294631 329.1758268 337.78355924 330.28558303 337.78419074 331.42896825 C337.7854697 333.68374055 337.78676656 335.93851283 337.78808111 338.19328511 C337.79947473 359.31348174 337.78639232 380.43360881 337.76487964 401.55379403 C337.74700979 419.65780506 337.75011424 437.76171348 337.76855469 455.86572266 C337.78998292 476.91271878 337.79837621 497.959654 337.78610563 519.00665951 C337.7848315 521.25292396 337.78357401 523.49918841 337.78233337 525.74545288 C337.78171627 526.85052541 337.78109917 527.95559794 337.78046337 529.09415752 C337.77701633 536.86435114 337.78282486 544.63450599 337.79225159 552.4046936 C337.80349465 561.87990601 337.80038305 571.35498595 337.77912861 580.83018327 C337.76864925 585.66032463 337.76444304 590.49024548 337.77772522 595.32038498 C337.78971974 599.7493915 337.7829713 604.17797489 337.76181501 608.60694349 C337.75737867 610.20164494 337.7595477 611.79638278 337.76931816 613.39106047 C337.88250717 633.41465273 331.77447734 650.86102197 318.24707031 665.90576172 C317.65152344 666.62892578 317.05597656 667.35208984 316.44238281 668.09716797 C308.98968646 676.46274479 298.8523999 681.41677367 289.24707031 686.90576172 C287.19030366 688.09582599 285.1343354 689.287271 283.07910156 690.47998047 C277.59130778 693.66027785 272.0939322 696.82360896 266.59375 699.98242188 C261.14068408 703.11630379 255.69415803 706.26150449 250.24707031 709.40576172 C248.08043618 710.6558181 245.91376948 711.90581806 243.74707031 713.15576172 C242.13832031 714.08388672 242.13832031 714.08388672 240.49707031 715.03076172 C74.7470703 810.65576172 74.7470703 810.65576172 71.49658203 812.53100586 C69.33149961 813.7801169 67.16646049 815.02930301 65.00146484 816.27856445 C59.56091325 819.41778481 54.11959816 822.55566735 48.67675781 825.69091797 C38.22500294 831.7132381 27.78451059 837.75319491 17.37207031 843.84326172 C9.0745716 848.68901205 0.76627427 853.51579256 -7.565979 858.30154419 C-9.3079881 859.30305125 -11.04783955 860.30830844 -12.78759766 861.3137207 C-34.82950398 873.9440932 -56.92962809 882.81883187 -82.75292969 875.90576172 C-91.71591342 872.93642506 -99.84221508 868.92683837 -108.00292969 864.21826172 C-109.09355713 863.59814209 -110.18418457 862.97802246 -111.30786133 862.33911133 C-118.65151466 858.15164108 -125.9508797 853.89010455 -133.22167969 849.57763672 C-138.85160824 846.24574264 -144.52212139 842.98428499 -150.19042969 839.71826172 C-151.85126587 838.76125366 -151.85126587 838.76125366 -153.5456543 837.78491211 C-155.81630036 836.47686695 -158.08705327 835.16900724 -160.35791016 833.86132812 C-165.82462948 830.71244118 -171.28867856 827.55892908 -176.75292969 824.40576172 C-178.9195828 823.15573822 -181.08624948 821.90573825 -183.25292969 820.65576172 C-204.91959635 808.15576172 -226.58626302 795.65576172 -248.25292969 783.15576172 C-249.32559082 782.53693115 -250.39825195 781.91810059 -251.50341797 781.28051758 C-253.66850039 780.03140654 -255.83353951 778.78222043 -257.99853516 777.53295898 C-263.43908675 774.39373862 -268.88040184 771.25585609 -274.32324219 768.12060547 C-284.77499168 762.09828843 -295.21592517 756.05906835 -305.62792969 749.96826172 C-314.3055521 744.89301049 -323.01898537 739.88317405 -331.75292969 734.90576172 C-341.47408585 729.36574442 -351.16187627 723.77201363 -360.81982422 718.12231445 C-368.07504892 713.87958784 -375.34663358 709.66607965 -382.62792969 705.46826172 C-383.69962402 704.84991455 -384.77131836 704.23156738 -385.87548828 703.59448242 C-390.89422345 700.70027248 -395.91560029 697.81088532 -400.94474792 694.93479919 C-407.89971387 690.957279 -414.83851896 686.95340148 -421.75292969 682.90576172 C-422.51653809 682.46006836 -423.28014648 682.014375 -424.06689453 681.55517578 C-436.86519432 674.00659715 -446.47980158 664.96303108 -453.75292969 651.90576172 C-454.44322266 650.70693359 -454.44322266 650.70693359 -455.14746094 649.48388672 C-461.85169655 637.0881399 -463.34543983 624.85885529 -463.26086426 611.05493164 C-463.26548304 609.39465128 -463.27184247 607.73437502 -463.27977324 606.07410717 C-463.29635559 601.5492207 -463.28827114 597.02467494 -463.27582836 592.49978781 C-463.2667344 587.60535556 -463.28076905 582.71097969 -463.29174805 577.81655884 C-463.30949166 568.24316357 -463.30571185 558.66989407 -463.29409748 549.09649396 C-463.28504704 541.31280314 -463.28384613 533.52914746 -463.28819275 525.74545288 C-463.28880568 524.63569664 -463.28941861 523.5259404 -463.29005012 522.38255519 C-463.29132908 520.12778289 -463.29262593 517.87301061 -463.29394048 515.61823833 C-463.3053341 494.4980417 -463.2922517 473.37791463 -463.27073902 452.25772941 C-463.25286916 434.15371838 -463.25597361 416.04980996 -463.27441406 397.94580078 C-463.2958423 376.89880466 -463.30423558 355.85186944 -463.29196501 334.80486393 C-463.29069087 332.55859948 -463.28943339 330.31233502 -463.28819275 328.06607056 C-463.28757565 326.96099803 -463.28695854 325.8559255 -463.28632274 324.71736592 C-463.28287571 316.9471723 -463.28868424 309.17701745 -463.29811096 301.40682983 C-463.30935403 291.93161743 -463.30624243 282.45653749 -463.28498799 272.98134017 C-463.27450863 268.15119881 -463.27030241 263.32127796 -463.28358459 258.49113846 C-463.29557911 254.06213194 -463.28883068 249.63354855 -463.26767439 245.20457995 C-463.26323804 243.6098785 -463.26540707 242.01514066 -463.27517754 240.42046297 C-463.39180558 219.7884922 -456.56380562 202.29502348 -442.75292969 186.90576172 C-442.22441406 186.28443359 -441.69589844 185.66310547 -441.15136719 185.02294922 C-435.95250262 179.31188124 -429.37867608 175.73026465 -422.75292969 171.90576172 C-421.84542969 171.37950195 -420.93792969 170.85324219 -420.00292969 170.31103516 C-414.53151202 167.13993967 -409.05266744 163.9819873 -403.56933594 160.83154297 C-397.3218445 157.23925743 -391.09714581 153.60921067 -384.87792969 149.96826172 C-375.60813609 144.54620539 -366.29460853 139.20371049 -356.96447754 133.88653564 C-347.84010129 128.68531043 -338.75160195 123.42548294 -329.68603516 118.12231445 C-319.16208344 111.9680943 -308.59912831 105.88206176 -298.03515625 99.796875 C-292.60633026 96.66896024 -287.17973688 93.53717724 -281.75292969 90.40576172 C-279.58627386 89.15574293 -277.41960719 87.90574293 -275.25292969 86.65576172 C-274.18042969 86.03701172 -273.10792969 85.41826172 -272.00292969 84.78076172 C-158.2529297 19.15576172 -158.2529297 19.15576172 -155.0012207 17.27978516 C-152.84023981 16.03305916 -150.67926971 14.78631445 -148.51831055 13.53955078 C-143.01474118 10.36430289 -137.51096936 7.18940677 -132.00683594 4.01513672 C-130.89719482 3.37487549 -129.78755371 2.73461426 -128.64428711 2.07495117 C-126.44359361 0.80618318 -124.24194857 -0.46093594 -122.03930664 -1.72631836 C-117.11833615 -4.55637378 -112.21345937 -7.40489425 -107.35449219 -10.34033203 C-98.67239565 -15.55786103 -90.74248483 -19.89712205 -80.75292969 -22.09423828 C-79.98948242 -22.26640869 -79.22603516 -22.4385791 -78.43945312 -22.6159668 C-47.96437517 -28.04132828 -25.20551982 -14.85121118 0 0 Z " fill="#659AD2" transform="translate(462.7529296875,23.09423828125)"/>
<path d="M0 0 C0.94904356 1.93187184 1.88351661 3.87090211 2.8125 5.8125 C3.59560547 7.43091797 3.59560547 7.43091797 4.39453125 9.08203125 C8.84126622 19.42884176 9.433506 29.3701958 9.38768005 40.49006653 C9.39185858 42.14775585 9.39733893 43.8054423 9.40399987 45.4631235 C9.41840531 49.9947323 9.41422512 54.52615846 9.40683305 59.05777705 C9.40209148 63.95430161 9.41462002 68.85078722 9.42485046 73.74729919 C9.4420248 83.33110989 9.44288125 92.91485497 9.43763756 102.49867705 C9.43359185 110.29101716 9.43504419 118.08333792 9.44038582 125.87567711 C9.44113424 126.98583982 9.44188266 128.09600253 9.44265376 129.23980653 C9.44418529 131.49530342 9.44572363 133.75080031 9.44726873 136.00629719 C9.460989 157.14649571 9.45555955 178.2866572 9.44408352 199.42685487 C9.43415311 218.75164859 9.44708935 238.07634653 9.47101771 257.40112547 C9.49542194 277.2603892 9.50501323 297.11960836 9.49836498 316.97888678 C9.49487552 328.12169822 9.49708675 339.26443602 9.51461601 350.4072361 C9.52935457 359.89349402 9.52995184 369.37962646 9.5125451 378.86588196 C9.50404614 383.70208274 9.50185855 388.53805953 9.51719666 393.3742485 C9.53108673 397.80891855 9.52622539 402.24317362 9.50695742 406.67781993 C9.50321029 408.27463291 9.50608192 409.87147947 9.51656907 411.46826241 C9.63868528 431.50001039 3.53327981 448.94872872 -10 464 C-10.59554687 464.72316406 -11.19109375 465.44632813 -11.8046875 466.19140625 C-19.25738385 474.55698307 -29.39467041 479.51101195 -39 485 C-41.05676665 486.19006427 -43.11273491 487.38150928 -45.16796875 488.57421875 C-50.65576253 491.75451613 -56.15313811 494.91784724 -61.65332031 498.07666016 C-67.10638623 501.21054207 -72.55291228 504.35574277 -78 507.5 C-80.16663414 508.75005639 -82.33330083 510.00005634 -84.5 511.25 C-86.10875 512.178125 -86.10875 512.178125 -87.75 513.125 C-253.50000001 608.75 -253.50000001 608.75 -256.75048828 610.62524414 C-258.91557071 611.87435518 -261.08060982 613.12354129 -263.24560547 614.37280273 C-268.68615706 617.51202309 -274.12747216 620.64990563 -279.5703125 623.78515625 C-290.02206737 629.80747638 -300.46255973 635.84743319 -310.875 641.9375 C-319.17249871 646.78325033 -327.48079604 651.61003084 -335.81304932 656.39578247 C-337.55505841 657.39728953 -339.29490986 658.40254672 -341.03466797 659.40795898 C-363.0765743 672.03833148 -385.17669841 680.91307015 -411 674 C-419.96298374 671.03066334 -428.08928539 667.02107665 -436.25 662.3125 C-437.34062744 661.69238037 -438.43125488 661.07226074 -439.55493164 660.43334961 C-446.89858497 656.24587937 -454.19795001 651.98434283 -461.46875 647.671875 C-467.09867855 644.33998092 -472.7691917 641.07852327 -478.4375 637.8125 C-480.09833618 636.85549194 -480.09833618 636.85549194 -481.79272461 635.87915039 C-484.06337068 634.57110523 -486.33412358 633.26324552 -488.60498047 631.95556641 C-494.0716998 628.80667946 -499.53574887 625.65316736 -505 622.5 C-507.16665311 621.2499765 -509.33331979 619.99997653 -511.5 618.75 C-533.16666667 606.25 -554.83333333 593.75 -576.5 581.25 C-577.57266113 580.63116943 -578.64532227 580.01233887 -579.75048828 579.37475586 C-581.91557071 578.12564482 -584.08060982 576.87645871 -586.24560547 575.62719727 C-591.68615706 572.48797691 -597.12747216 569.35009437 -602.5703125 566.21484375 C-613.02206199 560.19252671 -623.46299548 554.15330663 -633.875 548.0625 C-642.55262241 542.98724877 -651.26605568 537.97741233 -660 533 C-669.72115617 527.4599827 -679.40894658 521.86625191 -689.06689453 516.21655273 C-696.32211923 511.97382612 -703.59370389 507.76031793 -710.875 503.5625 C-711.94669434 502.94415283 -713.01838867 502.32580566 -714.12255859 501.6887207 C-719.14129376 498.79451076 -724.1626706 495.9051236 -729.19181824 493.02903748 C-736.14678418 489.05151729 -743.08558928 485.04763976 -750 481 C-751.1454126 480.33145996 -751.1454126 480.33145996 -752.31396484 479.64941406 C-763.90786713 472.81120238 -774.65486524 464.18158783 -781 452 C-781 451.34 -781 450.68 -781 450 C-744.16666667 428.75 -707.33333333 407.5 -670.5 386.25 C-669.42572754 385.63012207 -668.35145508 385.01024414 -667.24462891 384.37158203 C-665.09623488 383.13233534 -662.94747675 381.89371964 -660.79833984 380.65576172 C-655.71226083 377.72502368 -650.63019771 374.78788584 -645.56085205 371.82830811 C-643.1618043 370.42821831 -640.7606759 369.03171905 -638.359375 367.63549805 C-636.66201774 366.64656763 -634.96769098 365.65244162 -633.2734375 364.65820312 C-632.24734375 364.06201172 -631.22125 363.46582031 -630.1640625 362.8515625 C-629.26123535 362.32385254 -628.3584082 361.79614258 -627.42822266 361.25244141 C-625.24847546 360.12815997 -623.39597986 359.45966542 -621 359 C-620.41734375 359.969375 -619.8346875 360.93875 -619.234375 361.9375 C-610.0847506 376.97349008 -599.60801342 390.78320919 -588 404 C-587.13246094 404.99128906 -586.26492188 405.98257812 -585.37109375 407.00390625 C-581.15258801 411.73764933 -576.88924676 416.20009647 -572.03125 420.27734375 C-569.78697288 422.18066339 -567.65298903 424.18163188 -565.5 426.1875 C-553.69188124 436.80579306 -540.48468945 445.67073146 -527 454 C-526.4210498 454.3604541 -525.84209961 454.7209082 -525.24560547 455.09228516 C-497.23296549 472.36578271 -465.30795537 482.68957255 -433 488 C-432.09604492 488.15243164 -431.19208984 488.30486328 -430.26074219 488.46191406 C-363.39701836 499.3818097 -291.95335149 480.95738777 -236.875 442.125 C-225.84405877 434.14222838 -215.39493253 425.47062218 -205.4375 416.1875 C-204.79506348 415.58977783 -204.15262695 414.99205566 -203.49072266 414.3762207 C-199.03191578 410.15322171 -194.99086804 405.66315399 -191 401 C-190.13117187 400.02417969 -189.26234375 399.04835938 -188.3671875 398.04296875 C-180.41098964 388.92701164 -173.62435845 379.11449224 -167 369 C-166.50725586 368.25830566 -166.01451172 367.51661133 -165.50683594 366.75244141 C-165.04825195 366.04651855 -164.58966797 365.3405957 -164.1171875 364.61328125 C-163.50399658 363.67609253 -163.50399658 363.67609253 -162.87841797 362.7199707 C-161.77258369 360.87659476 -161.77258369 360.87659476 -162 358 C-162.66193359 357.6189209 -163.32386719 357.2378418 -164.00585938 356.84521484 C-176.02101663 349.92595618 -188.0294354 342.99622824 -200 336 C-208.3175098 331.13895701 -216.65203314 326.30854801 -225 321.5 C-235.51789386 315.44113832 -246.0117875 309.34221317 -256.4921875 303.21875 C-257.82588379 302.44144531 -257.82588379 302.44144531 -259.18652344 301.6484375 C-261.22588376 300.45356065 -263.25969364 299.24919417 -265.29003906 298.0390625 C-266.91377441 297.07613281 -266.91377441 297.07613281 -268.5703125 296.09375 C-269.56047363 295.50271484 -270.55063477 294.91167969 -271.57080078 294.30273438 C-273.83434565 292.84246343 -273.83434565 292.84246343 -276 293 C-277.04452496 294.51958587 -278.00824275 296.09481215 -278.9375 297.6875 C-296.0762294 325.37313981 -324.52559915 345.86764783 -356 354 C-357.69382812 354.52787109 -357.69382812 354.52787109 -359.421875 355.06640625 C-369.88996232 358.07347438 -380.30898708 358.40759302 -391.125 358.4375 C-392.19584839 358.44648819 -392.19584839 358.44648819 -393.28833008 358.45565796 C-406.74561494 358.53074235 -419.88910179 356.85543383 -432.6875 352.5 C-433.41533691 352.25354736 -434.14317383 352.00709473 -434.89306641 351.75317383 C-470.89579413 338.87986255 -497.61828382 311.99206106 -514 278 C-518.55852986 268.05852531 -520.98103606 257.70026329 -523 247 C-523.176521 246.06808838 -523.35304199 245.13617676 -523.53491211 244.17602539 C-528.59873607 209.59582278 -519.4170075 174.27777501 -498.98632812 146.13427734 C-478.22140914 118.48686824 -447.36134892 98.71190908 -413.09790039 92.77368164 C-396.06111114 90.36028142 -377.69622927 90.66731099 -361 95 C-360.21222168 95.19867676 -359.42444336 95.39735352 -358.61279297 95.60205078 C-335.33215454 101.61707929 -315.7946237 112.97500738 -298 129 C-297.33484375 129.59296875 -296.6696875 130.1859375 -295.984375 130.796875 C-288.07614136 138.26165628 -281.49151214 147.66442936 -276 157 C-272.76879704 156.34593456 -270.28005757 155.18015522 -267.421875 153.55078125 C-266.07065552 152.78435303 -266.07065552 152.78435303 -264.69213867 152.00244141 C-263.23578003 151.16592041 -263.23578003 151.16592041 -261.75 150.3125 C-260.73075439 149.73161621 -259.71150879 149.15073242 -258.66137695 148.55224609 C-249.45899047 143.29474606 -240.30694842 137.95108559 -231.16015625 132.59765625 C-221.56057762 126.98321325 -211.91864049 121.4419968 -202.28222656 115.89111328 C-196.85340058 112.76319852 -191.42680719 109.63141552 -186 106.5 C-183.83334417 105.24998121 -181.6666775 103.99998122 -179.5 102.75 C-178.4275 102.13125 -177.355 101.5125 -176.25 100.875 C-114.50000001 65.25 -114.50000001 65.25 -111.24951172 63.37475586 C-109.08442929 62.12564482 -106.91939018 60.87645871 -104.75439453 59.62719727 C-99.31384294 56.48797691 -93.87252784 53.35009437 -88.4296875 50.21484375 C-76.95204938 43.60153798 -65.4903356 36.96248753 -54.05395508 30.27807617 C-45.4795072 25.27013532 -36.87911092 20.3078401 -28.27148438 15.35717773 C-23.38227887 12.54201134 -18.50143734 9.71584536 -13.65234375 6.83203125 C-12.85691162 6.35926758 -12.06147949 5.88650391 -11.24194336 5.39941406 C-9.79114478 4.53427489 -8.34257863 3.66537628 -6.89672852 2.79199219 C-2.21791331 0 -2.21791331 0 0 0 Z " fill="#00599C" transform="translate(791,225)"/>
<path d="M0 0 C1.01324341 0.00149048 2.02648682 0.00298096 3.07043457 0.0045166 C25.09341198 0.06272099 46.23567892 1.84237091 67.625 7.3125 C68.55054688 7.53550781 69.47609375 7.75851563 70.4296875 7.98828125 C73.1889866 8.68885096 75.90163569 9.48216433 78.625 10.3125 C79.31803223 10.52181152 80.01106445 10.73112305 80.72509766 10.94677734 C113.96394714 21.11743835 143.26867462 37.04316788 170.625 58.3125 C171.43807617 58.94333496 171.43807617 58.94333496 172.26757812 59.58691406 C180.15352312 65.78589126 187.26263334 72.75223405 194.375 79.8125 C195.25051514 80.67866943 196.12603027 81.54483887 197.02807617 82.43725586 C205.09290373 90.54174776 212.31603655 99.2751897 219.0625 108.5 C219.51278564 109.11367432 219.96307129 109.72734863 220.42700195 110.35961914 C225.54306367 117.4333166 230.10410385 124.849589 234.625 132.3125 C232.2099251 134.99063752 229.61447088 136.6168511 226.48828125 138.39453125 C225.44865234 138.98943359 224.40902344 139.58433594 223.33789062 140.19726562 C222.21576172 140.83341797 221.09363281 141.46957031 219.9375 142.125 C218.16166257 143.13902174 216.38684016 144.15480529 214.61203003 145.17062378 C213.39858226 145.86496591 212.18481345 146.55874725 210.97073364 147.25198364 C205.16650683 150.56741936 199.39368166 153.93564004 193.625 157.3125 C185.34760919 162.14990959 177.05557626 166.96114326 168.75 171.75 C167.68281738 172.36536621 166.61563477 172.98073242 165.51611328 173.61474609 C160.43898248 176.54113199 155.3604627 179.46508603 150.27993774 182.38557434 C148.4999866 183.40899255 146.72039331 184.43303013 144.94091797 185.45727539 C142.71150663 186.74028627 140.48140624 188.02210088 138.25048828 189.30249023 C137.23712402 189.88587158 136.22375977 190.46925293 135.1796875 191.0703125 C134.22545898 191.61848633 133.27123047 192.16666016 132.28808594 192.73144531 C129.22159551 194.5519983 126.26615614 196.50871127 123.34814453 198.55810547 C121.625 199.3125 121.625 199.3125 119.51538086 199.07958984 C116.57012959 197.88444849 115.68725319 195.74351823 114.0625 193.0625 C94.24444822 162.18150618 63.24077275 143.78598683 27.86328125 135.6796875 C-8.72050508 129.52540569 -44.42289181 137.79489496 -74.63964844 159.03808594 C-98.71749978 176.72046973 -116.04168236 201.6534061 -124.375 230.3125 C-124.58672852 231.03405273 -124.79845703 231.75560547 -125.01660156 232.49902344 C-128.1561459 243.7685447 -128.76148585 254.99090248 -128.8125 266.625 C-128.81876404 267.29242218 -128.82502808 267.95984436 -128.83148193 268.64749146 C-128.8906204 278.60588775 -127.64631766 287.66408679 -125.375 297.3125 C-125.14216309 298.30685059 -124.90932617 299.30120117 -124.66943359 300.32568359 C-120.18245813 318.71037066 -111.00042932 337.19587824 -98.375 351.3125 C-97.67890625 352.1271875 -96.9828125 352.941875 -96.265625 353.78125 C-74.75758136 378.49261929 -44.20183413 395.45508246 -11.29983521 398.50485229 C-6.47183213 398.81205665 -1.6486797 398.84451626 3.1875 398.8125 C3.9217923 398.81040527 4.65608459 398.80831055 5.41262817 398.80615234 C35.6442272 398.62960553 65.72173866 388.51896094 88.625 368.3125 C89.85089844 367.26642578 89.85089844 367.26642578 91.1015625 366.19921875 C102.30232646 356.43756224 110.71945931 345.77634182 118.625 333.3125 C123.15624396 334.96662401 127.24364057 337.20951726 131.4375 339.5625 C132.21738281 339.99796143 132.99726562 340.43342285 133.80078125 340.88208008 C142.35600999 345.68353511 150.81621449 350.64740504 159.28125 355.60546875 C165.71259787 359.3700387 172.16684709 363.09415492 178.625 366.8125 C189.12813012 372.86339541 199.61383736 378.94301393 210.0703125 385.07421875 C213.65188529 387.1716424 217.24893901 389.23607285 220.8671875 391.26953125 C221.66568115 391.72352295 222.4641748 392.17751465 223.28686523 392.64526367 C224.75704307 393.48011522 226.23281103 394.30523216 227.71508789 395.1184082 C232.40752411 397.80258816 232.40752411 397.80258816 233.43530273 400.21240234 C233.67508554 402.8669863 233.09721911 403.79732928 231.6328125 406 C231.17970703 406.69254883 230.72660156 407.38509766 230.25976562 408.09863281 C229.51243164 409.19449707 229.51243164 409.19449707 228.75 410.3125 C228.24404297 411.07143555 227.73808594 411.83037109 227.21679688 412.61230469 C214.17635891 432.00893097 198.75714338 451.40611247 180.625 466.3125 C179.25214844 467.51712891 179.25214844 467.51712891 177.8515625 468.74609375 C151.86804145 491.48578599 121.26393083 508.44924987 88.5625 519.3125 C87.88402008 519.53833771 87.20554016 519.76417542 86.50650024 519.99685669 C72.35515146 524.66587198 58.14230475 528.35548332 43.375 530.5 C42.30765625 530.66435547 41.2403125 530.82871094 40.140625 530.99804688 C27.87420296 532.83652154 15.7136656 533.58049712 3.3125 533.625 C2.60511688 533.62761841 1.89773376 533.63023682 1.16891479 533.63293457 C-20.53790733 533.64141676 -42.40034035 530.9853789 -63.375 525.3125 C-64.14215332 525.10931152 -64.90930664 524.90612305 -65.69970703 524.69677734 C-85.11460209 519.47134127 -103.65855253 511.78884504 -121.375 502.3125 C-122.35194824 501.79502197 -122.35194824 501.79502197 -123.34863281 501.26708984 C-142.79395647 490.89972689 -160.56374005 477.94479071 -176.625 462.875 C-179.10179294 460.56707931 -181.62728742 458.33923791 -184.1875 456.125 C-187.52339609 453.16439222 -190.50988266 450.08490306 -193.3828125 446.67578125 C-194.9169478 444.85587564 -196.47208884 443.06995061 -198.0546875 441.29296875 C-221.78312246 414.46644754 -239.62745639 382.4430011 -250.375 348.3125 C-250.97054687 346.46205078 -250.97054687 346.46205078 -251.578125 344.57421875 C-252.54780596 341.49511988 -253.48516753 338.4156022 -254.375 335.3125 C-254.60695068 334.52246582 -254.83890137 333.73243164 -255.07788086 332.91845703 C-257.02095971 326.10395442 -258.36344485 319.31307725 -259.4375 312.3125 C-259.60668945 311.21510498 -259.77587891 310.11770996 -259.95019531 308.98706055 C-260.43778863 305.76391837 -260.90979219 302.53894125 -261.375 299.3125 C-261.5594165 298.06654053 -261.5594165 298.06654053 -261.74755859 296.79541016 C-271.16930878 231.1529922 -250.75213654 161.68718044 -211.78125 108.76171875 C-209.37902771 105.55639363 -206.88945033 102.43057831 -204.375 99.3125 C-203.59511719 98.32765625 -202.81523437 97.3428125 -202.01171875 96.328125 C-190.38534382 82.07993923 -177.12944409 68.32888788 -162.375 57.3125 C-161.0282846 56.26478707 -159.68196727 55.21656238 -158.3359375 54.16796875 C-126.45807799 29.67506086 -89.74287484 13.07923106 -50.5 4.6875 C-49.54367676 4.4810083 -48.58735352 4.2745166 -47.60205078 4.06176758 C-31.66519978 0.76758059 -16.22437202 -0.05890626 0 0 Z " fill="#FEFEFE" transform="translate(396.375,183.6875)"/>
<path d="M0 0 C1.53917042 2.30568956 2.96718376 4.61545473 4.375 7 C12.66157685 20.6248833 22.48907938 33.03235024 33 45 C33.86753906 45.99128906 34.73507813 46.98257813 35.62890625 48.00390625 C39.84741199 52.73764933 44.11075324 57.20009647 48.96875 61.27734375 C51.21302712 63.18066339 53.34701097 65.18163188 55.5 67.1875 C67.30811876 77.80579306 80.51531055 86.67073146 94 95 C94.5789502 95.3604541 95.15790039 95.7209082 95.75439453 96.09228516 C123.76703451 113.36578271 155.69204463 123.68957255 188 129 C188.90395508 129.15243164 189.80791016 129.30486328 190.73925781 129.46191406 C257.60298164 140.3818097 329.04664851 121.95738777 384.125 83.125 C395.15594123 75.14222838 405.60506747 66.47062218 415.5625 57.1875 C416.52615479 56.29091675 416.52615479 56.29091675 417.50927734 55.3762207 C421.96808422 51.15322171 426.00913196 46.66315399 430 42 C430.86882813 41.02417969 431.73765625 40.04835938 432.6328125 39.04296875 C440.03569259 30.56098545 446.32033724 21.48236445 452.56982422 12.12890625 C455.31584846 8.04127712 458.15745161 4.02091391 461 0 C464.54434427 1.34455698 467.80799193 2.91228344 471.11328125 4.765625 C472.10126709 5.31855225 473.08925293 5.87147949 474.10717773 6.44116211 C475.16493408 7.03807861 476.22269043 7.63499512 477.3125 8.25 C478.97551147 9.18501343 478.97551147 9.18501343 480.67211914 10.13891602 C490.13940877 15.47873305 499.53299965 20.94123025 508.91015625 26.4375 C515.21570419 30.1321331 521.54294436 33.78852681 527.875 37.4375 C528.95515381 38.06003662 530.03530762 38.68257324 531.14819336 39.32397461 C533.33796334 40.58576826 535.52782355 41.84740534 537.71777344 43.10888672 C543.14659942 46.23680148 548.57319281 49.36858448 554 52.5 C556.16665583 53.75001879 558.3333225 55.00001878 560.5 56.25 C564.83333333 58.75 569.16666667 61.25 573.5 63.75 C575.11177124 64.6795752 575.11177124 64.6795752 576.75610352 65.62792969 C578.90310969 66.86697863 581.04944198 68.10719605 583.19506836 69.34863281 C588.28994266 72.2945615 593.39112656 75.22763139 598.51651001 78.12011719 C600.94876488 79.49369334 603.3772309 80.8738907 605.80541992 82.25463867 C607.53002287 83.23160216 609.26008588 84.19890698 610.99023438 85.16601562 C612.02599609 85.75576172 613.06175781 86.34550781 614.12890625 86.953125 C615.04744385 87.47036133 615.96598145 87.98759766 616.91235352 88.52050781 C619 90 619 90 620 93 C611.78464035 107.82712056 599.18677131 116.22481657 584.91894531 124.33886719 C581.88205438 126.06712128 578.85802525 127.81631278 575.8359375 129.5703125 C570.34713158 132.7524293 564.84841216 135.91695691 559.34667969 139.07666016 C553.89361377 142.21054207 548.44708772 145.35574277 543 148.5 C540.83336586 149.75005639 538.66669917 151.00005634 536.5 152.25 C535.4275 152.86875 534.355 153.4875 533.25 154.125 C367.5 249.75 367.5 249.75 364.24951172 251.62524414 C362.08442929 252.87435518 359.91939018 254.12354129 357.75439453 255.37280273 C352.31384294 258.51202309 346.87252784 261.64990563 341.4296875 264.78515625 C330.97793263 270.80747638 320.53744027 276.84743319 310.125 282.9375 C301.82750129 287.78325033 293.51920396 292.61003084 285.18695068 297.39578247 C283.44494159 298.39728953 281.70509014 299.40254672 279.96533203 300.40795898 C257.9234257 313.03833148 235.82330159 321.91307015 210 315 C201.03701626 312.03066334 192.91071461 308.02107665 184.75 303.3125 C183.11405884 302.38232056 183.11405884 302.38232056 181.44506836 301.43334961 C174.10141503 297.24587937 166.80204999 292.98434283 159.53125 288.671875 C153.90132145 285.33998092 148.2308083 282.07852327 142.5625 278.8125 C140.90166382 277.85549194 140.90166382 277.85549194 139.20727539 276.87915039 C136.93662932 275.57110523 134.66587642 274.26324552 132.39501953 272.95556641 C126.9283002 269.80667946 121.46425113 266.65316736 116 263.5 C113.83334689 262.2499765 111.66668021 260.99997653 109.5 259.75 C87.83333333 247.25 66.16666667 234.75 44.5 222.25 C43.42733887 221.63116943 42.35467773 221.01233887 41.24951172 220.37475586 C39.08442929 219.12564482 36.91939018 217.87645871 34.75439453 216.62719727 C29.31384294 213.48797691 23.87252784 210.35009437 18.4296875 207.21484375 C7.97793801 201.19252671 -2.46299548 195.15330663 -12.875 189.0625 C-21.55262241 183.98724877 -30.26605568 178.97741233 -39 174 C-48.72115617 168.4599827 -58.40894658 162.86625191 -68.06689453 157.21655273 C-75.32211923 152.97382612 -82.59370389 148.76031793 -89.875 144.5625 C-90.94669434 143.94415283 -92.01838867 143.32580566 -93.12255859 142.6887207 C-98.14129376 139.79451076 -103.1626706 136.9051236 -108.19181824 134.02903748 C-115.14678418 130.05151729 -122.08558928 126.04763976 -129 122 C-129.7636084 121.55430664 -130.5272168 121.10861328 -131.31396484 120.64941406 C-142.90786713 113.81120238 -153.65486524 105.18158783 -160 93 C-160 92.34 -160 91.68 -160 91 C-123.16666667 69.75 -86.33333333 48.5 -49.5 27.25 C-48.42556641 26.63012207 -47.35113281 26.01024414 -46.24414062 25.37158203 C-44.09704864 24.13289998 -41.94991386 22.8942921 -39.80273438 21.65576172 C-34.70411191 18.7146665 -29.60594704 15.77278587 -24.50927734 12.82830811 C-22.08952335 11.43041399 -19.66952737 10.03293911 -17.24951172 8.63549805 C-15.53198948 7.64347676 -13.81481948 6.65084571 -12.09765625 5.65820312 C-10.54884766 4.76391602 -10.54884766 4.76391602 -8.96875 3.8515625 C-7.59879883 3.05999756 -7.59879883 3.05999756 -6.20117188 2.25244141 C-2.24249513 0 -2.24249513 0 0 0 Z " fill="#004482" transform="translate(170,584)"/>
<path d="M0 0 C0.78777832 0.19867676 1.57555664 0.39735352 2.38720703 0.60205078 C25.66784546 6.61707929 45.2053763 17.97500738 63 34 C63.99773437 34.88945312 63.99773437 34.88945312 65.015625 35.796875 C73.59272751 43.8930185 80.09595915 53.87896792 86 64 C85.36835937 64.35078613 84.73671875 64.70157227 84.0859375 65.06298828 C70.33297865 72.70985139 56.66630949 80.48090039 43.08984375 88.4375 C36.78429581 92.1321331 30.45705564 95.78852681 24.125 99.4375 C23.04484619 100.06003662 21.96469238 100.68257324 20.85180664 101.32397461 C18.66203666 102.58576826 16.47217645 103.84740534 14.28222656 105.10888672 C8.85340058 108.23680148 3.42680719 111.36858448 -2 114.5 C-4.16665583 115.75001879 -6.3333225 117.00001878 -8.5 118.25 C-9.5725 118.86875 -10.645 119.4875 -11.75 120.125 C-21.5 125.75 -21.5 125.75 -24.75048828 127.62524414 C-26.91557071 128.87435518 -29.08060982 130.12354129 -31.24560547 131.37280273 C-36.68615706 134.51202309 -42.12747216 137.64990563 -47.5703125 140.78515625 C-58.02206199 146.80747329 -68.46299548 152.84669337 -78.875 158.9375 C-88.71896489 164.69490595 -98.60765638 170.37149253 -108.52490234 176.00146484 C-114.3766678 179.3280078 -120.19717721 182.69608452 -125.96875 186.16015625 C-127.06960938 186.81693359 -128.17046875 187.47371094 -129.3046875 188.15039062 C-131.38911344 189.39773353 -133.46757744 190.65511009 -135.5390625 191.92382812 C-136.92738281 192.75237305 -136.92738281 192.75237305 -138.34375 193.59765625 C-139.55321289 194.33254272 -139.55321289 194.33254272 -140.78710938 195.08227539 C-143 196 -143 196 -145.16601562 195.86010742 C-148.53547534 194.27988823 -149.56421912 190.49974708 -151 187.25 C-151.34957764 186.48010742 -151.69915527 185.71021484 -152.05932617 184.91699219 C-166.45220635 152.52377482 -167.40660796 114.8535386 -154.84277344 81.80078125 C-140.91018253 46.96200944 -114.31602084 20.8781104 -80 6 C-54.86427429 -4.13374872 -26.39430299 -6.84934932 0 0 Z " fill="#659AD2" transform="translate(430,320)"/>
<path d="M0 0 C1.97191793 1.11654142 3.95396065 2.21537471 5.9453125 3.296875 C15.82433728 8.809515 25.68651923 14.33968743 35.41674805 20.11157227 C41.72835272 23.853479 48.07996631 27.52424928 54.4375 31.1875 C55.53312256 31.81897949 56.62874512 32.45045898 57.75756836 33.10107422 C62.35352491 35.74916183 66.95032574 38.39578174 71.54736328 41.04199219 C73.89910938 42.39578072 76.25058512 43.75003694 78.60180664 45.10473633 C80.79974434 46.37100994 82.99812 47.6365238 85.19702148 48.90112305 C91.50490899 52.53553564 97.77183611 56.23054848 104 60 C98.18941516 80.41231358 73.57810383 99.89812128 56 110 C50.46021696 112.93759371 44.76984639 115.54923172 39 118 C37.81978271 118.50370117 37.81978271 118.50370117 36.61572266 119.01757812 C21.02155571 125.48040946 5.31553347 127.48246625 -11.4375 127.5 C-12.14253662 127.5043103 -12.84757324 127.50862061 -13.57397461 127.51306152 C-26.90646724 127.54800399 -40.01405116 125.81291221 -52.6875 121.5 C-53.41533691 121.25354736 -54.14317383 121.00709473 -54.89306641 120.75317383 C-84.17235759 110.28392738 -110.67721442 89.20349613 -126 62 C-126 61.34 -126 60.68 -126 60 C-124.99755249 59.4423999 -124.99755249 59.4423999 -123.97485352 58.87353516 C-107.19311466 49.5341651 -107.19311466 49.5341651 -90.5859375 39.88989258 C-80.91638367 34.15778658 -71.15810125 28.57802617 -61.41699219 22.96875 C-56.93322381 20.38536131 -52.45194185 17.79769625 -47.97265625 15.20654297 C-45.79655875 13.95192314 -43.61689945 12.70345938 -41.43359375 11.46142578 C-36.22570328 8.49194499 -31.10688003 5.45684979 -26.0859375 2.1796875 C-25.15177002 1.59018311 -24.21760254 1.00067871 -23.25512695 0.39331055 C-21.51589707 -0.70851185 -19.79841408 -1.84580079 -18.11010742 -3.02416992 C-10.64673609 -7.66180725 -6.77886343 -4.53982451 0 0 Z " fill="#004482" transform="translate(411,456)"/>
<path d="M0 0 C9.9 0 19.8 0 30 0 C30 9.57 30 19.14 30 29 C39.9 29 49.8 29 60 29 C60 38.9 60 48.8 60 59 C50.1 59 40.2 59 30 59 C30 68.9 30 78.8 30 89 C20.1 89 10.2 89 0 89 C0 79.1 0 69.2 0 59 C-9.57 59 -19.14 59 -29 59 C-29 49.1 -29 39.2 -29 29 C-19.43 29 -9.86 29 0 29 C0 19.43 0 9.86 0 0 Z " fill="#FAFCFD" transform="translate(718,406)"/>
<path d="M0 0 C9.57 0 19.14 0 29 0 C29 9.57 29 19.14 29 29 C38.9 29 48.8 29 59 29 C59 38.9 59 48.8 59 59 C49.1 59 39.2 59 29 59 C29 68.9 29 78.8 29 89 C19.1 89 9.2 89 -1 89 C-1 79.1 -1 69.2 -1 59 C-10.57 59 -20.14 59 -30 59 C-30 49.1 -30 39.2 -30 29 C-20.1 29 -10.2 29 0 29 C0 19.43 0 9.86 0 0 Z " fill="#FBFCFD" transform="translate(608,406)"/>
</svg>
