<?xml version="1.0" encoding="UTF-8"?>
<svg version="1.1" xmlns="http://www.w3.org/2000/svg" width="1200" height="1362">
<path d="M0 0 C396 0 792 0 1200 0 C1200 7.90228954 1199.84420931 15.47408042 1199.12339401 23.29712582 C1198.98107869 24.91224295 1198.98107869 24.91224295 1198.83588832 26.55998871 C1198.51775416 30.15568881 1198.19206661 33.7506633 1197.86639404 37.34568787 C1197.6333637 39.96155177 1197.40075667 42.57745021 1197.16866338 45.1933971 C1196.66274592 50.88599727 1196.15289508 56.5782344 1195.64044785 62.27025032 C1194.87520774 70.77039922 1194.11612504 79.27109033 1193.35825378 87.771899 C1192.07218899 102.19532768 1190.7811411 116.61830635 1189.48735428 131.04104424 C1188.18632544 145.54477073 1186.88764912 160.04870498 1185.59189987 174.55290413 C1185.51044327 175.46469025 1185.42898666 176.37647637 1185.34506168 177.31589237 C1184.93028359 181.95885442 1184.51554591 186.60182008 1184.10082348 191.2447871 C1181.12248943 224.58748697 1178.13915276 257.92973763 1175.15289307 291.27172852 C1172.2237066 323.97663687 1169.29610304 356.68168612 1166.37103271 389.38696289 C1166.28062837 390.39776741 1166.19022402 391.40857194 1166.09708014 392.4500069 C1164.90786552 405.74657209 1163.71874722 419.04314588 1162.52966157 432.3397226 C1161.06163842 448.75540386 1159.59352794 465.1710773 1158.12541135 481.58675019 C1157.75812913 485.69350131 1157.39085191 489.80025287 1157.02357869 493.90700479 C1154.53668411 521.71472607 1152.04891524 549.522369 1149.56051246 577.32995536 C1141.44249 668.04842388 1133.34075389 758.76830393 1124.45393944 858.80110246 C1124.38617578 859.56395872 1124.31841213 860.32681498 1124.24859503 861.1127881 C1124.18100846 861.87365145 1124.11342189 862.63451481 1124.04378724 863.41843462 C1122.38915548 882.04559707 1120.73339878 900.67265927 1119.07696518 919.29966157 C1118.75706863 922.89701651 1118.43719061 926.49437309 1118.11731148 930.09172958 C1116.17835044 951.89715173 1116.17835044 951.89715173 1115.30752318 961.68931422 C1114.52296955 970.51138147 1113.73852081 979.33345804 1112.95422363 988.1555481 C1112.86588188 989.14924028 1112.86588188 989.14924028 1112.77575544 990.16300705 C1110.83248126 1012.02204218 1108.89428262 1033.88152363 1106.95823441 1055.74119975 C1105.10282737 1076.68931389 1103.24212648 1097.63695211 1101.37577832 1118.58409435 C1100.28856873 1130.78862443 1099.20573197 1142.99352379 1098.12937331 1155.19901576 C1097.42129138 1163.22387934 1096.70776577 1171.24824617 1095.98962152 1179.27221553 C1095.58286472 1183.81884199 1095.17859384 1188.36565281 1094.78109884 1192.91309917 C1094.42140747 1197.02762429 1094.05472845 1201.14146232 1093.68228002 1205.25485175 C1093.54960962 1206.73405769 1093.41955535 1208.21350107 1093.2923681 1209.69318856 C1093.12017721 1211.69215086 1092.93760919 1213.69021125 1092.75448799 1215.6882019 C1092.65627853 1216.79525419 1092.55806906 1217.90230648 1092.45688355 1219.04290581 C1091.99928392 1222.00463467 1091.36627091 1224.33445189 1090 1227 C1087.32800293 1228.26824951 1087.32800293 1228.26824951 1083.85742188 1229.19042969 C1083.21933153 1229.36615887 1082.58124119 1229.54188805 1081.92381477 1229.72294235 C1079.77692244 1230.3089383 1077.62336781 1230.86501551 1075.46875 1231.421875 C1073.9266859 1231.83685707 1072.38514225 1232.25377724 1070.84408569 1232.67248535 C1067.50405476 1233.57591807 1064.16093531 1234.46643284 1060.81488037 1235.34729004 C1055.41661953 1236.76883398 1050.02635834 1238.21915953 1044.63720703 1239.67480469 C1038.93724282 1241.21329332 1033.23695005 1242.75045213 1027.53421021 1244.27862549 C1008.80088619 1249.3005601 990.11492081 1254.48760607 971.43377686 1259.69973755 C962.97432709 1262.05967842 954.5125198 1264.41114209 946.05076981 1266.76281929 C944.14116175 1267.29354724 942.23157263 1267.82434335 940.32200241 1268.35520744 C918.51130911 1274.41861686 896.69248962 1280.45257524 874.87288666 1286.4838295 C839.2608601 1296.32764259 803.65558528 1306.19532302 768.05830383 1316.09231567 C756.90295279 1319.19369618 745.7468724 1322.29244579 734.5905323 1325.39026642 C731.68618198 1326.19676321 728.78186092 1327.00336529 725.87754822 1327.80999756 C717.13939286 1330.23683051 708.40111293 1332.66320844 699.6620779 1335.0868721 C694.95165576 1336.39332567 690.24139884 1337.70037397 685.53125 1339.0078125 C684.15377688 1339.39016933 684.15377688 1339.39016933 682.74847603 1339.78025055 C670.89646247 1343.07126733 659.05165149 1346.38668725 647.21502113 1349.73260307 C645.00642231 1350.35654486 642.79749797 1350.9793181 640.58842468 1351.60157776 C639.88369679 1351.80008803 639.17896891 1351.99859831 638.45288563 1352.20312405 C637.06672337 1352.59352617 635.68054346 1352.98386563 634.2943449 1353.37413883 C631.00988438 1354.29952068 627.7265244 1355.22848741 624.44546509 1356.16586304 C620.92023798 1357.17181885 617.39215775 1358.16709305 613.86328125 1359.16015625 C612.85112549 1359.45256195 611.83896973 1359.74496765 610.79614258 1360.04623413 C609.8622168 1360.30691681 608.92829102 1360.56759949 607.96606445 1360.83618164 C607.16940872 1361.06277969 606.37275299 1361.28937775 605.55195618 1361.52284241 C599.50203372 1362.6540399 594.20449273 1361.78237857 588.37182617 1360.10180664 C587.63550964 1359.89755821 586.89919312 1359.69330978 586.14056396 1359.48287201 C583.68889268 1358.8004949 581.24104213 1358.10532063 578.79296875 1357.41015625 C577.03394296 1356.91788736 575.2746848 1356.42644817 573.51521301 1355.93577576 C569.72911242 1354.87810043 565.94465458 1353.81479887 562.16137695 1352.74707031 C556.10291163 1351.03730066 550.04100994 1349.33995094 543.97851562 1347.64453125 C536.58251102 1345.57536688 529.18731034 1343.50337584 521.7931385 1341.42767143 C508.92619683 1337.81596401 496.05330547 1334.22612503 483.17578125 1330.65234375 C482.25717567 1330.3974008 481.3385701 1330.14245785 480.39212799 1329.87978935 C475.77467931 1328.59843287 471.15711252 1327.31750262 466.53948975 1326.03677368 C458.13986592 1323.70686889 449.74127063 1321.37326096 441.34259796 1319.03993034 C438.53023557 1318.25861589 435.71785007 1317.47738465 432.90545654 1316.69618225 C420.63647692 1313.2881994 408.36772816 1309.87938613 396.09906387 1306.47026825 C387.58692303 1304.10500925 379.07472907 1301.73994144 370.5625 1299.375 C369.16132431 1298.9857132 369.16132431 1298.9857132 367.73184204 1298.58856201 C339.9909038 1290.88149874 312.24679458 1283.18595105 284.5 1275.5 C255.79159664 1267.54762741 227.0858662 1259.58568138 198.38302612 1251.61325073 C195.57348726 1250.83291084 192.76392057 1250.05267121 189.9543457 1249.27246094 C189.05932594 1249.02389658 188.16430618 1248.77533222 187.24216461 1248.51923561 C185.4553114 1248.02300778 183.66844114 1247.52684131 181.88155365 1247.03073692 C177.5230217 1245.82039616 173.16498693 1244.60831873 168.8079834 1243.39248657 C160.52383302 1241.0820364 152.23618481 1238.78697465 143.93566132 1236.5359354 C139.91514225 1235.4443121 135.89697632 1234.34417776 131.87904358 1233.24307823 C129.9515624 1232.71730681 128.02296924 1232.19559371 126.09324646 1231.67811012 C123.42840375 1230.96316382 120.76767226 1230.2345034 118.10742188 1229.50268555 C117.31223145 1229.29322233 116.51704102 1229.08375912 115.69775391 1228.86794853 C110.22779207 1227.3416881 110.22779207 1227.3416881 108 1224 C107.61550491 1222.11030668 107.61550491 1222.11030668 107.4221133 1219.93231869 C107.30481268 1218.68233598 107.30481268 1218.68233598 107.18514235 1217.40710111 C107.06921273 1216.0304369 107.06921273 1216.0304369 106.95094109 1214.6259613 C106.81709149 1213.15851894 106.81709149 1213.15851894 106.68053786 1211.66143127 C106.38038194 1208.34715292 106.09260959 1205.03191206 105.80465698 1201.71655273 C105.59044406 1199.32270136 105.37547608 1196.92891745 105.15981615 1194.53519601 C104.68987022 1189.29945478 104.22532249 1184.0632752 103.76540804 1178.82664621 C103.07796585 1170.99975264 102.38064579 1163.17376105 101.6813206 1155.34792139 C100.49345827 1142.05187295 99.31371472 1128.75511532 98.13835526 1115.45795631 C96.95255846 1102.04312237 95.76300743 1088.62862933 94.56876755 1075.2145443 C94.49367796 1074.37109189 94.41858838 1073.52763948 94.34122335 1072.65862791 C93.95868182 1068.36189882 93.57607618 1064.06517544 93.1934465 1059.7684542 C90.43538338 1028.79558122 87.68547235 997.82198892 84.94006348 966.84799194 C82.23687466 936.35062166 79.53055775 905.85353184 76.81970215 875.35684204 C76.69388262 873.94137082 76.69388262 873.94137082 76.56552128 872.49730422 C75.54553366 861.02249721 74.52541523 849.54770183 73.50525365 838.07291029 C71.96263866 820.72143343 70.42033708 803.3699287 68.87811635 786.01841678 C68.70603 784.08227906 68.53394218 782.14614147 68.3618529 780.21000401 C65.75837378 750.91882788 63.15673157 721.62748905 60.55640741 692.33603268 C52.52770639 601.89728404 44.48042224 511.46022847 35.29679181 408.67733738 C35.22436615 407.86677774 35.15194048 407.05621809 35.0773201 406.22109604 C35.00502344 405.41198143 34.93272679 404.60286681 34.85823933 403.76923358 C33.28473429 386.15901919 31.71219307 368.54871879 30.13986016 350.93839971 C29.79086537 347.02963879 29.44185833 343.12087896 29.09285295 339.21211898 C28.0646684 327.69669875 27.03649632 316.18127741 26.00838339 304.66585078 C25.13994993 294.93893067 24.27145763 285.21201582 23.40289307 275.48510742 C23.33746033 274.75232859 23.27202758 274.01954975 23.20461203 273.26456549 C21.10451575 249.74588966 19.00165605 226.22746182 16.89756574 202.709143 C14.73764844 178.56657319 12.5815558 154.42366476 10.42982519 130.28036386 C9.20268128 116.51269248 7.97253216 102.74529746 6.737965 88.9782897 C5.92031871 79.85734881 5.10647423 70.736074 4.29577922 61.61451264 C3.83522461 56.43383253 3.37298851 51.25331764 2.90605903 46.07320786 C2.48211459 41.36963625 2.06306855 36.66565477 1.64791091 31.9612997 C1.49817191 30.27428584 1.34666004 28.58742814 1.19313388 26.90075471 C0.98449513 24.60572368 0.78249839 22.31019527 0.58203506 20.01443768 C0.46874682 18.74645515 0.35545857 17.47847263 0.23873734 16.17206639 C-0.06926275 10.78959535 0 5.39127615 0 0 Z " fill="#264DE4" transform="translate(0,0)"/>
<path d="M0 0 C248.49 0 496.98 0 753 0 C751.65257869 16.16905575 750.2666182 32.33470088 748.875 48.5 C748.79821014 49.39225281 748.72142029 50.28450562 748.64230347 51.20379639 C746.35133803 77.81114933 743.9755596 104.40921551 741.5 131 C739.06894549 157.11697553 736.74054426 183.24098765 734.5 209.375 C733.9184898 216.1562948 733.33674817 222.93756952 732.75390625 229.71875 C732.68184023 230.55722347 732.60977421 231.39569695 732.53552437 232.2595787 C730.18682199 259.56298504 727.71263304 286.85525384 725.24836731 314.14842224 C724.32848027 324.33927044 723.41541484 334.53070704 722.5078125 344.72265625 C720.400609 368.37398135 718.2817047 392.02395188 716.09375 415.66796875 C715.9269957 417.47055552 715.76024258 419.27314239 715.5934906 421.07572937 C715.33988361 423.8169099 715.08627007 426.55808981 714.83265591 429.29926968 C714.57590532 432.07451016 714.31919456 434.84975433 714.0625 437.625 C713.934998 439.00326525 713.934998 439.00326525 713.8049202 440.40937424 C711.19817787 468.59708781 708.69639355 496.79209134 706.28664017 524.99729156 C703.96429159 552.17511942 701.52029305 579.33983389 699 606.5 C695.92289895 639.66328017 692.97688767 672.83604288 690.14203072 706.02091026 C689.81397844 709.86064078 689.48436589 713.70022044 689.15060425 717.53945923 C688.5493278 724.47155325 687.96254406 731.40376272 687.43037319 738.34155369 C687.18405325 741.53245126 686.92726377 744.72246229 686.66909218 747.91242027 C686.5495339 749.42452854 686.43499566 750.93704298 686.32573509 752.44993019 C686.17547512 754.52602396 686.00826917 756.60009711 685.8371582 758.67456055 C685.74747269 759.85181198 685.65778717 761.02906342 685.56538391 762.24198914 C685 765 685 765 682 767 C679.70227677 767.63906335 677.38600524 768.21217341 675.0625 768.75 C668.86417707 770.22902468 662.77530785 771.93174389 656.6875 773.8125 C647.5333416 776.62584748 638.29450347 779.02478453 629.01513672 781.38720703 C621.23301898 783.38270678 613.54067869 785.57818822 605.86328125 787.94140625 C600.29748396 789.64410081 594.70926978 791.10869714 589.05126953 792.46826172 C583.8697054 793.73378135 578.78452101 795.24356052 573.6875 796.8125 C564.53300522 799.62485263 555.29456361 802.02476922 546.01513672 804.38720703 C538.23301898 806.38270678 530.54067869 808.57818822 522.86328125 810.94140625 C517.93891438 812.44787375 513.00682046 813.79713196 508 815 C501.92988899 816.46857525 495.97140215 818.17260842 490 820 C483.34786141 822.03375476 476.6926226 823.89413264 469.93310547 825.53344727 C462.66778336 827.3019916 455.47926673 829.33308732 448.28222656 831.35888672 C444.52390951 832.414657 440.76179211 833.45669367 437 834.5 C435.49998134 834.91659949 433.99998135 835.33326619 432.5 835.75 C423.5 838.25 423.5 838.25 421.2487793 838.87524414 C419.75278295 839.29086184 418.25685165 839.70671371 416.76098633 840.12280273 C412.95023686 841.18247416 409.13835059 842.23771925 405.32421875 843.28515625 C403.77864377 843.71093002 402.23307083 844.13671119 400.6875 844.5625 C399.94008545 844.76697754 399.1926709 844.97145508 398.42260742 845.18212891 C392.84350412 846.72301824 387.35752088 848.48236885 381.89453125 850.3984375 C370.33594466 852.80062689 354.57023939 845.62218285 343.42504883 842.2121582 C338.30972742 840.6582171 333.19631167 839.25717218 328 838 C321.05604262 836.32001031 314.25213416 834.30141076 307.421875 832.2109375 C302.30751155 830.65780259 297.19520222 829.25690376 292 828 C285.05604262 826.32001031 278.25213416 824.30141076 271.421875 822.2109375 C266.30751155 820.65780259 261.19520222 819.25690376 256 818 C249.92989596 816.53142644 243.97137123 814.82747474 238 813 C232.11098949 811.19872753 226.23636389 809.5094116 220.25 808.0625 C213.58168367 806.44736006 207.01571272 804.57355627 200.4375 802.625 C191.29252384 799.91656011 182.11134534 797.42683741 172.87280273 795.05908203 C167.03302237 793.55455171 161.28133177 791.88680143 155.53515625 790.0546875 C150.70238004 788.61286476 145.82249689 787.37649843 140.9375 786.125 C133.42560656 784.19950042 125.97666309 782.1482342 118.5625 779.875 C112.81891289 778.11433539 107.08931617 776.47572276 101.25 775.0625 C94.13025387 773.33561399 87.09775991 771.35574551 80.0625 769.3125 C78.98838867 769.00256104 77.91427734 768.69262207 76.80761719 768.37329102 C75.81020508 768.08123779 74.81279297 767.78918457 73.78515625 767.48828125 C72.88676025 767.22571533 71.98836426 766.96314941 71.06274414 766.69262695 C69 766 69 766 68 765 C67.75943031 763.17003339 67.58272827 761.33164455 67.4309082 759.4921875 C67.32997864 758.29793655 67.22904907 757.10368561 67.12506104 755.87324524 C67.01694168 754.54049894 66.9088493 753.20775046 66.80078125 751.875 C66.68476412 750.48699673 66.56827832 749.09903257 66.45135498 747.71110535 C66.19994848 744.71883737 65.95107302 741.72637392 65.70413208 738.73373413 C65.03836508 730.67177168 64.3547372 722.61131042 63.671875 714.55078125 C63.60213533 713.72602106 63.53239567 712.90126087 63.46054268 712.05150795 C62.08142726 695.7550868 60.58878114 679.47082431 59.0625 663.1875 C56.76325847 638.57338435 54.56205212 613.9514402 52.42234421 589.32294083 C52.1904175 586.65851688 51.9572335 583.99420588 51.72366333 581.32992554 C51.35381097 577.10900928 50.98741599 572.88780592 50.62356186 568.66636848 C50.48995043 567.12139818 50.35532541 565.57651508 50.21951675 564.03173637 C50.15610973 563.30941385 50.09270271 562.58709133 50.02737427 561.84288025 C49.97247896 561.22124465 49.91758366 560.59960905 49.86102486 559.95913601 C49.02641212 549.95851813 48.52873454 540.04595618 48 530 C97.83 530 147.66 530 199 530 C200.27875 544.045625 201.5575 558.09125 202.875 572.5625 C203.27444824 576.94732666 203.67389648 581.33215332 204.08544922 585.84985352 C204.83613633 594.09431431 205.58377269 602.3390463 206.32857704 610.58404064 C206.67481666 614.41536592 207.02183715 618.24660391 207.37463379 622.07733154 C207.67230233 625.31038242 207.96575112 628.54378261 208.2578125 631.77734375 C208.33740204 632.62478653 208.41699158 633.47222931 208.49899292 634.34535217 C208.96533908 639.58275465 209.06217047 644.74135985 209 650 C209.65484375 650.10739502 210.3096875 650.21479004 210.984375 650.32543945 C218.11920903 651.55173905 225.02851316 653.24956989 232 655.1875 C234.29524438 655.8163046 236.59082867 656.44386958 238.88671875 657.0703125 C240.05895996 657.39032227 241.23120117 657.71033203 242.43896484 658.04003906 C248.21724462 659.59771053 254.01528676 661.07718144 259.8125 662.5625 C268.49630796 664.79449267 277.1278373 667.15066596 285.734375 669.66259766 C294.21762024 672.11327719 302.77345455 674.27348155 311.32974243 676.45083618 C320.08211596 678.68221316 328.7805894 681.04377141 337.4375 683.625 C345.60802096 686.05205201 353.80343064 688.32973964 362.0625 690.4375 C363.05628662 690.6967627 364.05007324 690.95602539 365.07397461 691.22314453 C373.86654513 693.42563917 380.67862501 693.1101338 389.375 690.8125 C390.252771 690.58691406 391.13054199 690.36132812 392.03491211 690.12890625 C398.28113683 688.50431244 404.4750142 686.72634106 410.65625 684.87182617 C421.22384493 681.71159573 431.92675709 679.04421272 442.609375 676.3046875 C453.09546105 673.60988167 463.5600262 670.91400313 473.92236328 667.7734375 C480.08354272 665.92584337 486.31306059 664.4007284 492.56030273 662.87451172 C497.92014872 661.55327379 503.21631237 660.09748114 508.5 658.5 C514.83703426 656.58996006 521.20635304 654.86525745 527.625 653.25 C528.45451172 653.03923828 529.28402344 652.82847656 530.13867188 652.61132812 C530.93080078 652.41474609 531.72292969 652.21816406 532.5390625 652.015625 C533.23209473 651.84321289 533.92512695 651.67080078 534.63916016 651.49316406 C537.7406322 650.84528676 540.86121376 650.42535621 544 650 C544.04608398 648.83758789 544.09216797 647.67517578 544.13964844 646.47753906 C544.67776954 633.95591237 545.69940896 621.51856439 546.92602539 609.04721069 C547.49744246 603.23168561 548.05238227 597.4145775 548.609375 591.59765625 C548.78291504 589.79069023 548.78291504 589.79069023 548.95996094 587.94721985 C550.19652589 575.03233868 551.35386299 562.11067272 552.5 549.1875 C552.70507803 546.879069 552.91015616 544.57063801 553.11523438 542.26220703 C553.52985348 537.5916833 553.94381913 532.92110212 554.35742188 528.25048828 C555.37327197 516.78229148 556.39533638 505.31464835 557.41821289 493.84707642 C557.74223192 490.21214437 558.06549606 486.57714577 558.38867188 482.94213867 C558.58720987 480.7140273 558.78577608 478.48591844 558.984375 476.2578125 C559.07269592 475.26240952 559.16101685 474.26700653 559.25201416 473.24143982 C559.33610535 472.299543 559.42019653 471.35764618 559.50683594 470.38720703 C559.61412018 469.18162643 559.61412018 469.18162643 559.72357178 467.95169067 C559.97766905 465.23844907 560.24546574 462.52703426 560.51727676 459.81551933 C560.60759493 458.91402873 560.6979131 458.01253813 560.79096818 457.08372962 C560.89443893 456.05228346 560.89443893 456.05228346 561 455 C559.35011325 455.00056958 559.35011325 455.00056958 557.66689545 455.00115067 C509.21685011 455.01781122 460.7668046 455.03324016 412.3167572 455.04234314 C411.58383174 455.0424812 410.85090627 455.04261925 410.09577094 455.04276149 C394.16927559 455.04575405 378.24278021 455.04852428 362.31628478 455.05106533 C354.50651081 455.05231272 346.69673685 455.05360927 338.88696289 455.05493164 C338.10977545 455.0550624 337.33258801 455.05519316 336.53184943 455.05532788 C311.31789711 455.0595931 286.10394702 455.06710728 260.88999605 455.07629722 C234.99037844 455.08571998 209.09076208 455.09188316 183.19114279 455.09391499 C179.53726879 455.09420317 175.88339479 455.0945288 172.2295208 455.09487724 C171.51034997 455.09494467 170.79117914 455.09501209 170.05021526 455.09508156 C158.44981282 455.09626561 146.84941419 455.10090996 135.24901331 455.10683203 C123.60107779 455.11270512 111.95314699 455.11489029 100.30520994 455.11350138 C93.98827546 455.11285765 87.67135222 455.11387942 81.35441971 455.11920547 C75.58165876 455.12403749 69.8089167 455.12433997 64.03615492 455.12089889 C61.93790028 455.120473 59.83964451 455.1217704 57.74139214 455.12488318 C54.90893118 455.12884383 52.07654022 455.12676548 49.24408054 455.12304783 C48.41244793 455.12567484 47.58081531 455.12830186 46.72398171 455.13100848 C41.1141458 455.1141458 41.1141458 455.1141458 40 454 C39.7513148 451.7220012 39.56793994 449.43687163 39.40869141 447.15087891 C39.299503 445.64113839 39.19023565 444.13140359 39.0809021 442.62167358 C39.02365337 441.80813793 38.96640465 440.99460228 38.90742111 440.15641403 C37.72757734 423.48966178 36.31097348 406.84815922 34.7734375 390.2109375 C34.62772686 388.63146709 34.62772686 388.63146709 34.47907257 387.0200882 C33.88277808 380.56333422 33.28227281 374.1069777 32.68023682 367.65075684 C31.86580406 358.91038371 31.05671427 350.16951445 30.24769974 341.42863846 C29.9690757 338.42370715 29.68894192 335.4189198 29.40853882 332.41415405 C29.23635622 330.56044821 29.06420491 328.70673946 28.89208984 326.85302734 C28.81624161 326.04466431 28.74039337 325.23630127 28.6622467 324.40344238 C28.03298668 317.60555302 27.52383028 310.80979368 27 304 C207.84 304 388.68 304 575 304 C575 299.38 575 294.76 575 290 C575.14165968 287.45380437 575.32013769 284.90888149 575.56323242 282.37036133 C575.62357225 281.72068107 575.68391209 281.0710008 575.7460804 280.40163326 C575.94319633 278.29448027 576.1493198 276.18831784 576.35546875 274.08203125 C576.49951226 272.5578603 576.64290151 271.03362739 576.78569031 269.50933838 C577.08919156 266.28063071 577.39638453 263.05230659 577.70672607 259.82424927 C578.44059947 252.18799121 579.15588675 244.54998412 579.87121582 236.91197014 C580.03282877 235.18688761 580.19467434 233.46182686 580.35675049 231.7367878 C581.4735382 219.84458807 582.54235196 207.94942047 583.54296875 196.046875 C583.60121763 195.35430288 583.65946651 194.66173077 583.71948051 193.94817162 C584.31783781 186.8207188 584.90552993 179.6924058 585.48901367 172.5637207 C585.58503372 171.40289978 585.68105377 170.24207886 585.77998352 169.04608154 C585.95698726 166.90465392 586.13156293 164.76302353 586.30314636 162.62115479 C586.41968315 161.21358917 586.41968315 161.21358917 586.53857422 159.77758789 C586.60406464 158.96979385 586.66955505 158.16199982 586.73703003 157.32972717 C587.01511128 154.86612478 587.51377965 152.43110175 588 150 C398.58 150 209.16 150 14 150 C9.39939938 103.99399375 9.39939938 103.99399375 7.67578125 84.82421875 C7.48227431 82.68812104 7.28859995 80.55203849 7.09477234 78.41596985 C6.59874116 72.94477747 6.10487541 67.47339205 5.61157227 62.00195312 C5.10635158 56.40287066 4.59897465 50.80398359 4.09179688 45.20507812 C3.27682858 36.20583133 2.46303238 27.20647965 1.65113831 18.20695496 C1.10342561 12.13772293 0.55171579 6.06887368 0 0 Z " fill="#FEFEFE" transform="translate(223,251)"/>
<path d="M0 0 C161.7 0 323.4 0 490 0 C489 25 489 25 488 31 C487.82762694 33.39407023 487.68422206 35.79032073 487.5625 38.1875 C487.24274228 43.87592465 486.76465945 49.5253293 486.125 55.1875 C485.03334995 64.94090463 484.27338244 74.71744763 483.5 84.5 C482.7066061 94.52301321 481.90747963 104.53263643 480.76953125 114.5234375 C479.81807625 123.16452065 479.18623962 131.83474217 478.5 140.5 C477.70635613 150.52146858 476.90975735 160.52998591 475.76953125 170.51904297 C474.64011101 180.7601999 473.92638829 191.04623131 473.140625 201.31835938 C473.02085851 202.85026239 472.90106772 204.3821635 472.78125 205.9140625 C472.73230591 206.57528107 472.68336182 207.23649963 472.63293457 207.91775513 C472.30498423 212.07666638 471.86092132 216.21272264 471.35176653 220.35346985 C469.97435923 231.62154832 468.95693406 242.91625022 467.95288086 254.22265625 C467.75736283 256.40446706 467.56164265 258.58625977 467.36573792 260.76803589 C466.83878206 266.64381841 466.31481587 272.51986383 465.79156184 278.39597702 C465.3526794 283.32124015 464.91225931 288.24636528 464.47183424 293.17149067 C463.43214362 304.79805754 462.3948335 316.42483505 461.35913086 328.05175781 C460.29420378 340.00638782 459.22569056 351.96069263 458.15533537 363.91483784 C457.23279986 374.21922637 456.31228297 384.52379383 455.39340693 394.82850933 C454.84618887 400.96520721 454.29828223 407.10184142 453.74851799 413.23831177 C453.23153427 419.01007994 452.71710084 424.78207011 452.20454979 430.55423355 C452.01718956 432.65963679 451.8289761 434.76496432 451.63979721 436.87020493 C450.66649924 447.70747125 449.7836755 458.53151206 449.2180872 469.39837646 C448.87520828 475.06088571 448.22183893 480.67967047 447.5625 486.3125 C446.48825003 495.86657826 445.63003779 505.4065796 445 515 C444.30625765 525.53855689 443.28838523 536.00600827 442.10546875 546.5 C441.20407032 554.65811107 440.53926689 562.81045542 440 571 C439.30605557 581.53854591 438.28838622 592.00599947 437.10546875 602.5 C436.07642399 611.81337478 435.38569466 621.12712848 434.77172852 630.47583008 C434.11773952 640.09938951 433.11409988 649.6649767 432.03735352 659.24926758 C431.20123481 666.79254737 430.62131747 674.29222195 430.26367188 681.87109375 C430.03809294 685.87446609 429.57143505 689.83661784 429.0625 693.8125 C428.02120392 702.30868531 427.34562229 710.81183855 426.73849487 719.34848022 C425.76672564 732.95375498 424.59431047 746.50210497 423.05493164 760.0559082 C422.03639949 769.19189385 421.37339117 778.33117128 420.76928711 787.50268555 C420.13186166 796.86793632 419.15679366 806.17339482 418.10546875 815.5 C417.20407032 823.65811107 416.53926689 831.81045542 416 840 C415.30712396 850.52232082 414.29412795 860.97410451 413.10986328 871.45166016 C412.02339848 881.26582818 411.27782365 891.08819666 410.64648438 900.94140625 C410.57494141 902.04097656 410.50339844 903.14054688 410.4296875 904.2734375 C410.34050049 905.71855713 410.34050049 905.71855713 410.24951172 907.19287109 C409.98533631 910.16497373 409.50295916 913.05991339 409 916 C408.82762694 918.39407023 408.68422206 920.79032073 408.5625 923.1875 C408.24274228 928.87592465 407.76465945 934.5253293 407.125 940.1875 C406.03334995 949.94090463 405.27338244 959.71744763 404.5 969.5 C402.96734648 988.86214337 402.96734648 988.86214337 402 997.5 C401.31257777 1003.74360413 400.73125492 1009.98757526 400.24609375 1016.25 C400.1113571 1017.94726793 399.97659079 1019.6445335 399.84179688 1021.34179688 C399.57382059 1024.74377669 399.31181735 1028.14616075 399.05273438 1031.54882812 C398.92974316 1033.12630642 398.80669858 1034.70378056 398.68359375 1036.28125 C398.62948837 1037.01472656 398.575383 1037.74820312 398.51963806 1038.50390625 C398.28144973 1041.5249406 397.96301309 1044.11096073 397 1047 C394.24166998 1048.01452046 391.59547139 1048.8235514 388.76171875 1049.56640625 C387.90731705 1049.8011264 387.05291534 1050.03584656 386.17262268 1050.27767944 C383.34729817 1051.05100834 380.51753195 1051.80659772 377.6875 1052.5625 C375.71091757 1053.10037603 373.73468345 1053.63953355 371.75878906 1054.17993164 C367.74162551 1055.27714373 363.72286268 1056.36816531 359.70263672 1057.45410156 C352.58196188 1059.3801164 345.47673722 1061.36021494 338.37231445 1063.34515381 C334.74015047 1064.35890486 331.1064452 1065.36709171 327.47265625 1066.375 C326.72658112 1066.58196503 325.98050598 1066.78893005 325.21182251 1067.00216675 C319.03697342 1068.71422595 312.86039915 1070.42001439 306.68359375 1072.125 C302.68485304 1073.22901174 298.68616134 1074.33320081 294.6875 1075.4375 C293.69307892 1075.71208038 292.69865784 1075.98666077 291.67410278 1076.26956177 C277.83230891 1080.09296437 264.00426889 1083.96218839 250.1875 1087.875 C238.99612455 1091.04381854 227.79567448 1094.16259075 216.55688477 1097.15991211 C205.22880291 1100.18892923 193.92689959 1103.31243496 182.625 1106.4375 C181.59549225 1106.72214111 180.5659845 1107.00678223 179.50527954 1107.30004883 C166.44999194 1110.91206696 153.41091689 1114.57246986 140.39501953 1118.32397461 C131.88419512 1120.76929246 123.34035452 1123.07704058 114.78393555 1125.35693359 C106.83027 1127.48474257 98.91156477 1129.72100678 91 1132 C81.15025104 1134.83565672 71.27924118 1137.56695513 61.37573242 1140.20825195 C50.16006082 1143.20681886 38.97829401 1146.32535563 27.796875 1149.44873047 C27.06152023 1149.65382736 26.32616547 1149.85892426 25.56852722 1150.07023621 C23.57713313 1150.62574818 21.58603944 1151.18233669 19.5949707 1151.73901367 C13.07311709 1153.52878966 6.53462573 1155.25743314 0 1157 C0 1105.52 0 1054.04 0 1001 C12.28758829 996.53178607 12.28758829 996.53178607 17.625 995.1875 C24.44387778 993.42399713 31.22253883 991.54137129 38 989.625 C46.16489028 987.32220796 54.34528696 985.10817733 62.5625 983 C71.43173679 980.72173385 80.21649385 978.2143123 88.99560547 975.61206055 C96.99813573 973.25465014 105.0482366 971.12973484 113.12890625 969.05859375 C117.95957122 967.81412881 122.74512504 966.51433108 127.5 965 C133.21951267 963.1784514 139.00003626 961.67728154 144.8125 960.1875 C152.92271714 958.10686838 160.97254148 955.87981598 169 953.5 C177.99924508 950.83208871 187.0368555 948.38896001 196.12890625 946.05859375 C201.95893784 944.55667425 207.70141673 942.89316487 213.4375 941.0625 C218.4244352 939.57516845 223.46028552 938.2952968 228.5 937 C235.57805672 935.1796547 242.58392154 933.26378375 249.55078125 931.05078125 C255.01598751 929.38584299 260.5345758 927.92165446 266.04931641 926.43066406 C273.52286267 924.40845514 280.98282094 922.34066573 288.4375 920.25 C290.00902832 919.80950317 290.00902832 919.80950317 291.61230469 919.36010742 C296.74523971 917.919437 301.8740569 916.46538093 307 915 C307.10822838 913.73098846 307.10822838 913.73098846 307.21864319 912.43634033 C310.5318709 873.61357882 313.8867195 834.79611291 317.5 796 C319.91464215 770.07078673 322.21950394 744.13426484 324.4375 718.1875 C326.92953841 689.03490777 329.54981486 659.89625811 332.25409317 630.76261139 C334.81174483 603.20410791 337.26841783 575.63891688 339.625 548.0625 C341.75975562 523.08186851 343.98798369 498.11468883 346.36630249 473.15591431 C348.518852 450.53113445 350.50104925 427.89416572 352.4375 405.25 C354.69735315 378.82408169 357.04048294 352.40808824 359.5 326 C361.91437995 300.06983915 364.23175175 274.13282176 366.46197891 248.18615341 C366.68602112 245.57970496 366.91028703 242.97327585 367.13461304 240.36685181 C368.20582597 227.91866016 369.27514711 215.47030501 370.3404541 203.02160645 C370.91144904 196.34942087 371.48565798 189.67754179 372.06777954 183.00631714 C372.22724641 181.16949505 372.3850248 179.33252535 372.54086304 177.49539185 C372.74814346 175.05251666 372.96121837 172.61021347 373.17578125 170.16796875 C373.34460815 168.20766724 373.34460815 168.20766724 373.5168457 166.20776367 C374.14033665 160.77781596 375.10145654 155.39126078 376 150 C251.92 150 127.84 150 0 150 C0 100.5 0 51 0 0 Z " fill="#2965F1" transform="translate(600,101)"/>
<path d="M0 0 C49.83 0 99.66 0 151 0 C152.27875 14.045625 153.5575 28.09125 154.875 42.5625 C155.27444824 46.94732666 155.67389648 51.33215332 156.08544922 55.84985352 C156.83613633 64.09431431 157.58377269 72.3390463 158.32857704 80.58404064 C158.67481666 84.41536592 159.02183715 88.24660391 159.37463379 92.07733154 C159.67230233 95.31038242 159.96575112 98.54378261 160.2578125 101.77734375 C160.33740204 102.62478653 160.41699158 103.47222931 160.49899292 104.34535217 C160.96533908 109.58275465 161.06217047 114.74135985 161 120 C161.98226562 120.16109253 161.98226562 120.16109253 162.984375 120.32543945 C170.11920903 121.55173905 177.02851316 123.24956989 184 125.1875 C186.29524438 125.8163046 188.59082867 126.44386958 190.88671875 127.0703125 C192.64508057 127.55032715 192.64508057 127.55032715 194.43896484 128.04003906 C200.21724462 129.59771053 206.01528676 131.07718144 211.8125 132.5625 C220.49630796 134.79449267 229.1278373 137.15066596 237.734375 139.66259766 C246.21762024 142.11327719 254.77345455 144.27348155 263.32974243 146.45083618 C272.08207755 148.68220336 280.78092319 151.0427211 289.4375 153.625 C302.79252208 157.60837515 316.31267342 161.33472555 330 164 C329.34 164.33 328.68 164.66 328 165 C328 216.48 328 267.96 328 321 C313.44323484 317.6407465 313.44323484 317.6407465 308.3125 316.125 C302.96758038 314.56828476 297.61513253 313.04758992 292.25 311.5625 C291.49243408 311.35254395 290.73486816 311.14258789 289.9543457 310.92626953 C288.40775948 310.497723 286.86112836 310.06933844 285.31445312 309.64111328 C281.5423701 308.59623037 277.77122533 307.5479734 274 306.5 C272.50000467 306.08331654 271.00000466 305.66664988 269.5 305.25 C242.5 297.75 215.5 290.25 188.5 282.75 C187.38612915 282.440625 187.38612915 282.440625 186.24975586 282.125 C184.75052301 281.70850124 183.25133675 281.2918347 181.75219727 280.875 C177.99082511 279.8293802 174.22867541 278.78673435 170.46484375 277.75 C163.22640992 275.75289464 156.0061263 273.7157001 148.8125 271.5625 C141.00158998 269.2282157 133.12241122 267.19033827 125.2277832 265.16040039 C119.27041479 263.61957332 113.39832623 261.92410402 107.53515625 260.0546875 C102.70238004 258.61286476 97.82249689 257.37649843 92.9375 256.125 C85.42560656 254.19950042 77.97666309 252.1482342 70.5625 249.875 C64.81891289 248.11433539 59.08931617 246.47572276 53.25 245.0625 C46.13025387 243.33561399 39.09775991 241.35574551 32.0625 239.3125 C30.45133301 238.84759155 30.45133301 238.84759155 28.80761719 238.37329102 C27.31149902 237.93521118 27.31149902 237.93521118 25.78515625 237.48828125 C24.88676025 237.22571533 23.98836426 236.96314941 23.06274414 236.69262695 C21 236 21 236 20 235 C19.75943031 233.17003339 19.58272827 231.33164455 19.4309082 229.4921875 C19.32997864 228.29793655 19.22904907 227.10368561 19.12506104 225.87324524 C19.01694168 224.54049894 18.9088493 223.20775046 18.80078125 221.875 C18.68476412 220.48699673 18.56827832 219.09903257 18.45135498 217.71110535 C18.19994848 214.71883737 17.95107302 211.72637392 17.70413208 208.73373413 C17.03836508 200.67177168 16.3547372 192.61131042 15.671875 184.55078125 C15.60213533 183.72602106 15.53239567 182.90126087 15.46054268 182.05150795 C14.08142726 165.7550868 12.58878114 149.47082431 11.0625 133.1875 C8.76325847 108.57338435 6.56205212 83.9514402 4.42234421 59.32294083 C4.1904175 56.65851688 3.9572335 53.99420588 3.72366333 51.32992554 C3.35381097 47.10900928 2.98741599 42.88780592 2.62356186 38.66636848 C2.48995043 37.12139818 2.35532541 35.57651508 2.21951675 34.03173637 C2.12440622 32.94825259 2.12440622 32.94825259 2.02737427 31.84288025 C1.97247896 31.22124465 1.91758366 30.59960905 1.86102486 29.95913601 C1.02641212 19.95851813 0.52873454 10.04595618 0 0 Z " fill="#EAEAEA" transform="translate(271,781)"/>
<path d="M0 0 C248.49 0 496.98 0 753 0 C753 1.65 753 3.3 753 5 C752.67 3.68 752.34 2.36 752 1 C627.92 1 503.84 1 376 1 C376 50.17 376 99.34 376 150 C256.54 150 137.08 150 14 150 C9.39939938 103.99399375 9.39939938 103.99399375 7.67578125 84.82421875 C7.48227431 82.68812104 7.28859995 80.55203849 7.09477234 78.41596985 C6.59874116 72.94477747 6.10487541 67.47339205 5.61157227 62.00195312 C5.10635158 56.40287066 4.59897465 50.80398359 4.09179688 45.20507812 C3.27682858 36.20583133 2.46303238 27.20647965 1.65113831 18.20695496 C1.10342561 12.13772293 0.55171579 6.06887368 0 0 Z " fill="#EAEAEB" transform="translate(223,251)"/>
<path d="M0 0 C180.51 0 361.02 0 547 0 C547 0.33 547 0.66 547 1 C481.66 1 416.32 1 349 1 C349 50.17 349 99.34 349 150 C410.38 150 471.76 150 535 150 C535 151.65 535 153.3 535 155 C534.67 153.68 534.34 152.36 534 151 C532.35011325 151.00056958 532.35011325 151.00056958 530.66689545 151.00115067 C482.21685011 151.01781122 433.7668046 151.03324016 385.3167572 151.04234314 C384.58383174 151.0424812 383.85090627 151.04261925 383.09577094 151.04276149 C367.16927559 151.04575405 351.24278021 151.04852428 335.31628478 151.05106533 C327.50651081 151.05231272 319.69673685 151.05360927 311.88696289 151.05493164 C311.10977545 151.0550624 310.33258801 151.05519316 309.53184943 151.05532788 C284.31789711 151.0595931 259.10394702 151.06710728 233.88999605 151.07629722 C207.99037844 151.08571998 182.09076208 151.09188316 156.19114279 151.09391499 C152.53726879 151.09420317 148.88339479 151.0945288 145.2295208 151.09487724 C144.51034997 151.09494467 143.79117914 151.09501209 143.05021526 151.09508156 C131.44981282 151.09626561 119.84941419 151.10090996 108.24901331 151.10683203 C96.60107779 151.11270512 84.95314699 151.11489029 73.30520994 151.11350138 C66.98827546 151.11285765 60.67135222 151.11387942 54.35441971 151.11920547 C48.58165876 151.12403749 42.8089167 151.12433997 37.03615492 151.12089889 C34.93790028 151.120473 32.83964451 151.1217704 30.74139214 151.12488318 C27.90893118 151.12884383 25.07654022 151.12676548 22.24408054 151.12304783 C20.99663162 151.12698835 20.99663162 151.12698835 19.72398171 151.13100848 C14.1141458 151.1141458 14.1141458 151.1141458 13 150 C12.7513148 147.7220012 12.56793994 145.43687163 12.40869141 143.15087891 C12.299503 141.64113839 12.19023565 140.13140359 12.0809021 138.62167358 C12.02365337 137.80813793 11.96640465 136.99460228 11.90742111 136.15641403 C10.72757734 119.48966178 9.31097348 102.84815922 7.7734375 86.2109375 C7.67629707 85.15795723 7.57915665 84.10497696 7.47907257 83.0200882 C6.88277808 76.56333422 6.28227281 70.1069777 5.68023682 63.65075684 C4.86580406 54.91038371 4.05671427 46.16951445 3.24769974 37.42863846 C2.9690757 34.42370715 2.68894192 31.4189198 2.40853882 28.41415405 C2.23635622 26.56044821 2.06420491 24.70673946 1.89208984 22.85302734 C1.81624161 22.04466431 1.74039337 21.23630127 1.6622467 20.40344238 C1.03298668 13.60555302 0.52383028 6.80979368 0 0 Z " fill="#E9E9EB" transform="translate(250,555)"/>
<path d="M0 0 C60.72 0 121.44 0 184 0 C184 6.53790556 183.875716 12.77707775 183.25317383 19.24267578 C183.13340762 20.5453057 183.13340762 20.5453057 183.01122189 21.87425137 C182.74745382 24.73168877 182.47724907 27.58847844 182.20703125 30.4453125 C182.01831597 32.47684379 181.83003186 34.50841518 181.64215088 36.5400238 C181.24350348 40.84204054 180.84212622 45.14378991 180.43850708 49.44534302 C179.80968522 56.14794204 179.18721745 62.85112077 178.56616211 69.55444336 C178.35921663 71.78746121 178.1522617 74.02047818 177.94529724 76.25349426 C177.84337004 77.35326914 177.74144283 78.45304401 177.63642693 79.5861454 C177.3286804 82.90416812 177.02034103 86.22213523 176.71180725 89.54008484 C175.13090453 106.54483787 173.57946424 123.55192213 172.0625 140.5625 C171.96740143 141.62237122 171.87230286 142.68224243 171.77432251 143.77423096 C170.96681526 152.77486315 170.16904309 161.77531217 169.46435547 170.78466797 C169.3754454 171.92000473 169.28653534 173.05534149 169.19493103 174.2250824 C169.02529485 176.40917664 168.85812657 178.59346449 168.69386292 180.77796936 C168.32363694 185.56769609 167.91241378 190.27552245 167 195 C166.27111572 195.1858667 165.54223145 195.3717334 164.79125977 195.56323242 C146.86428204 200.13179704 146.86428204 200.13179704 129.08227539 205.2253418 C123.01973288 207.0428367 116.89543413 208.57397755 110.73852539 210.03759766 C105.43085691 211.32044846 100.20003765 212.81238837 94.96875 214.375 C85.47918344 217.2035146 75.90426951 219.63947371 66.30224609 222.05224609 C57.44463385 224.28289172 48.65256692 226.64676612 39.89987183 229.26071167 C34.50694556 230.86716409 29.09514398 232.30957018 23.625 233.625 C17.38238897 235.15153274 11.17031 236.73147822 4.99609375 238.51953125 C3 239 3 239 0 239 C0 160.13 0 81.26 0 0 Z " fill="#2965F1" transform="translate(600,706)"/>
<path d="M0 0 C0.33 0 0.66 0 1 0 C1 2.31 1 4.62 1 7 C190.42 7 379.84 7 575 7 C572.70754737 41.3867894 572.70754737 41.3867894 571.66796875 52.07421875 C571.54948074 53.3345845 571.43099274 54.59495026 571.30891418 55.89350891 C570.93894515 59.82521422 570.56382699 63.75639863 570.1875 67.6875 C567.22160851 98.77353446 564.63721371 129.88087821 562 161 C496.66 161 431.32 161 364 161 C364 110.51 364 60.02 364 8 C243.88 8 123.76 8 0 8 C0 5.36 0 2.72 0 0 Z " fill="#2A66F0" transform="translate(236,394)"/>
</svg>
