<?xml version="1.0" encoding="UTF-8"?>
<svg version="1.1" xmlns="http://www.w3.org/2000/svg" width="454" height="515">
<path d="M0 0 C149.82 0 299.64 0 454 0 C452.84375383 24.28116963 452.84375383 24.28116963 451.85482931 35.12038606 C451.78213959 35.92306043 451.70944987 36.7257348 451.63455743 37.55273264 C451.55909513 38.38514029 451.48363283 39.21754793 451.40588379 40.07518005 C451.24449996 41.89153331 451.08349555 43.70792032 450.92283106 45.52433735 C450.4862267 50.44814572 450.0443107 55.37146421 449.60141683 60.29471028 C449.12245966 65.62960351 448.64855973 70.96494643 448.17399597 76.30023193 C447.2462775 86.72117753 446.31396246 97.14170689 445.3800329 107.56209748 C444.29198711 119.70392829 443.2084894 131.8461637 442.12514406 143.98841465 C440.19263906 165.64632424 438.25593896 187.30385664 436.31689453 208.96118164 C434.43574003 229.97196213 432.557721 250.98301984 430.68310547 271.99438477 C430.50960842 273.93899595 430.50960842 273.93899595 430.33260638 275.92289221 C430.21714006 277.21707691 430.10167375 278.51126161 429.98270845 279.84466404 C427.84617428 303.79130722 425.70660787 327.73767865 423.56568971 351.68393026 C422.80901597 360.1481806 422.05326249 368.61251283 421.29780579 377.07687187 C420.37820263 387.37973885 419.45687206 397.68244971 418.53336632 407.98496764 C418.06222657 413.24132191 417.59181647 418.49773873 417.12338829 423.7543354 C416.69482973 428.56324001 416.26415012 433.3719497 415.83175582 438.18051089 C415.67551696 439.92216785 415.52005643 441.66389483 415.36544257 443.4056968 C415.15552473 445.76918755 414.94278642 448.13240805 414.72933197 450.49558163 C414.61178102 451.80942205 414.49423007 453.12326248 414.37311697 454.47691625 C414.03362307 457.68252076 413.56949026 460.82809899 413 464 C401.79444046 467.58437246 390.5308616 470.86118858 379.18359375 473.96484375 C377.47039222 474.43584188 375.7572699 474.90712819 374.04421997 475.37867737 C369.45948647 476.64006447 364.87389792 477.89831313 360.28807449 479.1557312 C351.5321484 481.55704008 342.77765033 483.96354772 334.0234375 486.37109375 C333.03337519 486.64326595 332.04331287 486.91543816 331.02324867 487.195858 C317.26190777 490.98024267 303.51374471 494.80900079 289.77737999 498.68304634 C287.00559455 499.4644715 284.23343692 500.24456091 281.46113586 501.02415466 C280.5641759 501.27641973 279.66721594 501.52868479 278.74307537 501.78859425 C276.96007081 502.29005237 275.17705662 502.79147629 273.39403248 503.2928648 C268.21734053 504.74957653 263.04335073 506.21545951 257.87106323 507.68772793 C254.66713691 508.5974198 251.46086172 509.4986008 248.25390244 510.39753532 C246.77754167 510.81335447 245.30219853 511.23280741 243.82800674 511.65625191 C241.81442457 512.23424148 239.79760419 512.79921789 237.77954102 513.36132812 C236.65628922 513.67976685 235.53303741 513.99820557 234.37574768 514.32629395 C227.60928811 515.6766925 222.18961893 515.05294287 215.59716797 513.20947266 C214.89654141 513.01660958 214.19591486 512.82374651 213.4740572 512.6250391 C211.14396902 511.98102098 208.8182393 511.32249658 206.4921875 510.6640625 C204.80904113 510.19607303 203.12562781 509.72904277 201.44197083 509.26289368 C196.87021682 507.99429183 192.30208966 506.71308705 187.73476791 505.42863083 C179.94913834 503.24077079 172.15902587 501.06886132 164.36979485 498.89386559 C162.32872892 498.32361665 160.28781261 497.75283192 158.2470417 497.18152809 C143.09353733 492.93969422 127.9132415 488.80913027 112.70980835 484.75008392 C106.19656278 483.00785744 99.68768297 481.24938299 93.17885208 479.49074554 C87.91167942 478.06918123 82.6419666 476.65891249 77.36541748 475.27252197 C72.3927852 473.96573784 67.42837854 472.63141453 62.46881676 471.27589989 C60.63913073 470.78137949 58.80657012 470.2973612 56.97117043 469.82448769 C54.46420067 469.17718572 51.96991368 468.49384288 49.4753418 467.80053711 C48.74005186 467.62023767 48.00476192 467.43993824 47.24719048 467.25417519 C45.22367859 466.66734314 45.22367859 466.66734314 42 465 C40.20938508 460.13937248 39.5614071 455.28187497 39.12920952 450.15160561 C39.02444556 449.00641512 39.02444556 449.00641512 38.91756517 447.83808947 C38.68555201 445.28359791 38.46326571 442.72835536 38.24093628 440.17300415 C38.07479822 438.3212895 37.90806284 436.46962836 37.7407819 434.6180166 C37.28308962 429.53243564 36.83392274 424.44613224 36.38614917 419.35966969 C35.90166144 413.87310406 35.4093067 408.38724378 34.91793823 402.90129089 C33.95665209 392.15472646 33.00267967 381.40752472 32.05119739 370.66008832 C30.94303863 358.14578859 29.8278397 345.63211929 28.71238817 333.11846785 C26.66221523 310.11567032 24.61933233 287.11222993 22.57979875 264.10848725 C20.71841493 243.11450136 18.85165975 222.12100018 16.97998047 201.12792969 C16.85982444 199.78021927 16.7396685 198.43250884 16.61951266 197.08479841 C16.56010943 196.41851259 16.50070621 195.75222677 16.43950288 195.06575046 C16.14046894 191.7116641 15.84144522 188.35757682 15.54243279 185.00348854 C15.48344003 184.34176063 15.42444728 183.68003272 15.36366687 182.99825246 C13.46376566 161.68595498 11.56979402 140.37313029 9.67614736 119.06027634 C8.90094118 110.33693151 8.12409879 101.61373327 7.34670639 92.89058304 C6.39931814 82.25890044 5.4548915 71.62695945 4.51418196 60.99468376 C4.03413418 55.5696778 3.55283395 50.14479092 3.06809998 44.72020149 C2.62434926 39.75377407 2.18427875 34.78703473 1.74713744 29.82002132 C1.58841719 28.02386288 1.42836313 26.22782171 1.26683544 24.43191357 C1.04725566 21.9882761 0.83258658 19.54425366 0.6191082 17.10007668 C0.55550608 16.40536963 0.49190395 15.71066258 0.4263745 14.9949038 C-0.00749144 9.94010588 0 5.12430482 0 0 Z " fill="#E44D26" transform="translate(0,0)"/>
<path d="M0 0 C93.72 0 187.44 0 284 0 C282.4989107 19.01379785 280.99664864 38.03183794 279 57 C207.39 57 135.78 57 62 57 C63.32 69.87 64.64 82.74 66 96 C66.33 102.27 66.66 108.54 67 115 C135.31 115 203.62 115 274 115 C273.67 118.3 273.34 121.6 273 125 C272.80638211 127.07377506 272.61618933 129.14787559 272.4309082 131.22241211 C272.32999878 132.34930954 272.22908936 133.47620697 272.12512207 134.63725281 C271.96457336 136.43909782 271.96457336 136.43909782 271.80078125 138.27734375 C271.62349465 140.25975203 271.44620799 142.2421603 271.26891899 144.22456837 C271.08009537 146.3370728 270.89152943 148.4496001 270.70303345 150.56213379 C270.30683575 155.00209388 269.90969948 159.44196974 269.51245117 163.88183594 C268.33175308 177.08042899 267.15289912 190.27918566 265.97726154 203.47823048 C265.44729782 209.42798672 264.9165957 215.37767684 264.38543987 221.32732677 C264.07242765 224.83411577 263.75984461 228.34094174 263.44839478 231.84786987 C261.72584143 251.2415044 259.90286087 270.62335763 258 290 C257.03690414 290.26204727 257.03690414 290.26204727 256.05435181 290.52938843 C244.08923061 293.78527889 232.13036268 297.06148246 220.18554688 300.39111328 C216.45766498 301.42968985 212.72877416 302.46463242 209 303.5 C207.49999534 303.91664988 205.99999533 304.33331654 204.5 304.75 C201.5 305.58333333 198.5 306.41666667 195.5 307.25 C194.3867334 307.55925415 194.3867334 307.55925415 193.25097656 307.87475586 C191.74774 308.29230346 190.24448472 308.7097837 188.74121094 309.12719727 C184.3109776 310.35744488 179.88099552 311.58856006 175.45288086 312.82641602 C173.98122591 313.23465633 172.50805541 313.63747119 171.03344727 314.03491211 C166.83560729 315.17253444 162.70140516 316.41551855 158.57421875 317.7890625 C146.95481035 321.5307688 138.82291958 322.76374743 127.22949219 318.75146484 C123.94084334 317.64300436 120.60044725 316.7411879 117.25708008 315.8137207 C114.5575922 315.06113176 111.86620405 314.28432914 109.17578125 313.5 C104.54317593 312.15270604 99.90046653 310.84661173 95.25 309.5625 C86.91380438 307.25678386 78.58479947 304.92584147 70.25683594 302.59057617 C64.74157114 301.04483511 59.22435421 299.50680633 53.70288086 297.98339844 C46.93552322 296.11436871 40.17932515 294.209272 33.4375 292.25 C32.70402344 292.03907715 31.97054687 291.8281543 31.21484375 291.61083984 C26.11703476 290.11703476 26.11703476 290.11703476 25 289 C24.6957125 286.55877152 24.45142342 284.1356317 24.24389648 281.68554688 C24.17547546 280.91957184 24.10705444 280.1535968 24.03656006 279.3644104 C23.81019943 276.81623466 23.59048314 274.26753473 23.37109375 271.71875 C23.21586429 269.94809528 23.06034793 268.17746569 22.90455627 266.40686035 C22.57807299 262.68457323 22.25481708 258.9620235 21.93383789 255.23925781 C21.5237471 250.48548211 21.10620604 245.73239752 20.68624783 240.97948456 C20.36335788 237.31641437 20.0442784 233.65301981 19.72633553 229.98951721 C19.57395491 228.23847254 19.4204617 226.4875243 19.2658062 224.73667908 C19.04895227 222.27463616 18.83719529 219.81220382 18.62670898 217.34960938 C18.56282486 216.63547882 18.49894073 215.92134827 18.43312073 215.18557739 C18.00335188 210.06865381 18 205.18171974 18 200 C36.81 200 55.62 200 75 200 C75.495 205.3625 75.99 210.725 76.5 216.25 C76.65662109 217.91579102 76.81324219 219.58158203 76.97460938 221.29785156 C77.73010958 229.55349184 78.21875018 237.69964581 78 246 C78.5674292 246.10666992 79.1348584 246.21333984 79.71948242 246.32324219 C86.97935109 247.72758412 94.14150619 249.45045568 101.3125 251.25 C102.53493408 251.55429932 103.75736816 251.85859863 105.0168457 252.17211914 C113.46758107 254.29817702 121.85488287 256.59011156 130.16333008 259.22167969 C139.0212998 261.90697335 146.40180324 261.26415624 155.25 258.875 C156.53438965 258.54157593 156.53438965 258.54157593 157.84472656 258.20141602 C165.05589159 256.3081903 172.22069218 254.2504403 179.38110352 252.17480469 C200.74536419 246 200.74536419 246 205 246 C205.33 240.72 205.66 235.44 206 230 C208.475 201.29 208.475 201.29 211 172 C146.32 172 81.64 172 15 172 C11.55151206 139.81411253 11.55151206 139.81411253 10.55786133 128.5715332 C10.4403804 127.26516907 10.32289948 125.95880493 10.20185852 124.612854 C9.88979951 121.14108327 9.58077204 117.66905016 9.27266908 114.19692636 C9.01254848 111.26856447 8.75091211 108.34033866 8.48933905 105.41210622 C7.87281196 98.50956212 7.25891283 91.60678793 6.64672852 84.70385742 C6.01841671 77.61966919 5.38525574 70.53592549 4.7498644 63.45236903 C4.19917112 57.310992 3.65156288 51.16934506 3.10638446 45.02747601 C2.78292701 41.38388559 2.45831871 37.74040757 2.13065529 34.09719276 C1.76727052 30.05517498 1.41032304 26.01261317 1.05395508 21.9699707 C0.94645935 20.78396774 0.83896362 19.59796478 0.72821045 18.37602234 C0.63157608 17.26820404 0.53494171 16.16038574 0.43537903 15.01899719 C0.35078336 14.06812383 0.26618769 13.11725046 0.17902851 12.13756275 C-0.05147705 8.09783936 0 4.04629434 0 0 Z " fill="#FEFEFE" transform="translate(85,95)"/>
<path d="M0 0 C61.05 0 122.1 0 185 0 C183.8439133 20.80956057 183.8439133 20.80956057 182.94587708 30.52656555 C182.88027399 31.24068415 182.81467091 31.95480274 182.74707985 32.69056129 C182.67915922 33.42931181 182.61123859 34.16806232 182.54125977 34.92919922 C182.39630163 36.53169823 182.25162681 38.1342229 182.10720825 39.73677063 C181.79907193 43.14968881 181.489041 46.56242725 181.17746162 49.97503281 C180.68197746 55.40265733 180.1912648 60.83070734 179.70115662 66.25881958 C178.74677888 76.82204578 177.78796274 87.38486657 176.82841492 97.94762421 C175.6105675 111.35453301 174.39402171 124.7615573 173.18300098 138.16908467 C172.77660551 142.66688045 172.36910891 147.16457033 171.95883369 151.66201401 C170.37311528 169.0459168 168.79873111 186.42270769 167.66200352 203.84292412 C167.1631578 211.35860834 166.41772387 218.82930366 165.5625 226.3125 C164.28528265 237.69563608 163.33893154 249.07743431 162.5 260.5 C161.59638958 272.79396221 160.5232776 285.03566189 159.125 297.28515625 C158.00643326 307.34060518 157.24215402 317.41142317 156.5 327.5 C155.42001306 342.15802605 154.05959228 356.74781404 152.39794922 371.35302734 C151.53853686 379.22904075 150.77741015 387.11554061 150 395 C128.98274785 401.03394498 107.9605251 407.04490024 86.88409424 412.8692627 C77.1155038 415.56889724 67.36326 418.31737453 57.625 421.125 C46.61040382 424.29761307 35.55573715 427.29475191 24.47119141 430.21142578 C16.27788948 432.37066322 8.15150825 434.67099764 0 437 C0 417.2 0 397.4 0 377 C8.91 374.69 17.82 372.38 27 370 C31.29 368.68 35.58 367.36 40 366 C43.82967138 364.9760237 47.65754978 363.97183621 51.5 363 C57.54082713 361.45007643 63.55673426 359.89678694 69.5 358 C76.43421249 355.78695346 83.48003161 354.02986373 90.52856445 352.22412109 C96.95351671 350.5674024 103.2773187 348.7601889 109.57421875 346.6640625 C112 346 112 346 116 346 C115.97655518 344.78127197 115.95311035 343.56254395 115.92895508 342.30688477 C115.93289445 336.19662007 116.54042917 330.16628752 117.13671875 324.08984375 C117.3202456 322.16322121 117.50376944 320.23659838 117.68717384 318.30996418 C117.88280474 316.26276681 118.0804467 314.21577249 118.27865601 312.16882324 C118.90589512 305.68784165 119.51923036 299.20553588 120.13392067 292.72335434 C120.34463427 290.50239843 120.55580814 288.28148659 120.76701355 286.06057739 C122.12206802 271.79468685 123.41612034 257.52359572 124.6875 243.25 C124.8421875 241.51975082 124.8421875 241.51975082 125 239.75454712 C126.00878266 228.46190755 126.99961146 217.16853018 127.90625 205.8671875 C127.97471634 205.01922607 128.04318268 204.17126465 128.11372375 203.29760742 C128.42179919 199.47405917 128.72399947 195.65027465 129.01245117 191.82519531 C129.11533447 190.52420898 129.21821777 189.22322266 129.32421875 187.8828125 C129.40760498 186.78340332 129.49099121 185.68399414 129.5769043 184.55126953 C130.1197636 179.99475975 131.10007527 175.49962366 132 171 C63.69 171 -4.62 171 -75 171 C-80 121 -80 121 -80 113 C-8.39 113 63.22 113 137 113 C137.33 106.73 137.66 100.46 138 94 C138.41347479 88.58887341 138.83102426 83.18343633 139.30224609 77.77783203 C139.50479711 75.44474441 139.69985028 73.11109998 139.89453125 70.77734375 C140.02299886 69.27860817 140.1518879 67.77990864 140.28125 66.28125 C140.338573 65.59075562 140.395896 64.90026123 140.45495605 64.18884277 C140.71366726 61.27544986 141.07034997 58.7889501 142 56 C95.14 56 48.28 56 0 56 C0 37.52 0 19.04 0 0 Z " fill="#F06529" transform="translate(227,39)"/>
<path d="M0 0 C93.72 0 187.44 0 284 0 C282.4989107 19.01379785 280.99664864 38.03183794 279 57 C207.39 57 135.78 57 62 57 C63.32 69.87 64.64 82.74 66 96 C66.33 102.27 66.66 108.54 67 115 C135.31 115 203.62 115 274 115 C274 116.65 274 118.3 274 120 C273.67 118.68 273.34 117.36 273 116 C229.77 116 186.54 116 142 116 C142 134.48 142 152.96 142 172 C100.09 172 58.18 172 15 172 C11.55151206 139.81411253 11.55151206 139.81411253 10.55786133 128.5715332 C10.4403804 127.26516907 10.32289948 125.95880493 10.20185852 124.612854 C9.88979951 121.14108327 9.58077204 117.66905016 9.27266908 114.19692636 C9.01254848 111.26856447 8.75091211 108.34033866 8.48933905 105.41210622 C7.87281196 98.50956212 7.25891283 91.60678793 6.64672852 84.70385742 C6.01841671 77.61966919 5.38525574 70.53592549 4.7498644 63.45236903 C4.19917112 57.310992 3.65156288 51.16934506 3.10638446 45.02747601 C2.78292701 41.38388559 2.45831871 37.74040757 2.13065529 34.09719276 C1.76727052 30.05517498 1.41032304 26.01261317 1.05395508 21.9699707 C0.94645935 20.78396774 0.83896362 19.59796478 0.72821045 18.37602234 C0.63157608 17.26820404 0.53494171 16.16038574 0.43537903 15.01899719 C0.35078336 14.06812383 0.26618769 13.11725046 0.17902851 12.13756275 C-0.05147705 8.09783936 0 4.04629434 0 0 Z " fill="#EBE9E9" transform="translate(85,95)"/>
<path d="M0 0 C18.81 0 37.62 0 57 0 C57.495 5.3625 57.99 10.725 58.5 16.25 C58.65662109 17.91579102 58.81324219 19.58158203 58.97460938 21.29785156 C59.73010958 29.55349184 60.21875018 37.69964581 60 46 C60.5674292 46.10666992 61.1348584 46.21333984 61.71948242 46.32324219 C68.97929961 47.72757416 76.1417417 49.4496483 83.3125 51.25 C85.14288818 51.70753662 85.14288818 51.70753662 87.01025391 52.17431641 C95.53352339 54.32546441 104.00100986 56.62848117 112.42700195 59.13378906 C113.21163818 59.36549805 113.99627441 59.59720703 114.8046875 59.8359375 C115.80991455 60.13830322 115.80991455 60.13830322 116.83544922 60.44677734 C119.51949791 61.1327749 122.26736658 61.5445611 125 62 C124.67 81.8 124.34 101.6 124 122 C104.56312294 117.42661716 104.56312294 117.42661716 96.5625 115.0625 C94.76708902 114.54110871 92.97151328 114.02028446 91.17578125 113.5 C90.30260254 113.24605469 89.42942383 112.99210937 88.52978516 112.73046875 C84.77740292 111.64697834 81.01475355 110.60204392 77.25 109.5625 C68.91380438 107.25678386 60.58479947 104.92584147 52.25683594 102.59057617 C46.74157114 101.04483511 41.22435421 99.50680633 35.70288086 97.98339844 C28.93552322 96.11436871 22.17932515 94.209272 15.4375 92.25 C14.33728516 91.93361572 14.33728516 91.93361572 13.21484375 91.61083984 C8.11703476 90.11703476 8.11703476 90.11703476 7 89 C6.6957125 86.55877152 6.45142342 84.1356317 6.24389648 81.68554688 C6.17547546 80.91957184 6.10705444 80.1535968 6.03656006 79.3644104 C5.81019943 76.81623466 5.59048314 74.26753473 5.37109375 71.71875 C5.21586429 69.94809528 5.06034793 68.17746569 4.90455627 66.40686035 C4.57807299 62.68457323 4.25481708 58.9620235 3.93383789 55.23925781 C3.5237471 50.48548211 3.10620604 45.73239752 2.68624783 40.97948456 C2.36335788 37.31641437 2.0442784 33.65301981 1.72633553 29.98951721 C1.57395491 28.23847254 1.4204617 26.4875243 1.2658062 24.73667908 C1.04895227 22.27463616 0.83719529 19.81220382 0.62670898 17.34960938 C0.56282486 16.63547882 0.49894073 15.92134827 0.43312073 15.18557739 C0.00335188 10.06865381 0 5.18171974 0 0 Z " fill="#EAE9E9" transform="translate(103,295)"/>
<path d="M0 0 C46.86 0 93.72 0 142 0 C140.48543597 18.67962307 138.96188956 37.36204916 137 56 C91.79 56 46.58 56 0 56 C0 37.52 0 19.04 0 0 Z " fill="#FEFEFE" transform="translate(227,96)"/>
<path d="M0 0 C22.77 0 45.54 0 69 0 C69 12.37615163 69 12.37615163 68.55688477 17.27832031 C68.41157066 18.92492645 68.41157066 18.92492645 68.26332092 20.60479736 C68.15708908 21.75099548 68.05085724 22.8971936 67.94140625 24.078125 C67.8327977 25.28893738 67.72418915 26.49974976 67.61228943 27.74725342 C67.38339071 30.28874149 67.15216065 32.83002057 66.91870117 35.37109375 C66.56230275 39.25214797 66.21315668 43.13380263 65.86523438 47.015625 C65.6410467 49.49482984 65.41645142 51.97399785 65.19140625 54.453125 C65.08719864 55.60742004 64.98299103 56.76171509 64.87562561 57.95098877 C64.38008787 63.32669392 63.83577038 68.66602999 63 74 C61.99066406 74.27972656 60.98132813 74.55945313 59.94140625 74.84765625 C58.48176336 75.25257723 57.02212871 75.65752791 55.5625 76.0625 C54.7698877 76.28220459 53.97727539 76.50190918 53.16064453 76.72827148 C48.37084608 78.05775405 43.58424962 79.39790852 38.80078125 80.75 C6.0434879 90 6.0434879 90 0 90 C0 60.3 0 30.6 0 0 Z " fill="#F16529" transform="translate(227,267)"/>
<path d="M0 0 C26.4 0 52.8 0 80 0 C80 18.81 80 37.62 80 57 C55.25 57 30.5 57 5 57 C3.7625 44.8415625 3.7625 44.8415625 2.5 32.4375 C2.23896484 29.89087646 1.97792969 27.34425293 1.70898438 24.72045898 C1.50362934 22.68736519 1.29853388 20.65424515 1.09375 18.62109375 C0.93181152 17.05542664 0.93181152 17.05542664 0.76660156 15.45812988 C0.66508789 14.44383911 0.56357422 13.42954834 0.45898438 12.38452148 C0.32574768 11.07547096 0.32574768 11.07547096 0.18981934 9.73997498 C-0.03460669 6.50046472 0 3.24727482 0 0 Z " fill="#E44D26" transform="translate(147,153)"/>
</svg>
