<?xml version="1.0" encoding="UTF-8"?>
<svg version="1.1" xmlns="http://www.w3.org/2000/svg" width="400" height="499">
<path d="M0 0 C4.91518628 2.10353311 6.67393993 5.32579702 9 10 C15.91166009 27.39434456 15.28805741 44.94261201 7.9375 62.0625 C-2.41072475 84.88259002 -20.67312529 103.55950771 -40 119 C-66.6428942 140.49321299 -66.6428942 140.49321299 -80 171 C-81.69914733 194.62093336 -69.82866639 211.19840037 -56.76293945 229.67407227 C-46.79269754 243.84919151 -46.79269754 243.84919151 -44 251 C-44.33 251.66 -44.66 252.32 -45 253 C-52.14252026 246.46720708 -59.22092222 239.91287537 -66 233 C-68.56264841 230.42040846 -71.1409569 227.86442617 -73.76171875 225.34375 C-89.43911922 210.19390311 -105.48874773 190.42897387 -106.25 167.75 C-106.04483975 152.58865742 -97.56181505 141.93100773 -87.44238281 131.48925781 C-86.0619158 130.06392796 -84.69848866 128.62215369 -83.3359375 127.1796875 C-76.97818145 120.59687814 -70.15205586 115.02858437 -62.91064453 109.48291016 C-59.47672435 106.81773878 -56.11608489 104.06249944 -52.75 101.3125 C-48.46707237 97.81386321 -44.17081431 94.34221231 -39.8125 90.9375 C-19.88970359 75.01270152 -2.28916593 56.0542018 2 30 C2.25515966 26.86795631 2.28602647 23.76605798 2.25 20.625 C2.24613281 19.80153076 2.24226563 18.97806152 2.23828125 18.12963867 C2.15071687 11.93993176 1.51462007 6.01791009 0 0 Z " fill="#F8981C" transform="translate(242,13)"/>
<path d="M0 0 C0.87527344 -0.01611328 1.75054687 -0.03222656 2.65234375 -0.04882812 C8.99808307 -0.0536722 8.99808307 -0.0536722 12.2265625 1.83203125 C12.91878906 2.56486328 12.91878906 2.56486328 13.625 3.3125 C11.98917969 3.53292969 11.98917969 3.53292969 10.3203125 3.7578125 C1.96652591 4.96803217 -6.04494283 6.57523654 -14.0625 9.25 C-14.79130371 9.49057129 -15.52010742 9.73114258 -16.27099609 9.97900391 C-20.98631272 11.61897209 -25.16690739 13.61347916 -29.375 16.3125 C-30.41025132 18.42591126 -30.41025132 18.42591126 -30.375 20.3125 C-4.97731532 42.38353581 56.79203171 35.59472408 88.52100754 35.62257385 C90.82668673 35.62495021 93.1323455 35.63025917 95.4380188 35.63586426 C123.94970449 35.68654113 152.47083194 34.71948703 180.8125 31.4375 C181.56742737 31.35290527 182.32235474 31.26831055 183.10015869 31.18115234 C218.78250109 29.1641309 218.78250109 29.1641309 249.40625 14.3515625 C250.924637 12.25866824 250.924637 12.25866824 250.375 9.1875 C249.75238928 6.39481308 249.75238928 6.39481308 248.625 4.3125 C252.44157129 4.53058979 253.64498181 5.33117865 256.5 8 C258.625 11.3125 258.625 11.3125 258.75 14.375 C256.0157396 21.5144577 249.05169793 24.86153137 242.625 28.3125 C239.06380009 29.86492886 235.44547581 31.11910093 231.75 32.3125 C230.7189917 32.64862305 229.6879834 32.98474609 228.62573242 33.33105469 C184.19925734 47.33422112 136.01735636 49.94174541 89.70642471 49.69922256 C87.25979735 49.68724193 84.81319571 49.68031552 82.36654663 49.67440796 C58.012408 49.60633994 33.84411185 49.0636123 9.625 46.3125 C7.90221001 46.12278318 6.17938976 45.93334096 4.45654297 45.74414062 C-11.1957867 44.00597108 -26.90030715 42.21954123 -42.375 39.25 C-43.47569824 39.04322632 -43.47569824 39.04322632 -44.59863281 38.83227539 C-50.76772425 37.52338744 -57.20230734 35.24649044 -61.375 30.3125 C-62.22515415 26.15619082 -61.51855127 24.54049319 -59.25 20.9375 C-45.36884079 6.3831206 -19.46489515 -0.07361912 0 0 Z " fill="#5282A1" transform="translate(88.375,401.6875)"/>
<path d="M0 0 C-0.67353516 0.39678955 -1.34707031 0.7935791 -2.04101562 1.20239258 C-20.55012396 12.13342784 -38.27945601 23.44870944 -55 37 C-56.06154297 37.82757813 -56.06154297 37.82757813 -57.14453125 38.671875 C-66.13841493 45.89946549 -74.27272994 56.36365436 -76 68 C-76.6322622 80.68476035 -68.76455338 91.12683009 -61.78051758 101.03735352 C-54.1936282 111.82655874 -49.3477553 120.30997246 -51 134 C-55.33314771 151.04046853 -69.55079126 163.2130631 -84 172 C-85.64725244 172.71328929 -87.30832222 173.39962637 -89 174 C-88.43732422 173.27296875 -88.43732422 173.27296875 -87.86328125 172.53125 C-79.71210788 161.85465013 -74.21002653 152.98713783 -76 139 C-78.39308652 131.9570016 -82.16675445 126.43207141 -87.20703125 121.046875 C-98.03049923 108.69067191 -104.60357923 92.3290413 -103.859375 75.89453125 C-102.16917261 60.81131212 -94.47829597 50.23020261 -84 40 C-83.21882813 39.20980469 -82.43765625 38.41960937 -81.6328125 37.60546875 C-63.26534277 19.94919734 -36.44171453 9.1834768 -12.5625 1.4375 C-11.76352295 1.17372559 -10.9645459 0.90995117 -10.14135742 0.63818359 C-6.33873668 -0.54605764 -3.80488972 -1.20874882 0 0 Z " fill="#F8981C" transform="translate(301,108)"/>
<path d="M0 0 C0.77472656 0.00451172 1.54945313 0.00902344 2.34765625 0.01367188 C4.23180524 0.02530242 6.11591365 0.04323094 8 0.0625 C5.14543397 1.96554402 3.2760901 2.6692146 0.01953125 3.54296875 C-0.97280518 3.81657227 -1.9651416 4.09017578 -2.98754883 4.37207031 C-4.04353271 4.66178711 -5.0995166 4.95150391 -6.1875 5.25 C-13.74323512 7.38660941 -21.11972874 9.64542516 -28.3125 12.8125 C-29.27869263 13.23438599 -29.27869263 13.23438599 -30.2644043 13.66479492 C-33.32873766 15.07069448 -35.91950858 16.36425175 -38 19.0625 C-38.495 20.5475 -38.495 20.5475 -39 22.0625 C-36.52264586 22.71603514 -34.04345526 23.36039601 -31.5625 24 C-30.87478516 24.18240234 -30.18707031 24.36480469 -29.47851562 24.55273438 C23.99558454 38.23215535 90.8681107 26.11141122 144.53244019 18.01394653 C149.34762052 17.29034683 154.16610478 16.6489036 159 16.0625 C155.77011966 19.53720005 152.03686676 21.38076016 147.875 23.5625 C147.153125 23.95308594 146.43125 24.34367187 145.6875 24.74609375 C136.65439093 29.51981865 127.57971341 31.74771907 117.5625 33.5625 C115.78685669 33.88504761 115.78685669 33.88504761 113.9753418 34.21411133 C101.69942356 36.38054569 89.41290405 37.94002821 77 39.0625 C75.29336182 39.21912109 75.29336182 39.21912109 73.55224609 39.37890625 C38.4363117 42.43962485 2.05887451 42.99706021 -33 39.0625 C-33.92780273 38.96066406 -34.85560547 38.85882813 -35.81152344 38.75390625 C-65.38448696 35.34285599 -65.38448696 35.34285599 -73 28.0625 C-73.5625 25.125 -73.5625 25.125 -73 22.0625 C-56.04038278 6.19806101 -22.55127228 -0.2540438 0 0 Z " fill="#5282A1" transform="translate(137,265.9375)"/>
<path d="M0 0 C0 2 0 2 -2 4.125 C-2.66 4.74375 -3.32 5.3625 -4 6 C-3.04449313 8.51014238 -2.50758516 9.74364386 -0.06640625 10.9765625 C15.73200947 15.06788389 32.20717105 15.40358735 48.4375 15.375 C49.34299591 15.37611786 50.24849182 15.37723572 51.181427 15.37838745 C65.1437953 15.36995672 78.51070626 14.39039387 92.27734375 11.97265625 C94.18429701 11.64493377 96.09183863 11.32061337 98 11 C98.95052246 10.8345166 99.90104492 10.6690332 100.88037109 10.49853516 C107.80619527 9.53545199 111.84744283 10.60658291 117.75 14.25 C119.16003998 15.07015169 120.57148394 15.88789472 121.984375 16.703125 C122.65146484 17.09564453 123.31855469 17.48816406 124.00585938 17.89257812 C126.91653442 19.5089863 129.91379344 20.75582249 133 22 C133 22.66 133 23.32 133 24 C107.12653158 33.13112464 107.12653158 33.13112464 95.375 35.4375 C94.66956055 35.57639648 93.96412109 35.71529297 93.23730469 35.85839844 C79.30287459 38.36950545 65.4496969 39.38337549 51.3125 39.3125 C50.53140869 39.31034485 49.75031738 39.3081897 48.94555664 39.30596924 C25.95972481 39.20470233 -3.96352137 38.32045584 -21.625 21.5 C-23.39789053 18.27656267 -23.66665427 16.62956216 -23 13 C-18.65933399 5.91024552 -8.44816929 0 0 0 Z " fill="#5282A1" transform="translate(137,368)"/>
<path d="M0 0 C-0.825 0.886875 -1.65 1.77375 -2.5 2.6875 C-4.28123831 4.84534299 -4.97734911 5.90260117 -5.625 8.6875 C-5.18706372 11.1387827 -5.18706372 11.1387827 -3.125 12.6875 C31.28049671 27.13780862 85.18493178 18.67708362 120.41821289 12.27050781 C132.39009206 10.10168146 132.39009206 10.10168146 136.4921875 12.390625 C137.27851563 13.00421875 138.06484375 13.6178125 138.875 14.25 C143.10350669 17.40856636 147.21626405 19.78530743 152 22 C151 24 151 24 148.95654297 24.71435547 C148.06080566 24.92979004 147.16506836 25.14522461 146.2421875 25.3671875 C145.23647705 25.61106201 144.2307666 25.85493652 143.19458008 26.10620117 C141.55138794 26.48675659 141.55138794 26.48675659 139.875 26.875 C138.74280029 27.13966064 137.61060059 27.40432129 136.4440918 27.67700195 C91.58864443 37.96621066 22.44911334 49.15640956 -20.171875 25.3125 C-23.07022797 23.2316312 -24.59967341 21.26742871 -26 18 C-26.20406718 14.73492509 -25.83319491 12.99225939 -23.7109375 10.46484375 C-19.10888442 6.20085618 -13.69446375 3.52680385 -8 1 C-7.13632813 0.60296875 -6.27265625 0.2059375 -5.3828125 -0.203125 C-3 -1 -3 -1 0 0 Z " fill="#5282A1" transform="translate(126,319)"/>
<path d="M0 0 C1.14451879 3.44881663 0.98134319 4.0508822 -0.375 7.75 C-7.47910064 20.68618326 -23.09334187 26.56185795 -36.484375 30.75 C-52.08447862 35.18266006 -67.91982051 38.23398269 -84 40.25 C-85.19423584 40.40090088 -86.38847168 40.55180176 -87.61889648 40.70727539 C-91.74211452 41.19102924 -95.86703205 41.6098991 -100 42 C-100.89961456 42.08720306 -101.79922913 42.17440613 -102.72610474 42.26425171 C-121.8104731 44.05831295 -140.80575821 44.34459716 -159.95727539 44.31567383 C-163.26145108 44.311062 -166.56525684 44.31791367 -169.86938477 44.33618164 C-187.86833385 44.4346416 -205.72981225 44.12695101 -223.671875 42.59765625 C-224.41455564 42.5344903 -225.15723629 42.47132435 -225.92242241 42.40624428 C-243.09272223 40.91076292 -261.05289177 39.02916015 -277 32 C-277.33 31.34 -277.66 30.68 -278 30 C-268.0217586 30.77990852 -258.0781497 31.81052522 -248.12890625 32.89453125 C-233.60330494 34.435833 -219.18376564 35.16152922 -204.5859375 35.203125 C-203.05291719 35.21014688 -201.51989717 35.2172337 -199.98687744 35.22438049 C-195.11624733 35.24377619 -190.24566483 35.24881428 -185.375 35.25 C-184.13081928 35.25066278 -184.13081928 35.25066278 -182.8615036 35.25133896 C-158.85406413 35.25804784 -134.95740917 35.18236664 -111.09301758 32.25646973 C-108.8772865 31.98496319 -106.6604297 31.72419702 -104.44335938 31.46386719 C-47.92307632 26.24259695 -47.92307632 26.24259695 0 0 Z " fill="#5282A1" transform="translate(366,429)"/>
<path d="M0 0 C6.68810429 6.36448634 9.93586088 14.07515252 10.3125 23.34375 C9.77290786 35.64645089 3.24948069 46.50115063 -5.58984375 54.8125 C-20.04821022 66.68983107 -44.84648228 81.84375 -64.0625 81.84375 C-62.72520248 78.66422283 -61.5931992 77.22900212 -58.5703125 75.58203125 C-57.87107666 75.19007568 -57.17184082 74.79812012 -56.45141602 74.39428711 C-55.33077759 73.78145874 -55.33077759 73.78145874 -54.1875 73.15625 C-46.66325991 68.88235497 -39.78374735 64.32355484 -33.0625 58.84375 C-32.17949219 58.12574219 -31.29648437 57.40773438 -30.38671875 56.66796875 C-20.64153313 48.34241563 -12.76230615 38.4498321 -10.6875 25.50390625 C-10.3019279 18.64795237 -12.36937102 12.09536195 -16.7578125 6.796875 C-22.93900104 0.94101217 -30.02081159 -2.32644224 -38.5625 -2.53125 C-43.85424425 -2.33497989 -48.92523844 -1.40434825 -54.0625 -0.15625 C-50.01476447 -6.2278533 -46.07836259 -7.65285087 -39.0625 -9.15625 C-37.99 -9.40375 -36.9175 -9.65125 -35.8125 -9.90625 C-22.41959992 -10.79911001 -10.43610685 -8.7961472 0 0 Z " fill="#5282A1" transform="translate(357.0625,271.15625)"/>
</svg>
