<svg width="54" height="80" viewBox="0 0 54 80" fill="none" xmlns="http://www.w3.org/2000/svg">
<path d="M35.5 0.5C36.1433 0.500029 36.7658 0.654426 37.3174 1C37.8639 1.34257 38.2564 1.82006 38.5312 2.33789C39.057 3.32849 39.2141 4.58056 39.2158 5.82617C39.2192 8.35516 38.5703 11.6674 37.7295 14.9932C36.8807 18.3502 35.8003 21.855 34.8789 24.8066C33.9385 27.8192 33.2006 30.1448 32.9707 31.2939C32.4949 33.6731 32.2648 36.8259 32.1572 39.4365C32.1373 39.9194 32.1216 40.3812 32.1094 40.8125C32.4352 39.7826 32.7811 38.7271 33.1436 37.668C34.5567 33.5388 36.2734 29.2376 38.2217 26.1348C39.1909 24.5912 40.2881 23.2285 41.5293 22.3535C42.7359 21.503 44.1684 21.064 45.6934 21.4893L45.999 21.5859L46.1758 21.6475L46.332 21.752L46.6152 21.9541C47.2537 22.4426 47.7367 23.0475 48.0352 23.7568C48.3726 24.5591 48.4358 25.404 48.3311 26.2158C48.127 27.7959 47.2687 29.4011 46.2031 30.833C44.3031 33.3861 41.3784 35.8672 38.6553 37.3457C39.0488 39.5608 39.6981 41.9093 40.5293 44.0293C41.5068 46.5223 42.6782 48.5537 43.8633 49.7178C44.4484 50.2924 44.9555 50.5744 45.3604 50.6709C45.7177 50.7559 46.0978 50.7233 46.5645 50.4434C47.6413 49.797 49.0938 47.8752 50.5801 43.5156C50.8474 42.7319 51.6996 42.3133 52.4834 42.5801C53.2675 42.8474 53.6872 43.7003 53.4199 44.4844C51.9064 48.924 50.1711 51.7774 48.1074 53.0156C47.0041 53.6775 45.825 53.865 44.665 53.5889C43.5525 53.3239 42.5816 52.6637 41.7607 51.8574C40.1336 50.259 38.7743 47.7711 37.7363 45.124C36.959 43.1415 36.3295 40.9868 35.8965 38.8906C34.5439 42.8711 33.4435 46.7774 32.667 49.4648C32.2804 50.8028 31.9545 51.9097 31.7187 52.5273C31.6597 52.6821 31.5852 52.8626 31.4971 53.0244C31.4554 53.1009 31.3799 53.2314 31.2666 53.3643C31.2041 53.4375 30.8812 53.8217 30.2979 53.9072C29.4654 54.029 28.9534 53.4863 28.7725 53.1963C28.6151 52.9441 28.5653 52.7011 28.5479 52.6113C28.5057 52.3936 28.5 52.1661 28.5 52C28.5 50.6037 28.5465 48.408 28.6123 45.9551C26.4537 46.5568 24.2184 47.5582 22 48.8594V53.0771L21.9922 53.1543C21.4839 58.0676 20.1097 65.2706 17.5918 70.8428C16.3384 73.6166 14.7321 76.145 12.6699 77.7373C10.5856 79.3466 8.06528 79.9643 5.24707 79.0029L4.97265 78.9043C3.15665 78.2231 1.8432 77.0698 1.10351 75.5156C0.380989 73.9973 0.279027 72.2526 0.561522 70.4824C1.12164 66.9731 3.25634 62.9262 6.17773 59.0908C9.12264 55.2246 12.9753 51.4316 17.1572 48.4365C17.7627 48.0029 18.3784 47.586 19 47.1855V26C19 25.1717 19.6717 24.5002 20.5 24.5C21.3283 24.5001 22 25.1717 22 26V45.4258C24.2077 44.2627 26.4664 43.362 28.7012 42.835C28.7322 41.8054 28.7647 40.7704 28.7969 39.7646C28.8698 37.4876 28.9418 35.3357 28.9932 33.7412C29.019 32.9407 29.0396 32.2773 29.0527 31.7998C29.0675 31.2607 29.0683 31.0714 29.0703 31.1006L29.0674 31.0508V31C29.0674 23.8768 28.6994 16.4571 29.1387 10.9434C29.3584 8.18571 29.789 5.68843 30.6768 3.8418C31.1287 2.90174 31.7337 2.05812 32.5566 1.44727C33.4004 0.821039 34.3946 0.500054 35.5 0.5ZM18.9033 50.876C14.9698 53.6933 11.3321 57.2756 8.56445 60.9092C5.77331 64.5736 3.97181 68.152 3.52441 70.9551C3.30322 72.341 3.43092 73.4247 3.8125 74.2266C4.17696 74.9922 4.84307 75.6519 6.02637 76.0957L6.37305 76.2148C8.08837 76.7506 9.51913 76.379 10.8359 75.3623C12.3298 74.2089 13.6859 72.1999 14.8574 69.6074C17.1782 64.4714 18.5026 57.6654 19 52.915V50.8076C18.9681 50.8304 18.9352 50.8531 18.9033 50.876ZM44.8252 24.3643C44.3851 24.263 43.8947 24.3567 43.2578 24.8057C42.4894 25.3474 41.6448 26.3256 40.7627 27.7305C39.5993 29.5832 38.4926 31.9776 37.4707 34.5723C39.7262 33.2953 42.2035 31.183 43.7969 29.042C44.7311 27.7866 45.2469 26.6727 45.3555 25.8311C45.4069 25.4323 45.3616 25.14 45.2695 24.9209C45.1957 24.7455 45.0657 24.5558 44.8252 24.3643ZM35.5 3.5C35.0059 3.50005 34.6455 3.63238 34.3447 3.85547C34.0232 4.09418 33.6912 4.49699 33.3809 5.14258C32.7439 6.46781 32.3424 8.50223 32.1289 11.1816C31.84 14.8084 31.9142 19.2218 31.9922 23.9814C31.9994 23.9584 32.0074 23.9352 32.0146 23.9121C32.9369 20.9577 33.9941 17.5245 34.8203 14.2568C35.6544 10.9578 36.2187 7.95725 36.2158 5.83008C36.2144 4.74764 36.0631 4.08557 35.8818 3.74414C35.8033 3.59622 35.7418 3.55338 35.7236 3.54199C35.7096 3.53323 35.6547 3.50003 35.5 3.5ZM20.5 13C21.8807 13 23 14.1193 23 15.5C23 16.8807 21.8807 18 20.5 18C19.1194 17.9999 18 16.8806 18 15.5C18 14.1194 19.1194 13.0001 20.5 13Z" fill="white"/>
</svg>
