<?xml version="1.0" encoding="UTF-8"?>
<svg version="1.1" xmlns="http://www.w3.org/2000/svg" width="1693" height="1712">
<path d="M0 0 C21.89838086 -0.07040837 43.79674277 -0.12314286 65.69521427 -0.15543652 C75.86545177 -0.17083656 86.0356185 -0.19179303 96.20581055 -0.22631836 C105.080984 -0.25643278 113.95610615 -0.27562471 122.83132929 -0.28226548 C127.52085286 -0.28614083 132.21022981 -0.295101 136.89970589 -0.31719017 C183.37561542 -0.52733821 227.4152725 5.0837508 265 35 C265.5455957 35.43280273 266.09119141 35.86560547 266.65332031 36.31152344 C279.16063057 46.34228368 290.10573983 57.40677998 299.69726562 70.25732422 C300.9351735 71.9132812 302.19300348 73.55233514 303.453125 75.19140625 C355.48937776 144.15675859 371.05226603 243.97317828 384.61376953 514.70019531 C374.59303198 585.97362802 351.98821107 658.10506393 318.95751953 722.13378906 C318.02863244 723.94419522 317.12082707 725.76398757 316.21484375 727.5859375 C294.78631409 769.95860594 260.94091853 805.5887801 215.34179688 820.98828125 C187.90130663 829.87169716 159.83511123 830.15699326 131.28509521 830.12025452 C128.73520657 830.12069143 126.18531798 830.12156854 123.63542962 830.12284368 C118.12607698 830.12460325 112.61673869 830.12330404 107.10738754 830.11920547 C98.91540207 830.11312832 90.72342335 830.11287355 82.53143604 830.11374746 C68.74598936 830.11505635 54.96054751 830.1117391 41.17510223 830.10573006 C27.53763556 830.09980084 13.9001709 830.09596165 0.26270294 830.09487724 C-1.01206025 830.09477413 -1.01206025 830.09477413 -2.31257624 830.09466894 C-6.62898464 830.09433058 -10.94539305 830.09402921 -15.26180145 830.09374207 C-45.78716587 830.09164501 -76.31252768 830.08491704 -106.83789062 830.07543945 C-136.48177069 830.06624622 -166.12565004 830.05916692 -195.76953125 830.05493164 C-196.68425106 830.05480011 -197.59897086 830.05466859 -198.54140945 830.05453308 C-207.7279046 830.05321449 -216.91439976 830.05193868 -226.10089493 830.05069422 C-244.81268568 830.04815841 -263.5244764 830.04533716 -282.23626709 830.04234314 C-283.09649149 830.04220585 -283.95671589 830.04206856 -284.84300769 830.04192711 C-342.22867295 830.03273578 -399.6143365 830.01666242 -457 830 C-457 846.5 -457 863 -457 880 C-322.69 880 -188.38 880 -50 880 C-50 1111.29742962 -50 1111.29742962 -106 1168 C-127.60222848 1189.36742165 -154.78164631 1204.95288933 -182 1218 C-182.77988281 1218.37737305 -183.55976562 1218.75474609 -184.36328125 1219.14355469 C-258.02656079 1254.55413119 -345.39765696 1271.35093812 -437.4375 1275.5625 C-439.20963867 1275.62727539 -439.20963867 1275.62727539 -441.01757812 1275.69335938 C-523.52202686 1278.51058445 -606.96248957 1264.05405875 -809.78955078 1166.3359375 C-818.3877614 1158.19979653 -826.06439511 1149.59218691 -833 1140 C-833.4223291 1139.41669922 -833.8446582 1138.83339844 -834.27978516 1138.23242188 C-859.67209194 1102.68514338 -867.19527726 1064.06691441 -867.12698364 1021.08143616 C-867.12813968 1019.46252023 -867.12973041 1017.84360456 -867.13171089 1016.22468942 C-867.13583806 1011.83261518 -867.13384385 1007.440563 -867.13072467 1003.04848874 C-867.12844349 998.28970456 -867.13196361 993.53092395 -867.13470459 988.7721405 C-867.13913248 979.47170953 -867.1381991 970.17128667 -867.13529195 960.8708554 C-867.13302603 953.30613455 -867.13273053 945.74141596 -867.13381577 938.17669487 C-867.133969 937.09667782 -867.13412223 936.01666077 -867.13428011 934.90391592 C-867.13459986 932.70930843 -867.13492407 930.51470094 -867.1352527 928.32009345 C-867.13809879 907.77965479 -867.13483421 887.2392206 -867.12945233 866.69878267 C-867.12498572 849.10753582 -867.12576074 831.51629556 -867.13037109 813.92504883 C-867.13573334 793.45554271 -867.13782352 772.98604051 -867.13475883 752.51653379 C-867.13444031 750.33006283 -867.13412594 748.14359186 -867.13381577 745.9571209 C-867.13366149 744.88157298 -867.13350721 743.80602506 -867.13334826 742.69788479 C-867.13248801 735.1504216 -867.13393538 727.60296092 -867.13629532 720.05549812 C-867.1391119 710.84590574 -867.13831608 701.63632188 -867.13301457 692.42673046 C-867.13040243 687.73575454 -867.1293299 683.04479277 -867.13266373 678.35381699 C-867.16328673 631.2623701 -867.16328673 631.2623701 -864.3125 615.1875 C-864.13734863 614.18525391 -863.96219727 613.18300781 -863.78173828 612.15039062 C-857.87443536 579.76961903 -845.09702772 549.16659985 -825 523 C-824.33484375 522.1234375 -823.6696875 521.246875 -822.984375 520.34375 C-788.68488333 476.28424037 -740.30185494 448.34193591 -685.03724575 440.72964513 C-676.51908606 439.72953636 -667.98195817 439.85601536 -659.42016602 439.86196899 C-657.63165188 439.85954805 -655.8431383 439.85668489 -654.05462551 439.85341966 C-649.15632594 439.84569659 -644.2580404 439.84404885 -639.35973549 439.84336853 C-634.06965335 439.84152325 -628.77957931 439.83391292 -623.48950195 439.82688904 C-614.3236603 439.81537728 -605.15782047 439.80712537 -595.99197388 439.80076981 C-581.48348793 439.79041996 -566.9750247 439.76984856 -552.46655273 439.74765015 C-547.49641426 439.74017066 -542.52627569 439.73275682 -537.55613708 439.72536278 C-535.69297898 439.72258693 -535.69297898 439.72258693 -533.79218131 439.719755 C-519.6596335 439.69883707 -505.52708318 439.68000642 -491.39453125 439.66210938 C-490.1030983 439.66047119 -488.81166534 439.65883301 -487.48109806 439.65714519 C-466.58655569 439.63090047 -445.69201156 439.6122341 -424.79745972 439.59551747 C-403.3109412 439.5780507 -381.82445702 439.54915499 -360.33796597 439.5106281 C-347.10619253 439.48732345 -333.87447512 439.47324215 -320.642681 439.47130047 C-311.55705213 439.46917884 -302.47147877 439.45614805 -293.38587487 439.43482114 C-288.15736396 439.42288443 -282.92896317 439.41557831 -277.70043945 439.42153358 C-211.44086522 439.48685427 -151.63902061 425.32828461 -99 383 C-98.20070068 382.35949707 -98.20070068 382.35949707 -97.38525391 381.70605469 C-81.83739157 369.12304612 -66.98819851 354.86864839 -55.21679688 338.65673828 C-53.9724368 336.96247114 -52.68736032 335.30678264 -51.390625 333.65234375 C-24.15787427 298.435277 -7.53606969 254.99165586 -2 211 C-1.91269654 210.3671364 -1.82539309 209.7342728 -1.73544407 209.08223152 C-0.62732626 199.8986479 -0.82308261 190.64829563 -0.79467773 181.41357422 C-0.78508664 179.4318268 -0.77507586 177.45008137 -0.76467896 175.46833801 C-0.73775719 170.11167582 -0.7166791 164.75500494 -0.69667697 159.39831305 C-0.67473846 153.79157795 -0.64738841 148.18486926 -0.62062073 142.57815552 C-0.57079982 131.97142083 -0.52582185 121.36467139 -0.48259836 110.75790799 C-0.43313513 98.67808192 -0.37825082 86.59828236 -0.32291877 74.51848197 C-0.20926157 49.67901274 -0.10238741 24.83951806 0 0 Z M-286 1011 C-299.8653008 1027.76833151 -306.06904351 1048.09352114 -304.78125 1069.6640625 C-302.23303964 1091.37285465 -292.0158584 1110.49196144 -274.9375 1124.125 C-263.22264386 1133.08058606 -248.78874382 1139.07570351 -234 1140 C-233.21625 1140.05285156 -232.4325 1140.10570312 -231.625 1140.16015625 C-212.27718504 1140.82235825 -192.96327783 1133.70514289 -178.25 1121.1875 C-162.73228632 1106.59412666 -153.29712894 1087.30997539 -152 1066 C-151.81424106 1042.78013241 -159.91562312 1022.44885244 -176.11328125 1005.83203125 C-191.26748298 991.50895576 -210.85113113 984.35371039 -231.58203125 984.75 C-253.026852 986.31853546 -271.29799839 995.39427715 -286 1011 Z " fill="#FFDE57" transform="translate(1303,436)"/>
<path d="M0 0 C3.27680959 0.00543902 6.55361196 0.00780714 9.83042526 0.00987244 C40.93912066 0.04042192 71.9198702 0.39153596 102.93153 3.08677673 C105.66147804 3.32302944 108.39215895 3.54847959 111.12318039 3.7719574 C179.91375479 9.45764279 253.16529542 16.04452771 312.60169601 54.31785583 C313.26572433 54.74534119 313.92975266 55.17282654 314.61390305 55.61326599 C332.8328602 67.48219319 350.67664892 81.52857586 364.60169601 98.31785583 C365.40736008 99.22406677 366.21302414 100.13027771 367.04310226 101.06394958 C398.19483199 136.2924509 415.18790059 181.92440383 414.98264694 228.79220581 C414.98611538 230.55579305 414.9908878 232.31937811 414.99682868 234.08295876 C415.00920577 238.86576158 415.00322982 243.64838191 414.99387002 248.43118489 C414.98702455 253.61398102 414.99758778 258.79674784 415.00580978 263.97953796 C415.01909145 274.10790075 415.01629424 284.23619653 415.00757186 294.36456185 C415.00077332 302.60284967 414.99988794 310.84111882 415.00314331 319.07940865 C415.00360301 320.25571492 415.00406271 321.43202119 415.00453634 322.6439731 C415.0054956 325.03426107 415.00646824 327.42454903 415.00745411 329.81483699 C415.0159918 352.18519616 415.00619957 374.55551834 414.99005301 396.92587144 C414.97665307 416.08332551 414.97897843 435.24072502 414.9928093 454.3981781 C415.00889685 476.69157195 415.01516614 498.98493345 415.0059725 521.27833229 C415.00501695 523.65971728 415.00407383 526.04110227 415.00314331 528.42248726 C415.00268048 529.59390763 415.00221766 530.76532801 415.00174081 531.97224597 C414.9991603 540.19156222 415.0035016 548.41085778 415.01058197 556.63017082 C415.01903261 566.65983722 415.01664244 576.68943327 415.00073974 586.71909171 C414.99290446 591.8275688 414.98968354 596.93592899 414.99968719 602.04440498 C415.07024944 641.31510995 415.07024944 641.31510995 411.60169601 658.31785583 C411.36477224 659.51579993 411.12784847 660.71374403 410.88374519 661.94798946 C410.30173595 664.76302262 409.63672746 667.53585713 408.91419601 670.31785583 C408.53182785 671.80720642 408.53182785 671.80720642 408.14173508 673.3266449 C396.81616349 715.85504573 371.46758969 755.30017109 336.60169601 782.31785583 C336.0594841 782.74179626 335.51727219 783.16573669 334.95862961 783.6025238 C303.65812806 807.91971732 263.12169164 825.38781509 222.97612095 825.45372772 C221.88524364 825.45754165 221.88524364 825.45754165 220.77232841 825.46143264 C218.34636276 825.4687257 215.92044833 825.46902722 213.4944725 825.46934509 C211.73299428 825.47319787 209.97151696 825.47748585 208.21004075 825.48217058 C203.37738388 825.49378395 198.54473643 825.4992885 193.71206844 825.5038054 C188.49634603 825.50976512 183.28063609 825.52143078 178.06492233 825.53244019 C169.02617663 825.55078034 159.98743062 825.56563045 150.94867516 825.57821655 C137.8573106 825.59653553 124.76596376 825.62120167 111.67461326 825.64759046 C90.40413814 825.69038327 69.13365808 825.72949137 47.86317062 825.76560974 C45.95375881 825.76885395 45.95375881 825.76885395 44.00577303 825.77216369 C34.97524751 825.78748413 25.94472177 825.80267719 16.91419601 825.81785583 C6.62114571 825.83516807 -3.67190446 825.85255911 -13.96495438 825.87010193 C-15.86612315 825.87334023 -15.86612315 825.87334023 -17.80569937 825.87664396 C-38.98136331 825.91283106 -60.15701854 825.95279578 -81.33267051 825.99540472 C-94.38005349 826.02147457 -107.42743392 826.04415458 -120.47483025 826.0623883 C-129.42913417 826.07511671 -138.3834278 826.09126527 -147.33772107 826.11003745 C-152.49468206 826.12072654 -157.65163324 826.12987268 -162.80860329 826.1347332 C-213.44257231 826.18504732 -260.0382795 829.80123647 -306.39830399 852.31785583 C-307.11937332 852.66541931 -307.84044266 853.01298279 -308.58336258 853.37107849 C-330.29666895 863.96870103 -350.12636141 878.3170556 -367.71471024 894.82176208 C-370.00115372 896.94845406 -372.32817483 898.98858144 -374.71080399 901.00535583 C-377.88364546 903.76942632 -380.65667858 906.70659515 -383.37096024 909.91941833 C-384.91919114 911.75104411 -386.48731326 913.55078533 -388.08189774 915.34129333 C-428.10916879 960.61717345 -450.6536778 1018.91639663 -450.71715164 1079.22801208 C-450.72647139 1081.27961106 -450.73664303 1083.33120632 -450.74759293 1085.38279724 C-450.77467649 1090.90232704 -450.78997746 1096.42183164 -450.80302095 1101.94141006 C-450.81874715 1107.72829804 -450.84550666 1113.51513524 -450.87105179 1119.30198669 C-450.91767267 1130.2378853 -450.95449711 1141.17379364 -450.98772466 1152.10974026 C-451.02606459 1164.56939795 -451.07544332 1177.02900445 -451.12570882 1189.48861885 C-451.22878018 1215.09832647 -451.31812055 1240.70806704 -451.39830399 1266.31785583 C-469.97580968 1266.34132138 -488.55331232 1266.35890159 -507.13082981 1266.36966801 C-515.75864854 1266.37480216 -524.386458 1266.38178927 -533.01427078 1266.39329529 C-540.54312862 1266.40333087 -548.07197974 1266.40973016 -555.60084409 1266.41194433 C-559.57924589 1266.41323652 -563.5576285 1266.4162261 -567.53602409 1266.42358589 C-610.65446898 1266.50016307 -610.65446898 1266.50016307 -627.77330399 1263.63035583 C-628.82219803 1263.45665466 -629.87109207 1263.28295349 -630.95177078 1263.10398865 C-684.37745785 1253.78869925 -728.12934418 1223.01422274 -759.39830399 1179.31785583 C-809.00448833 1108.20509252 -825.78474527 1011.71729673 -834.99254227 927.03904724 C-835.26364345 924.55281126 -835.5485432 922.06804217 -835.84703445 919.58494568 C-841.17578965 874.36796265 -841.34881246 825.54412903 -835.65153885 780.35832214 C-835.38155252 778.18287917 -835.12838057 776.00592605 -834.87828445 773.82810974 C-825.05148244 688.69029403 -809.81184935 591.36192795 -740.39830399 511.31785583 C-739.86414871 510.7617865 -739.32999344 510.20571716 -738.77965164 509.63279724 C-731.71998692 502.32137627 -724.48338542 495.50563816 -716.39830399 489.31785583 C-715.5596077 488.67251892 -715.5596077 488.67251892 -714.70396805 488.0141449 C-705.65171487 481.08604891 -696.33459303 474.90044364 -686.39830399 469.31785583 C-685.69254227 468.91711853 -684.98678055 468.51638123 -684.25963211 468.10350037 C-642.84497559 444.78271423 -596.3746606 435.76282317 -549.21467972 435.95709229 C-546.79573024 435.95577992 -544.37678118 435.95314561 -541.95783436 435.94932479 C-536.75313551 435.94406729 -531.54853063 435.94789525 -526.34384727 435.96023941 C-518.60500544 435.97854216 -510.86622762 435.97922876 -503.12736808 435.97661344 C-490.10172268 435.97269525 -477.07612335 435.98260581 -464.05049133 436.00066566 C-451.17157512 436.01847594 -438.29267813 436.02997539 -425.41374969 436.03322411 C-424.61006945 436.03343032 -423.8063892 436.03363654 -422.978355 436.03384901 C-418.89612185 436.03486415 -414.81388868 436.03576825 -410.73165549 436.03662964 C-381.89005655 436.04291464 -353.04848261 436.06308115 -324.20689774 436.09153748 C-296.20462043 436.11913362 -268.20234999 436.14036341 -240.2000618 436.15306091 C-239.33543499 436.15345549 -238.47080819 436.15385007 -237.57998057 436.15425661 C-228.89627538 436.1582125 -220.21257014 436.16203989 -211.52886485 436.16577318 C-193.84245072 436.17337984 -176.15603704 436.1818436 -158.46962357 436.19082642 C-157.65660404 436.19123829 -156.84358451 436.19165016 -156.00592803 436.19207451 C-101.80337567 436.2196313 -47.6008396 436.26785106 6.60169601 436.31785583 C6.60169601 419.48785583 6.60169601 402.65785583 6.60169601 385.31785583 C-128.36830399 385.31785583 -263.33830399 385.31785583 -402.39830399 385.31785583 C-402.39830399 200.17446358 -402.39830399 200.17446358 -400.08580399 181.31785583 C-399.95391678 180.21014832 -399.82202957 179.1024408 -399.68614578 177.96116638 C-395.7486398 146.30800599 -386.67108078 114.84108717 -365.39830399 90.31785583 C-364.94374832 89.78257263 -364.48919266 89.24728943 -364.02086258 88.69578552 C-335.1996203 54.94082115 -291.07906261 38.57888923 -249.39830399 27.31785583 C-248.31404129 27.02314392 -247.22977859 26.72843201 -246.11265945 26.42478943 C-200.44798469 14.22534142 -152.89739762 8.22476513 -105.89830399 4.06785583 C-105.03778427 3.99063293 -104.17726456 3.91341003 -103.29066849 3.83384705 C-96.66500956 3.24876823 -90.03478637 2.76249766 -83.39830399 2.31785583 C-82.10853653 2.23065277 -80.81876907 2.14344971 -79.48991776 2.05360413 C-52.99563312 0.30100004 -26.54625484 -0.04584972 0 0 Z M-273.39830399 145.31785583 C-274.15627274 145.98301208 -274.91424149 146.64816833 -275.69517899 147.33348083 C-291.12619568 161.70028949 -297.70479051 180.70995547 -299.68346024 201.28269958 C-300.39535173 221.86564942 -292.09040934 240.90973357 -278.86705399 256.25535583 C-265.75395295 270.13981575 -248.06981868 279.71341745 -228.70689774 280.65379333 C-206.94466036 281.06155827 -187.72975832 275.217261 -171.39830399 260.31785583 C-170.48564774 259.54248474 -170.48564774 259.54248474 -169.55455399 258.75144958 C-160.52735473 250.56542117 -154.32815188 238.69129798 -150.39830399 227.31785583 C-150.07990555 226.46965271 -149.76150711 225.62144958 -149.43346024 224.74754333 C-143.27821178 205.28901597 -147.12719584 183.70389083 -156.19102859 165.96458435 C-159.29675988 160.19333226 -162.97767826 155.16336788 -167.39830399 150.31785583 C-167.91521805 149.70941833 -168.43213211 149.10098083 -168.96471024 148.47410583 C-176.80644636 139.82657727 -188.56055865 133.37009199 -199.39830399 129.31785583 C-200.23619461 128.9994574 -201.07408524 128.68105896 -201.93736649 128.35301208 C-226.73493118 120.5993067 -254.51257056 128.23076369 -273.39830399 145.31785583 Z " fill="#3C79AA" transform="translate(838.3983039855957,-0.3178558349609375)"/>
</svg>
