<?xml version="1.0" encoding="UTF-8"?>
<svg version="1.1" xmlns="http://www.w3.org/2000/svg" width="800" height="712">
<path d="M0 0 C1.28917831 0.01063477 1.28917831 0.01063477 2.60440063 0.02148438 C15.27668409 0.14413412 26.79632305 0.95515185 38.6875 5.625 C40.2950107 6.20208933 41.90311155 6.7775367 43.51171875 7.3515625 C87.29600666 23.49739084 124.03366715 54.09549547 157.6875 85.625 C161.69097578 83.99679215 164.48906196 81.18861773 167.5625 78.25 C174.42013675 71.81446144 181.48413752 65.66924467 188.6875 59.625 C189.61320801 58.84189453 189.61320801 58.84189453 190.55761719 58.04296875 C201.11074232 49.14130753 212.15253392 41.20384096 223.6875 33.625 C224.35716797 33.1805957 225.02683594 32.73619141 225.71679688 32.27832031 C240.41730197 22.5700172 256.08795763 13.76969517 272.625 7.625 C273.30796143 7.37081299 273.99092285 7.11662598 274.69458008 6.85473633 C277.00912192 6.04379206 279.33702086 5.32553835 281.6875 4.625 C283.38700806 4.10196289 283.38700806 4.10196289 285.12084961 3.56835938 C295.06225473 0.68698664 304.52206352 -0.00044362 314.84301758 0.10351562 C317.38393522 0.12507582 319.92205466 0.10352603 322.46289062 0.078125 C340.99452563 0.0460392 356.4245039 5.63422785 370.6875 17.625 C371.48671875 18.22570312 372.2859375 18.82640625 373.109375 19.4453125 C395.19892253 38.12102087 402.79259643 70.91185392 405.49194336 98.27041626 C406.07682996 105.31269556 406.08037736 112.37542364 406.0625 119.4375 C406.06118576 120.72483536 406.06118576 120.72483536 406.05984497 122.03817749 C405.96261355 151.31829175 401.60970975 179.53748418 395.44433594 208.09863281 C394.47857096 212.59847456 393.57545576 217.10930436 392.6875 221.625 C393.77353516 221.96644043 394.85957031 222.30788086 395.97851562 222.65966797 C416.57953643 229.15604149 437.02108648 235.61269513 456.6875 244.625 C457.65913086 245.06553711 458.63076172 245.50607422 459.63183594 245.95996094 C484.6208514 257.35831729 507.27541002 271.16207511 527.6875 289.625 C528.71230469 290.54152344 528.71230469 290.54152344 529.7578125 291.4765625 C545.63464513 306.46724633 558.14062768 328.13757363 559.0234375 350.2265625 C559.45304612 378.54337431 549.47210739 400.59348862 530.078125 421.20703125 C526.76122904 424.56186556 523.35942661 427.66418594 519.6875 430.625 C518.7903125 431.35976563 517.893125 432.09453125 516.96875 432.8515625 C487.30285692 456.449432 431.29827876 490.625 391.6875 490.625 C392.06733032 491.98818359 392.06733032 491.98818359 392.45483398 493.37890625 C394.92187875 502.40256352 396.99743046 511.43090402 398.75 520.625 C398.94135025 521.62064972 398.94135025 521.62064972 399.13656616 522.63641357 C401.48433235 534.89808868 403.44066571 547.19894202 404.6875 559.625 C404.78248779 560.56867432 404.87747559 561.51234863 404.9753418 562.48461914 C405.76932619 571.41606136 405.87366816 580.31983786 405.87280273 589.27954102 C405.87498166 591.79135295 405.8931909 594.30271873 405.91210938 596.81445312 C405.96427591 611.45908802 405.03083527 626.0018724 401.4375 640.25 C401.22061523 641.12479004 401.00373047 641.99958008 400.78027344 642.90087891 C396.01035933 661.50218692 388.51302183 677.96434811 374.6875 691.625 C373.56794922 692.77742187 373.56794922 692.77742187 372.42578125 693.953125 C357.9948172 707.97859088 339.90651579 713.36364771 320.18432617 713.14648438 C317.88677307 713.12510953 315.59237877 713.14636678 313.29492188 713.171875 C299.29336685 713.19917121 286.21014873 710.40266534 273.125 705.375 C272.33746338 705.07762939 271.54992676 704.78025879 270.73852539 704.47387695 C262.76946699 701.39034777 255.21059659 697.66029495 247.6875 693.625 C246.60686279 693.05458984 246.60686279 693.05458984 245.50439453 692.47265625 C234.36099791 686.5733532 223.89791427 680.01787821 213.6875 672.625 C212.66398437 671.88636719 211.64046875 671.14773438 210.5859375 670.38671875 C198.43880313 661.43189058 186.80759333 651.82176428 175.6875 641.625 C173.03361031 639.2769489 170.36018079 636.95161655 167.6875 634.625 C166.18718066 633.31286505 164.68717399 632.00037249 163.1875 630.6875 C162.5171875 630.10097656 161.846875 629.51445313 161.15625 628.91015625 C160.42921875 628.27400391 160.42921875 628.27400391 159.6875 627.625 C155.16697075 629.04272871 152.78636405 631.26635472 149.5625 634.6875 C145.07507658 639.34563229 140.36209359 643.48062036 135.296875 647.515625 C132.89069665 649.46073924 130.59749447 651.47765103 128.3125 653.5625 C107.47763717 672.22553084 83.02274816 687.87132652 57.6875 699.625 C55.93566406 700.43904297 55.93566406 700.43904297 54.1484375 701.26953125 C45.56404191 705.09666021 36.77781564 708.22838276 27.6875 710.625 C26.9980127 710.81263916 26.30852539 711.00027832 25.59814453 711.19360352 C17.95849892 713.00795835 10.2396432 713.03197237 2.43115234 713.05053711 C0.08713352 713.06237559 -2.25419448 713.11163557 -4.59765625 713.16210938 C-24.20566009 713.37340308 -41.83019232 706.58057377 -56.08203125 692.88671875 C-57.18611328 691.76716797 -57.18611328 691.76716797 -58.3125 690.625 C-58.99699219 689.95082031 -59.68148437 689.27664063 -60.38671875 688.58203125 C-84.30430685 663.53669833 -88.54047752 626.27178204 -88.5625 593.25 C-88.56317474 592.33972046 -88.56384949 591.42944092 -88.56454468 590.49157715 C-88.52889997 560.08497189 -88.11205402 518.22410804 -74.3125 490.625 C-75.1473291 490.48783569 -75.1473291 490.48783569 -75.99902344 490.34790039 C-83.75231349 488.94708932 -91.11058349 486.58234223 -98.5625 484.0625 C-99.22067719 483.84124451 -99.87885437 483.61998901 -100.55697632 483.39202881 C-137.63094997 470.89432867 -174.4748505 454.38545516 -204.3125 428.625 C-205.16328125 427.90828125 -206.0140625 427.1915625 -206.890625 426.453125 C-213.12694176 421.05851971 -218.31477962 415.17341492 -223.3125 408.625 C-223.92996094 407.83480469 -224.54742187 407.04460937 -225.18359375 406.23046875 C-239.25577809 387.33174457 -243.57190357 365.64603319 -241.08105469 342.47167969 C-240.52222293 338.72178035 -239.54848389 335.20284811 -238.3125 331.625 C-237.98378906 330.65175781 -237.65507812 329.67851562 -237.31640625 328.67578125 C-232.10150698 314.87163611 -223.08207916 303.47508561 -213.3125 292.625 C-212.44044922 291.64466797 -212.44044922 291.64466797 -211.55078125 290.64453125 C-176.68226798 253.66809779 -122.37138674 236.29033641 -75.3125 221.625 C-75.50360352 220.72595947 -75.69470703 219.82691895 -75.89160156 218.90063477 C-79.84555726 200.21926465 -83.75433471 181.55942551 -86.3125 162.625 C-86.42964355 161.78372559 -86.54678711 160.94245117 -86.66748047 160.07568359 C-92.31790569 117.60094188 -91.69296062 66.29260778 -65.4296875 30.390625 C-64.38167969 29.02164062 -64.38167969 29.02164062 -63.3125 27.625 C-62.79945313 26.93921875 -62.28640625 26.2534375 -61.7578125 25.546875 C-46.37008483 6.24701317 -23.57888796 -0.374173 0 0 Z M-31.0625 46.0625 C-31.805 46.908125 -32.5475 47.75375 -33.3125 48.625 C-33.76882812 49.06714844 -34.22515625 49.50929688 -34.6953125 49.96484375 C-48.75116499 64.42544592 -52.36830417 89.43901218 -52.55078125 108.72265625 C-52.5605751 109.58159485 -52.57036896 110.44053345 -52.58045959 111.32550049 C-52.88435858 144.99531434 -50.85481558 180.63531825 -39.3125 212.625 C-31.25268732 211.9249477 -23.38374984 210.36645076 -15.44961548 208.84310913 C8.6029326 204.24678882 32.90353952 200.26321263 57.3269043 198.2565918 C62.68540429 197.78457905 66.24982123 197.33905325 69.80078125 193.10546875 C70.52652344 192.01878906 71.25226563 190.93210938 72 189.8125 C72.8716275 188.54065091 73.74687619 187.2712788 74.625 186.00390625 C75.10710937 185.30668457 75.58921875 184.60946289 76.0859375 183.89111328 C85.65519849 170.35119248 96.09119197 157.37093352 106.6875 144.625 C107.17589355 144.03750977 107.66428711 143.45001953 108.16748047 142.84472656 C113.52151638 136.42419979 118.98383775 130.11463988 124.60546875 123.92578125 C127.67741634 120.53107744 130.68507265 117.08117039 133.6875 113.625 C130.43386795 109.45628393 126.99289716 106.01727818 122.96875 102.59375 C120.44188298 100.41302915 118.00731366 98.14723857 115.5625 95.875 C109.76013519 90.58555142 103.65705937 85.75547629 97.43408203 80.97314453 C95.75809873 79.67949346 94.09433587 78.37172693 92.43359375 77.05859375 C62.50994505 53.50753149 4.61712645 14.43737655 -31.0625 46.0625 Z M221.6875 79.625 C220.69363281 80.41648438 219.69976562 81.20796875 218.67578125 82.0234375 C215.98873442 84.19661114 213.33208857 86.40036755 210.6875 88.625 C210.15592285 89.07166016 209.6243457 89.51832031 209.07666016 89.97851562 C200.39207694 97.29445406 191.9737508 104.86180158 183.6875 112.625 C184.491875 113.553125 185.29625 114.48125 186.125 115.4375 C188.78840009 118.53752305 191.36942503 121.69569581 193.9375 124.875 C197.03382918 128.68068887 200.22577013 132.3412467 203.5625 135.9375 C208.28549402 141.07594256 212.5815497 146.45758842 216.84765625 151.97265625 C219.19842846 155.01153852 221.60145431 158.00365946 224.02172852 160.98730469 C230.44529248 168.91836401 236.53617016 177.07382453 242.55859375 185.3125 C243.37493286 186.40316772 243.37493286 186.40316772 244.20776367 187.51586914 C245.6875 189.625 245.6875 189.625 246.73950195 191.66967773 C248.49893838 194.90849753 249.74724404 196.33362379 253.33618164 197.44580078 C256.88879699 198.0280552 260.41286993 198.3822603 264 198.6875 C266.07938818 198.90421277 268.15712256 199.13380792 270.2350769 199.36383057 C271.71364214 199.52691867 273.19260195 199.68646309 274.67190552 199.8427124 C283.71375869 200.80658369 292.69729936 202.14534174 301.6875 203.5 C302.52815002 203.6250592 303.36880005 203.75011841 304.23492432 203.87896729 C317.32404945 205.83151301 330.31195711 208.14531785 343.25976562 210.88427734 C344.43603516 211.12742676 345.61230469 211.37057617 346.82421875 211.62109375 C347.84217529 211.83950928 348.86013184 212.0579248 349.90893555 212.28295898 C352.78832262 212.63741126 354.8980022 212.36075837 357.6875 211.625 C361.18403226 197.00873466 364.21130137 182.41224161 366.5 167.5625 C366.60468597 166.88767578 366.70937195 166.21285156 366.81723022 165.51757812 C368.49619803 154.6223078 369.83431438 143.90547674 369.890625 132.875 C369.89632507 131.97740967 369.90202515 131.07981934 369.90789795 130.1550293 C369.91727694 128.26596223 369.92385336 126.37687933 369.92773438 124.48779297 C369.93738223 121.6595248 369.96845073 118.83200293 370 116.00390625 C370.13563386 92.77102032 366.63873373 68.40271667 352.375 49.25 C314.28877207 12.0494983 254.02923458 53.77588381 221.6875 79.625 Z M155.40234375 141.86328125 C154.47007336 142.88212081 153.54474938 143.90734311 152.625 144.9375 C151.88527954 145.75565186 151.88527954 145.75565186 151.13061523 146.59033203 C147.30000699 150.8602954 143.64910699 155.25982956 140.0546875 159.73046875 C137.88036638 162.38916834 135.65112512 164.98288893 133.39331055 167.57006836 C128.34563339 173.36284403 123.54856731 179.29009919 118.9375 185.4375 C118.4118042 186.13770264 117.8861084 186.83790527 117.34448242 187.55932617 C114.84129607 190.33507676 114.84129607 190.33507676 113.6875 193.625 C143.3875 193.625 173.0875 193.625 203.6875 193.625 C199.77831551 187.76122326 195.95971163 182.26620492 191.5 176.875 C190.93829102 176.19034668 190.37658203 175.50569336 189.79785156 174.80029297 C188.10048028 172.73673753 186.39586574 170.67945924 184.6875 168.625 C183.93315674 167.71766113 183.93315674 167.71766113 183.16357422 166.79199219 C177.78274359 160.33934797 172.29089551 154.00191225 166.62890625 147.79296875 C164.93763106 145.9043214 163.33259683 143.97939954 161.75 142 C160.7290625 140.824375 160.7290625 140.824375 159.6875 139.625 C157.39251114 139.39175277 157.39251114 139.39175277 155.40234375 141.86328125 Z M113.95703125 228.65698242 C110.2248046 228.68360077 106.49793379 228.7671264 102.76782227 228.89435577 C100.75670761 228.95116988 98.74433633 228.95621367 96.73242188 228.95941162 C89.78638138 229.26031805 89.78638138 229.26031805 84.16346741 233.00790405 C82.10679647 235.79843214 80.37447297 238.59965532 78.6875 241.625 C77.59250195 243.30115797 76.48868587 244.97163396 75.37109375 246.6328125 C74.28431503 248.33552082 73.20243683 250.04136502 72.125 251.75 C71.53348145 252.68448975 70.94196289 253.61897949 70.33251953 254.58178711 C63.25907 265.81406842 56.42631766 277.18943064 49.6875 288.625 C49.17509766 289.49382812 48.66269531 290.36265625 48.13476562 291.2578125 C41.42803153 302.68343694 35.11114071 314.31303923 28.875 326 C28.51819153 326.66637482 28.16138306 327.33274963 27.79376221 328.01931763 C25.7245493 331.88978653 23.69268296 335.77677901 21.69515991 339.6847229 C20.65927077 341.67935617 19.58215714 343.64827818 18.50317383 345.61987305 C14.90243126 352.07923709 14.90243126 352.07923709 13.79223633 359.22851562 C14.6065211 361.63756152 15.63779318 363.54209878 17 365.6875 C17.43280273 366.47294189 17.86560547 367.25838379 18.31152344 368.06762695 C19.24343559 369.74727824 20.20046952 371.41319957 21.18017578 373.06542969 C22.69618818 375.6397533 24.12113709 378.24708514 25.52734375 380.8828125 C27.50020457 384.57581784 29.50262955 388.24964102 31.53515625 391.91015625 C33.64227219 395.71182878 35.71095673 399.53041491 37.74609375 403.37109375 C58.16685649 447.49748119 58.16685649 447.49748119 87.6875 482.625 C92.6685635 483.17971763 97.68395389 483.41160305 102.6875 483.6875 C103.88898682 483.75378601 103.88898682 483.75378601 105.11474609 483.82141113 C140.59575916 485.68820016 176.60046295 485.57619676 212.09545898 484.0411377 C213.67850171 483.97290725 215.26186083 483.91160768 216.84545898 483.85778809 C218.96817592 483.78084796 221.08644369 483.67201489 223.20703125 483.55078125 C224.35276611 483.49317627 225.49850098 483.43557129 226.67895508 483.3762207 C232.31646645 481.96855841 235.09309491 477.34752863 238.078125 472.65234375 C238.6963916 471.68490234 239.3146582 470.71746094 239.95166016 469.72070312 C240.6069873 468.67849609 241.26231445 467.63628906 241.9375 466.5625 C242.63278809 465.46486328 243.32807617 464.36722656 244.04443359 463.23632812 C260.39752817 437.35740051 275.70233253 410.97468152 290.10256958 383.95733643 C290.8986426 382.46389886 291.69603131 380.97116176 292.49484253 379.47918701 C294.32093169 376.06338126 296.1248513 372.64012299 297.87231445 369.18334961 C298.96144513 367.04830192 300.09316289 364.93310206 301.30541992 362.86547852 C303.32254879 359.04145893 304.01671371 356.8577557 302.88183594 352.6081543 C301.36943009 349.09204652 299.61975229 345.77048457 297.75 342.4375 C297.09046037 341.20140361 296.43384038 339.96374532 295.7800293 338.72460938 C293.79771389 334.99717094 291.74748131 331.30990458 289.6875 327.625 C289.10033203 326.5632959 288.51316406 325.5015918 287.90820312 324.40771484 C285.23188165 319.57737617 282.51638906 314.77209953 279.7578125 309.98828125 C277.3299049 305.77381439 274.98944667 301.52047351 272.68408203 297.23803711 C254.60795458 261.98022076 254.60795458 261.98022076 230.6875 230.625 C226.18627812 230.07889086 221.64981445 229.85920191 217.125 229.578125 C216.42101074 229.53375557 215.71702148 229.48938614 214.99169922 229.44367218 C197.9504064 228.39735119 180.91959499 228.31862677 163.8515625 228.36425781 C160.40878386 228.37337603 156.96621614 228.37337603 153.5234375 228.36425781 C142.70032545 228.33596448 131.88361444 228.40718252 121.06201172 228.59048462 C118.69363152 228.62491087 116.32561194 228.64283844 113.95703125 228.65698242 Z M277.6875 235.625 C278.89486972 238.82893344 280.21337528 241.66690454 282.0859375 244.53125 C282.55918457 245.2641626 283.03243164 245.9970752 283.52001953 246.75219727 C284.02903809 247.53522217 284.53805664 248.31824707 285.0625 249.125 C291.65424025 259.41471653 297.71933548 269.96463749 303.6875 280.625 C304.13899414 281.4288916 304.59048828 282.2327832 305.05566406 283.06103516 C310.73378744 293.17845661 316.27030637 303.36562212 321.6875 313.625 C324.93816487 310.98765682 326.09073801 307.61605923 327.5078125 303.80859375 C327.76809738 303.12785797 328.02838226 302.44712219 328.29655457 301.74575806 C329.14390619 299.52119456 329.97872977 297.29218592 330.8125 295.0625 C331.39195501 293.52848276 331.97162779 291.99454777 332.55151367 290.46069336 C336.14814778 280.90999754 339.63917659 271.32375141 343 261.6875 C343.37850098 260.605896 343.75700195 259.52429199 344.14697266 258.40991211 C344.48647949 257.41999268 344.82598633 256.43007324 345.17578125 255.41015625 C345.61724487 254.12443726 345.61724487 254.12443726 346.06762695 252.81274414 C346.82380377 250.52291502 346.82380377 250.52291502 346.6875 247.625 C337.25168458 245.05899618 327.72634565 243.23267156 318.10839844 241.51782227 C315.58649142 241.06679075 313.06669905 240.60508681 310.546875 240.14257812 C299.62953036 238.16722982 288.72878036 236.70449198 277.6875 235.625 Z M28.70703125 236.76171875 C27.90962021 236.8814505 27.11220917 237.00118225 26.29063416 237.12454224 C23.69317441 237.5168057 21.09649781 237.91392108 18.5 238.3125 C17.18267883 238.51400162 17.18267883 238.51400162 15.83874512 238.71957397 C-7.0199062 241.91976574 -7.0199062 241.91976574 -29.3125 247.625 C-27.68618532 256.32140127 -24.71574929 264.50496852 -21.75 272.8125 C-21.48471497 273.55990448 -21.21942993 274.30730896 -20.94610596 275.07736206 C-17.53272303 284.68275264 -14.01812115 294.23906288 -10.1875 303.6875 C-9.82197021 304.59588623 -9.45644043 305.50427246 -9.07983398 306.44018555 C-8.74153564 307.25527588 -8.4032373 308.07036621 -8.0546875 308.91015625 C-7.7644873 309.61019775 -7.47428711 310.31023926 -7.17529297 311.03149414 C-6.4051869 312.81765816 -6.4051869 312.81765816 -4.3125 313.625 C-4.0222998 313.05394531 -3.73209961 312.48289062 -3.43310547 311.89453125 C4.42795883 296.48476283 12.83317494 281.48350596 21.6875 266.625 C22.3587793 265.49481445 23.03005859 264.36462891 23.72167969 263.20019531 C25.76790778 259.75553771 27.82041917 256.31468309 29.875 252.875 C30.51091064 251.80910645 31.14682129 250.74321289 31.80200195 249.64501953 C32.397146 248.65356934 32.99229004 247.66211914 33.60546875 246.640625 C34.12906982 245.76696289 34.6526709 244.89330078 35.19213867 243.99316406 C36.6875 241.625 36.6875 241.625 38.38012695 239.43652344 C39.88257041 237.72704289 39.88257041 237.72704289 39.6875 235.625 C35.9616947 235.625 32.38100971 236.20505755 28.70703125 236.76171875 Z M381.6875 256.625 C381.39206299 257.51243896 381.09662598 258.39987793 380.79223633 259.31420898 C375.28279054 275.81659261 369.63788714 292.25163781 363.25 308.4375 C362.98593353 309.10744995 362.72186707 309.7773999 362.44979858 310.46765137 C359.43014444 318.09584038 356.27127866 325.65040199 352.94140625 333.1484375 C352.63568192 333.83969223 352.32995758 334.53094696 352.01496887 335.2431488 C350.55291586 338.54326154 349.07403744 341.83363411 347.56079102 345.1105957 C347.03799561 346.27421631 346.5152002 347.43783691 345.9765625 348.63671875 C345.27587646 350.15978638 345.27587646 350.15978638 344.56103516 351.71362305 C342.7728946 357.67325864 345.3230904 362.56080367 347.79296875 367.96875 C348.44721275 369.43857216 349.10091512 370.9086355 349.75415039 372.37890625 C350.27261032 373.53737061 350.27261032 373.53737061 350.80154419 374.71923828 C362.70440431 401.39518055 372.81202696 428.79738904 381.6875 456.625 C390.40938901 454.60080733 398.85438124 452.05569431 407.3125 449.125 C407.93423096 448.90979706 408.55596191 448.69459412 409.1965332 448.47286987 C442.72018982 436.81781192 477.24928383 422.10296339 502.6875 396.625 C503.491875 395.89152344 504.29625 395.15804687 505.125 394.40234375 C516.37173102 383.93452485 522.90942235 371.24853624 523.74609375 355.95703125 C523.44456922 338.81033611 512.72420538 325.91860169 501.3515625 314.22265625 C488.84951289 302.42464698 473.90408993 293.44064257 458.6875 285.625 C457.84010254 285.18833008 456.99270508 284.75166016 456.11962891 284.30175781 C420.39134503 265.22761358 420.39134503 265.22761358 381.6875 256.625 Z M-188.85546875 319.05859375 C-198.72553022 329.40432083 -205.92235537 342.17918059 -206.6875 356.6875 C-204.71134612 377.43711578 -191.05859827 393.25232877 -175.54785156 406.08496094 C-171.61227293 409.14843848 -167.5095858 411.934294 -163.3125 414.625 C-162.72919922 414.99931152 -162.14589844 415.37362305 -161.54492188 415.75927734 C-157.20542319 418.50897615 -152.78316482 421.09524745 -148.3125 423.625 C-147.62655762 424.01655273 -146.94061523 424.40810547 -146.23388672 424.81152344 C-121.93656928 438.54551157 -92.05697189 451.71510874 -64.3125 456.625 C-63.99200684 455.65715576 -63.67151367 454.68931152 -63.34130859 453.69213867 C-57.37659437 435.73559658 -51.24704975 417.87215745 -44.1875 400.3125 C-43.89839752 399.59263916 -43.60929504 398.87277832 -43.31143188 398.13110352 C-40.32469676 390.7240589 -37.24018888 383.37102151 -33.94921875 376.09375 C-33.42924316 374.94044189 -32.90926758 373.78713379 -32.37353516 372.59887695 C-31.40641869 370.47793287 -30.42406587 368.36383955 -29.42333984 366.25854492 C-28.99617676 365.33146729 -28.56901367 364.40438965 -28.12890625 363.44921875 C-27.75193604 362.65604248 -27.37496582 361.86286621 -26.98657227 361.0456543 C-25.5169326 355.76804573 -27.74969203 351.18660909 -29.90234375 346.390625 C-30.4341626 345.19083008 -30.96598145 343.99103516 -31.51391602 342.75488281 C-31.79679474 342.1234436 -32.07967346 341.49200439 -32.37112427 340.84143066 C-44.62867921 313.41590164 -54.87760404 285.13668905 -64.3125 256.625 C-104.62141732 256.625 -160.35814168 291.78695817 -188.85546875 319.05859375 Z M-5.3125 399.625 C-10.03806058 408.28608936 -13.37084516 417.38456878 -16.75 426.625 C-17.32826017 428.19535263 -17.90662977 429.76566497 -18.48510742 431.3359375 C-21.44829395 439.40283598 -24.38487473 447.47910792 -27.125 455.625 C-27.36081787 456.32238281 -27.59663574 457.01976562 -27.83959961 457.73828125 C-28.7457787 460.50734096 -29.3125 462.68724206 -29.3125 465.625 C-6.78447635 470.64797671 15.85718338 474.29129855 38.6875 477.625 C38.6875 474.03464154 37.80017556 472.81099772 35.93359375 469.77734375 C35.03423096 468.30092407 35.03423096 468.30092407 34.11669922 466.79467773 C33.45943848 465.72805908 32.80217773 464.66144043 32.125 463.5625 C30.73911934 461.28229478 29.3547709 459.00123261 27.97265625 456.71875 C27.43874268 455.83871559 27.43874268 455.83871559 26.89404297 454.94090271 C15.91984455 436.82421243 5.65666533 418.30986034 -4.3125 399.625 C-4.6425 399.625 -4.9725 399.625 -5.3125 399.625 Z M321.6875 399.625 C321.3064209 400.34751953 320.9253418 401.07003906 320.53271484 401.81445312 C310.44331556 420.902017 300.01991939 439.73125934 288.69921875 458.125 C288.04896729 459.18291748 287.39871582 460.24083496 286.72875977 461.33081055 C285.47710309 463.36002843 284.21875481 465.38513821 282.95288086 467.40551758 C282.3935083 468.30939209 281.83413574 469.2132666 281.2578125 470.14453125 C280.76039551 470.93964111 280.26297852 471.73475098 279.75048828 472.55395508 C278.45918626 474.68184378 278.45918626 474.68184378 278.6875 477.625 C313.12186334 473.53456658 313.12186334 473.53456658 346.6875 465.625 C345.16943098 457.92797978 342.82128667 450.655862 340.25 443.25 C340.03529053 442.62903442 339.82058105 442.00806885 339.59936523 441.36828613 C336.21260353 431.60223056 332.5617795 421.95769033 328.6875 412.375 C328.21900635 411.2092041 327.7505127 410.0434082 327.26782227 408.84228516 C326.82881592 407.7754248 326.38980957 406.70856445 325.9375 405.609375 C325.55078125 404.66803711 325.1640625 403.72669922 324.765625 402.75683594 C323.87543514 400.47049363 323.87543514 400.47049363 321.6875 399.625 Z M-39.3125 499.625 C-47.97303229 524.6240218 -52.38042234 553.89065662 -52.515625 580.375 C-52.52132507 581.27259033 -52.52702515 582.17018066 -52.53289795 583.0949707 C-52.54227694 584.98403777 -52.54885336 586.87312067 -52.55273438 588.76220703 C-52.56238223 591.5904752 -52.59345073 594.41799707 -52.625 597.24609375 C-52.7126264 612.14274501 -51.58219909 626.84227286 -46.5625 641 C-46.17735229 642.10976196 -46.17735229 642.10976196 -45.78442383 643.24194336 C-40.85341727 656.88711369 -33.29123662 668.34710856 -19.8671875 674.65234375 C-5.05586354 680.29151755 10.90730241 678.4788184 25.6875 673.625 C26.94433594 673.22410156 28.20117188 672.82320312 29.49609375 672.41015625 C54.19804156 664.05623596 76.52993745 648.88377473 96.6875 632.625 C97.63753906 631.86703125 98.58757812 631.1090625 99.56640625 630.328125 C104.97885404 625.9620336 110.20483185 621.42972647 115.34765625 616.75 C118.75137561 613.65880913 122.21967849 610.64380079 125.6875 607.625 C127.18781934 606.31286505 128.68782601 605.00037249 130.1875 603.6875 C131.35416667 602.66666667 132.52083333 601.64583333 133.6875 600.625 C130.07148546 595.50231274 126.15512628 590.8780128 121.875 586.3125 C117.43902505 581.57169604 113.20893223 576.73956054 109.14453125 571.671875 C107.28804454 569.36971342 105.41254376 567.09317659 103.51171875 564.828125 C95.40825041 555.14770982 87.81977672 545.18032793 80.39990234 534.96923828 C77.5899214 531.12244087 74.73469983 527.30990835 71.875 523.5 C71.36501465 522.8186499 70.8550293 522.1372998 70.32958984 521.43530273 C68.14294959 518.41679987 68.14294959 518.41679987 65.6875 515.625 C63.55155667 515.33473717 61.40736478 515.10510029 59.26171875 514.8984375 C57.85254519 514.75668687 56.44345065 514.61414909 55.03442383 514.47094727 C54.27787506 514.39498322 53.52132629 514.31901917 52.74185181 514.24075317 C21.84821198 511.09829118 -8.96751493 506.23686601 -39.3125 499.625 Z M349.55859375 500.8125 C348.22415431 501.09962653 346.88950693 501.38578782 345.5546875 501.67114258 C344.47719238 501.90409531 344.47719238 501.90409531 343.37792969 502.14175415 C327.40683273 505.5675008 311.35870042 508.15587741 295.1875 510.4375 C293.64399368 510.65708374 293.64399368 510.65708374 292.06930542 510.88110352 C289.05734787 511.30767959 286.04460141 511.72792173 283.03125 512.14453125 C282.07166885 512.27803986 281.11208771 512.41154846 280.12342834 512.54910278 C275.47722773 513.17817526 270.84626797 513.72089722 266.171875 514.09130859 C265.30324829 514.16411545 264.43462158 514.2369223 263.53967285 514.31193542 C261.92324913 514.44067548 260.30514999 514.55047929 258.68591309 514.63691711 C254.8664425 514.94240098 252.8945316 515.45605816 249.89550781 517.90332031 C249.16686523 518.80147461 248.43822266 519.69962891 247.6875 520.625 C247.06262695 521.38562744 246.43775391 522.14625488 245.79394531 522.92993164 C245.20709961 523.70715576 244.62025391 524.48437988 244.015625 525.28515625 C243.35570557 526.15543457 242.69578613 527.02571289 242.01586914 527.92236328 C241.33000732 528.8348584 240.64414551 529.74735352 239.9375 530.6875 C239.2252124 531.62835449 238.5129248 532.56920898 237.77905273 533.53857422 C234.08181273 538.42693645 230.40978686 543.33357837 226.75 548.25 C220.42571062 556.70231114 213.61274868 564.74627396 206.77612305 572.78442383 C203.84491224 576.23601034 200.97049729 579.72700335 198.125 583.25 C193.52403009 588.90952639 188.64324828 594.27610258 183.6875 599.625 C184.42355469 600.35976563 185.15960938 601.09453125 185.91796875 601.8515625 C187.57176278 603.5076891 189.22163651 605.16776708 190.86328125 606.8359375 C191.56839844 607.55007813 192.27351563 608.26421875 193 609 C193.69738281 609.70898438 194.39476562 610.41796875 195.11328125 611.1484375 C214.17158721 629.48374247 235.77102721 645.47748659 258.6875 658.625 C259.83387939 659.28459717 259.83387939 659.28459717 261.00341797 659.95751953 C282.40521779 672.11875124 306.34295496 681.44551342 331.33203125 676.97265625 C338.20084921 674.9181831 343.48285357 671.50750197 348.6875 666.625 C349.30238281 666.05136719 349.91726563 665.47773437 350.55078125 664.88671875 C368.41851389 646.38509759 370.3048946 616.72439567 370.125 592.4375 C370.12129395 591.52947632 370.11758789 590.62145264 370.11376953 589.68591309 C369.97272975 565.17597741 366.52465771 541.65478915 361.5625 517.6875 C361.298927 516.40993835 361.298927 516.40993835 361.0300293 515.10656738 C360.52889723 512.7051248 360.01383778 510.30721625 359.4921875 507.91015625 C359.3401889 507.18580887 359.18819031 506.46146149 359.03158569 505.71516418 C358.6488205 504.00253933 358.17662328 502.31033424 357.6875 500.625 C354.72162844 499.14206422 352.77523978 500.0984449 349.55859375 500.8125 Z M113.6875 519.625 C116.58188578 523.96657868 119.5226297 528.10719012 122.75 532.1875 C123.22679199 532.79247314 123.70358398 533.39744629 124.19482422 534.02075195 C128.37142031 539.28841357 132.69607157 544.42081902 137.0625 549.53125 C139.52665964 552.4205132 141.92411 555.36018458 144.3125 558.3125 C148.59548427 563.57909911 153.09878746 568.62406269 157.6875 573.625 C160.89847544 572.55467485 161.47610486 571.99718796 163.5625 569.5 C164.1709375 568.78199219 164.779375 568.06398438 165.40625 567.32421875 C166.1590625 566.43347656 166.911875 565.54273438 167.6875 564.625 C168.6960381 563.46321032 169.70660866 562.30318317 170.71875 561.14453125 C177.17912363 553.74688646 183.55109498 546.29550627 189.6875 538.625 C190.14962891 538.0479834 190.61175781 537.4709668 191.08789062 536.87646484 C192.58390327 535.00448834 194.07421308 533.12812303 195.5625 531.25 C196.02736816 530.66661865 196.49223633 530.0832373 196.97119141 529.48217773 C199.49544586 526.27717872 201.5739617 523.14756383 203.6875 519.625 C173.9875 519.625 144.2875 519.625 113.6875 519.625 Z " fill="#60DAFB" transform="translate(241.3125,-0.625)"/>
<path d="M0 0 C15.82047153 12.05896081 26.79223973 29.11755518 29.51171875 49.04296875 C31.47921925 70.63082148 26.05977298 89.14652259 12.79296875 106.12890625 C0.14412803 121.28387242 -17.76147261 129.30825577 -37.20703125 131.12890625 C-57.43417398 132.91835332 -76.47485342 124.77221115 -91.70703125 112.0390625 C-105.43972775 99.236184 -113.1784608 81.48399368 -114.42578125 62.86328125 C-114.96000412 43.00799806 -108.69633253 23.99512189 -94.99243164 9.44360352 C-69.49905757 -16.53620796 -30.22654225 -20.19464511 0 0 Z " fill="#60DAFB" transform="translate(442.20703125,296.87109375)"/>
</svg>
