<?xml version="1.0" encoding="UTF-8"?>
<svg version="1.1" xmlns="http://www.w3.org/2000/svg" width="500" height="500">
<path d="M0 0 C1.25090577 -0.00382555 2.50181154 -0.00765109 3.79062355 -0.01159257 C7.23745543 -0.02181885 10.68418268 -0.01970453 14.13102293 -0.01541197 C17.85853396 -0.01293483 21.58602043 -0.02197129 25.31352234 -0.02944946 C32.60742392 -0.0421725 39.90128864 -0.04399303 47.19519944 -0.0416492 C53.12875239 -0.03986269 59.06229418 -0.04162282 64.99584579 -0.04587364 C65.84190723 -0.04646883 66.68796866 -0.04706402 67.55966832 -0.04767724 C69.27876029 -0.04888907 70.99785225 -0.0501032 72.7169442 -0.05131962 C88.82549479 -0.06218658 104.93402442 -0.06003705 121.04257618 -0.05393478 C135.75220534 -0.04877007 150.46176818 -0.06001077 165.17138423 -0.07903299 C180.30039036 -0.09844643 195.42936517 -0.10666102 210.55838382 -0.10290974 C219.04195708 -0.10100254 227.52547397 -0.10343794 236.00903702 -0.11762428 C243.23387107 -0.12958406 250.45861406 -0.130892 257.68344946 -0.11883412 C261.36344452 -0.11297662 265.04327342 -0.11175813 268.72325706 -0.12383652 C299.24664569 -0.2172432 325.26293316 4.15014815 349.25021362 24.26069641 C349.81611206 24.68221985 350.3820105 25.10374329 350.96505737 25.53804016 C369.65846403 40.00893614 380.94234051 65.73367924 383.97168016 88.48647833 C384.96655625 98.39553287 384.67022393 108.42896419 384.64238763 118.37682319 C384.63552176 122.01558032 384.64611509 125.65429643 384.65432739 129.29304504 C384.66758677 136.39784431 384.6648223 143.50254788 384.65608947 150.60735072 C384.64928344 156.38628631 384.64840874 162.1651953 384.65166092 167.94413376 C384.65212062 168.77010796 384.65258032 169.59608216 384.65305395 170.44708588 C384.65401323 172.12559384 384.65498587 173.80410179 384.65597172 175.48260973 C384.66450249 191.17866238 384.65472739 206.87466225 384.63857062 222.57070623 C384.62516455 236.010202 384.62750241 249.44962001 384.6413269 262.88911438 C384.65741512 278.53638196 384.66368396 294.18360344 384.65449011 309.83087814 C384.65353457 311.50221562 384.65259145 313.1735531 384.65166092 314.84489059 C384.65119809 315.6669982 384.65073527 316.48910581 384.65025841 317.33612577 C384.64767861 323.10262125 384.65201753 328.86908724 384.65909958 334.63557816 C384.6675507 341.67070181 384.66515884 348.70572517 384.64925735 355.74083747 C384.64142365 359.32354139 384.63819828 362.90607864 384.6482048 366.48878098 C384.71861102 393.94991151 384.71861102 393.94991151 381.25021362 406.26069641 C381.04770178 407.03302172 380.84518993 407.80534702 380.63654137 408.60107613 C373.89794872 432.80489948 356.49897997 454.22724244 335.31271362 467.57319641 C318.47549756 476.99660605 301.24606765 481.41096376 282.07119751 481.40786743 C280.84538947 481.41154412 279.61958144 481.41522081 278.3566277 481.41900891 C274.96583599 481.42810015 271.57509254 481.43273761 268.18429327 481.43539822 C264.52211609 481.43931633 260.85995273 481.44889371 257.19778442 481.45761108 C248.35811783 481.47733537 239.51845017 481.48743758 230.67876709 481.49633887 C226.5081569 481.50072929 222.33754798 481.50609422 218.16693878 481.51132774 C204.28862649 481.52833767 190.41031497 481.54282882 176.53199387 481.55007648 C172.93383534 481.55198615 169.33567681 481.55390651 165.73751831 481.55586243 C164.39618343 481.55658804 164.39618343 481.55658804 163.02775088 481.55732831 C148.56243918 481.56561737 134.09721048 481.59093633 119.63193497 481.6234431 C104.75500672 481.6566002 89.87812051 481.67453312 75.00115514 481.67772073 C66.65881656 481.67987807 58.31659894 481.68851215 49.97429657 481.7141819 C42.86511432 481.73600764 35.75608241 481.74388158 28.64687046 481.73421512 C25.02722412 481.72970418 21.40788716 481.73136636 17.7882843 481.75097656 C-16.19432068 481.92456424 -43.56256432 475.01479061 -68.74978638 451.26069641 C-87.02105348 431.83118734 -94.35363082 409.06633293 -97.74978638 383.26069641 C-98.07978638 383.26069641 -98.40978638 383.26069641 -98.74978638 383.26069641 C-98.77266893 345.27199562 -98.79029285 307.28329586 -98.80085171 269.29458957 C-98.80210243 264.81096111 -98.80339675 260.32733266 -98.80471802 255.84370422 C-98.80498033 254.95108427 -98.80524264 254.05846432 -98.8055129 253.13879527 C-98.8098657 238.68046014 -98.81775112 224.22212897 -98.82693917 209.7637962 C-98.83628652 194.9312247 -98.84184429 180.09865529 -98.84387487 165.26608098 C-98.84524784 156.11160189 -98.84958628 146.95713403 -98.85770284 137.80265839 C-98.86298363 131.52741671 -98.86458763 125.25218084 -98.86328775 118.9769371 C-98.86264647 115.35500951 -98.86363833 111.73310155 -98.86899185 108.11117744 C-98.87475238 104.18525094 -98.87277671 100.25935008 -98.87004089 96.3334198 C-98.87295373 95.18750331 -98.87586658 94.04158682 -98.87886769 92.86094558 C-98.8694641 87.88542662 -98.82158872 83.14752166 -97.74978638 78.26069641 C-97.08978638 78.26069641 -96.42978638 78.26069641 -95.74978638 78.26069641 C-95.74978638 75.62069641 -95.74978638 72.98069641 -95.74978638 70.26069641 C-95.08978638 70.26069641 -94.42978638 70.26069641 -93.74978638 70.26069641 C-93.47714966 69.22622375 -93.47714966 69.22622375 -93.19900513 68.17085266 C-92.40295991 65.19486825 -91.57926349 62.22752385 -90.74978638 59.26069641 C-90.54482544 58.48596985 -90.3398645 57.71124329 -90.12869263 56.91304016 C-87.449295 47.74317623 -82.08561417 40.18607592 -75.12478638 33.76069641 C-73.65509882 32.30153692 -73.65509882 32.30153692 -72.81228638 30.32319641 C-71.48347507 27.74373918 -69.95373348 26.14053365 -67.74978638 24.26069641 C-67.13490356 24.13179016 -66.52002075 24.00288391 -65.88650513 23.87007141 C-63.08308186 23.07055765 -61.61935011 21.62399014 -59.43728638 19.69819641 C-55.18468435 16.19122149 -50.84933344 13.45521027 -45.99978638 10.88569641 C-45.37418823 10.55239319 -44.74859009 10.21908997 -44.10403442 9.87568665 C-40.40694718 7.96356942 -36.73057267 6.4695855 -32.74978638 5.26069641 C-32.74978638 4.60069641 -32.74978638 3.94069641 -32.74978638 3.26069641 C-31.84099731 3.18721985 -31.84099731 3.18721985 -30.91384888 3.11225891 C-30.07595825 3.03749329 -29.23806763 2.96272766 -28.37478638 2.88569641 C-27.15662231 2.78128235 -27.15662231 2.78128235 -25.91384888 2.67475891 C-23.31178532 2.33424195 -20.89903358 1.83732693 -18.34889412 1.25111103 C-12.21715847 0.01969267 -6.23643899 -0.02041573 0 0 Z M-84.74978638 47.26069641 C-83.74978638 49.26069641 -83.74978638 49.26069641 -83.74978638 49.26069641 Z " fill="#4A4A4A" transform="translate(115.74978637695313,18.739303588867188)"/>
<path d="M0 0 C25.74231167 -1.08600377 49.28539212 7.47159138 69 24 C69.56589844 24.42152344 70.13179688 24.84304687 70.71484375 25.27734375 C89.40825041 39.74823973 100.69212689 65.47298283 103.72146654 88.22578192 C104.71634263 98.13483646 104.42001031 108.16826778 104.39217401 118.11612678 C104.38530814 121.75488391 104.39590146 125.39360002 104.40411377 129.03234863 C104.41737315 136.1371479 104.41460868 143.24185147 104.40587585 150.34665431 C104.39906982 156.1255899 104.39819512 161.90449889 104.4014473 167.68343735 C104.401907 168.50941155 104.40236669 169.33538575 104.40284032 170.18638947 C104.4037996 171.86489743 104.40477224 173.54340538 104.4057581 175.22191332 C104.41428887 190.91796597 104.40451376 206.61396583 104.388357 222.31000982 C104.37495093 235.74950559 104.37728879 249.1889236 104.39111328 262.62841797 C104.4072015 278.27568555 104.41347034 293.92290703 104.40427649 309.57018173 C104.40332095 311.24151921 104.40237783 312.91285669 104.4014473 314.58419418 C104.40098447 315.40630179 104.40052164 316.2284094 104.40004479 317.07542936 C104.39746498 322.84192484 104.40180391 328.60839083 104.40888596 334.37488174 C104.41733708 341.4100054 104.41494522 348.44502876 104.39904372 355.48014106 C104.39121003 359.06284498 104.38798466 362.64538223 104.39799118 366.22808456 C104.4683974 393.6892151 104.4683974 393.6892151 101 406 C100.79748816 406.77232531 100.59497631 407.54465061 100.38632774 408.34037971 C93.6477351 432.54420307 76.24876635 453.96654603 55.0625 467.3125 C38.22528393 476.73590964 20.99585402 481.15026735 1.82098389 481.14717102 C0.59517585 481.15084771 -0.63063219 481.1545244 -1.89358592 481.1583125 C-5.28437763 481.16740374 -8.67512109 481.1720412 -12.06592035 481.17470181 C-15.72809753 481.17861991 -19.39026089 481.18819729 -23.0524292 481.19691467 C-31.89209579 481.21663896 -40.73176345 481.22674117 -49.57144654 481.23564246 C-53.74205672 481.24003288 -57.91266565 481.24539781 -62.08327484 481.25063133 C-75.96158713 481.26764126 -89.83989865 481.28213241 -103.71821976 481.28938007 C-107.31637829 481.29128974 -110.91453681 481.2932101 -114.51269531 481.29516602 C-115.85403019 481.29589163 -115.85403019 481.29589163 -117.22246274 481.2966319 C-131.68777444 481.30492096 -146.15300314 481.33023992 -160.61827865 481.36274669 C-175.49520691 481.39590379 -190.37209311 481.41383671 -205.24905849 481.41702431 C-213.59139706 481.41918166 -221.93361468 481.42781574 -230.27591705 481.45348549 C-237.3850993 481.47531123 -244.49413121 481.48318517 -251.60334316 481.47351871 C-255.2229895 481.46900776 -258.84232646 481.47066995 -262.46192932 481.49028015 C-296.44453431 481.66386783 -323.81277794 474.7540942 -349 451 C-368.18019165 430.60394834 -377.73960516 404.77628267 -377 377 C-374.72054627 380.41918059 -374.45171996 382.6505471 -373.8125 386.6875 C-371.365562 400.13989182 -365.49164529 411.35064156 -357 422 C-355.97654604 423.41477459 -354.9555009 424.83129661 -353.9375 426.25 C-339.44773381 445.29921262 -316.9944417 455.81038224 -293.78653717 459.5761528 C-285.70760119 460.48047098 -277.57125904 460.25835995 -269.45214844 460.22705078 C-267.39129136 460.2264858 -265.33043387 460.22680491 -263.26957703 460.22793579 C-257.70637971 460.22850693 -252.14326958 460.21679148 -246.58009243 460.20278788 C-240.75451035 460.19024049 -234.92892603 460.18910687 -229.10333252 460.18673706 C-218.08580557 460.18053404 -207.06831855 460.16413921 -196.05080914 460.14403808 C-183.50180302 460.12164235 -170.95279494 460.11067642 -158.40377378 460.10064721 C-132.60249376 460.07977191 -106.80124912 460.04461891 -81 460 C-81.44730469 459.55269531 -81.89460938 459.10539062 -82.35546875 458.64453125 C-82.96003906 458.03996094 -83.56460937 457.43539063 -84.1875 456.8125 C-84.83026036 456.16978055 -85.47302073 455.5270611 -86.13525867 454.8648653 C-87.5982622 453.40176451 -89.060884 451.93828203 -90.52336121 450.47465515 C-93.5532574 447.44718573 -96.58958719 444.42622683 -99.6262207 441.40551758 C-106.16400709 434.90032128 -112.6967687 428.39010303 -119.22665119 421.87697315 C-123.17395067 417.94015863 -127.12311809 414.00525454 -131.07641602 410.07446289 C-134.90552077 406.26701246 -138.72978666 402.45476432 -142.55068016 398.63907433 C-144.00865642 397.18480233 -145.46839595 395.73229596 -146.9298954 394.28156471 C-148.96481753 392.26106201 -150.99349456 390.23448757 -153.02075195 388.20629883 C-153.63004547 387.60419586 -154.23933899 387.0020929 -154.86709595 386.38174438 C-159 382.22810956 -159 382.22810956 -159 380 C-159.58606112 379.73883959 -160.17212225 379.47767918 -160.7759428 379.20860481 C-163.13650936 377.92581761 -164.68964164 376.55931936 -166.58491516 374.662323 C-167.27867249 373.97276016 -167.97242981 373.28319733 -168.68721008 372.57273865 C-169.43794296 371.81638626 -170.18867584 371.06003387 -170.9621582 370.28076172 C-171.76104462 369.48377365 -172.55993103 368.68678558 -173.38302612 367.86564636 C-176.0271913 365.22519047 -178.66407702 362.57759216 -181.30078125 359.9296875 C-183.13881057 358.0904658 -184.97721 356.25161391 -186.81596375 354.41311646 C-190.67330248 350.55421231 -194.52737569 346.69209204 -198.37866211 342.82714844 C-202.81506628 338.37506915 -207.25662408 333.9281867 -211.70123988 329.48430622 C-215.99010426 325.19605533 -220.27603038 320.90488237 -224.56050682 316.61224747 C-226.37669688 314.79288566 -228.19348403 312.97411969 -230.01088905 311.15597153 C-232.55966438 308.6050137 -235.10511118 306.05078013 -237.6496582 303.49560547 C-238.39431839 302.75139847 -239.13897858 302.00719147 -239.90620422 301.24043274 C-243.8926918 297.22973283 -247.6930004 293.12026856 -251.3869257 288.83920288 C-253.70281891 286.19865652 -256.14522098 283.72753177 -258.62817383 281.24243164 C-259.14292267 280.72593048 -259.65767151 280.20942932 -260.1880188 279.67727661 C-261.85854883 278.00241098 -263.53263074 276.33115176 -265.20703125 274.66015625 C-266.38065427 273.48585843 -267.5541289 272.31141229 -268.72746277 271.13682556 C-271.17077455 268.69204862 -273.61586312 266.24906688 -276.06225586 263.80737305 C-279.2007729 260.6745907 -282.33472771 257.53728856 -285.46739674 254.39865971 C-287.88216512 251.98028602 -290.29929982 249.5642888 -292.71716881 247.14901543 C-293.87456379 245.99228784 -295.03121553 244.83481609 -296.18711281 243.67659187 C-297.79527222 242.06590239 -299.40658532 240.45843678 -301.01879883 238.85180664 C-301.93478348 237.93661758 -302.85076813 237.02142853 -303.79450989 236.07850647 C-305.81944399 233.97028593 -305.81944399 233.97028593 -308 233 C-307.67 232.01 -307.34 231.02 -307 230 C-304.4580999 228.84090422 -302.01030912 227.87796905 -299.37890625 226.96875 C-298.21801735 226.55296692 -298.21801735 226.55296692 -297.03367615 226.12878418 C-294.54702451 225.24156309 -292.05488959 224.3709537 -289.5625 223.5 C-287.91695626 222.91377403 -286.27176925 222.32654567 -284.62695312 221.73828125 C-277.47039816 219.19139188 -270.32344227 216.6657719 -263.00488281 214.61694336 C-260.66958886 213.89832575 -258.44313215 212.99981549 -256.1875 212.0625 C-251.3068832 210.04876519 -246.33697456 208.51324316 -241.2734375 207.02734375 C-238.23359622 206.07331242 -235.27452291 204.97973358 -232.29833984 203.84545898 C-226.59773854 201.7484564 -220.79304487 199.93339012 -215.01953125 198.04882812 C-209.41857595 196.20200741 -203.92773331 194.21575961 -198.46923828 191.98413086 C-194.15489922 190.26462317 -189.76429818 188.7652911 -185.375 187.25 C-182.28125 186.1775 -179.1875 185.105 -176 184 C-175.34 172.45 -174.68 160.9 -174 149 C-173.34 149.33 -172.68 149.66 -172 150 C-172 150.66 -172 151.32 -172 152 C-171.34 152 -170.68 152 -170 152 C-170 152.66 -170 153.32 -170 154 C-169.34 154 -168.68 154 -168 154 C-166.44921875 155.609375 -166.44921875 155.609375 -164.6875 157.75 C-162.00366074 160.91269855 -159.31695637 163.48987086 -156 166 C-153.6875 168.125 -153.6875 168.125 -152 170 C-152 170.66 -152 171.32 -152 172 C-151.34 172 -150.68 172 -150 172 C-148.703125 173.35546875 -148.703125 173.35546875 -147.25 175.1875 C-145.19609956 177.68658083 -143.16157864 179.80487614 -140.625 181.8125 C-139.75875 182.534375 -138.8925 183.25625 -138 184 C-138 184.66 -138 185.32 -138 186 C-137.45562664 186.21947265 -136.91125328 186.43894529 -136.35038376 186.66506863 C-133.22942575 188.43765778 -130.89833064 190.82935091 -128.39385986 193.35890198 C-127.8391626 193.91118483 -127.28446533 194.46346768 -126.71295905 195.03248638 C-124.85495848 196.88484981 -123.00419427 198.74427745 -121.15332031 200.60375977 C-119.82312006 201.93288717 -118.49248698 203.26158153 -117.16145325 204.58987427 C-113.54770578 208.19877186 -109.94024321 211.81389263 -106.33399677 215.43028378 C-102.56430399 219.20875078 -98.78934958 222.98195418 -95.01507568 226.75584412 C-88.67997509 233.09188138 -82.3487611 239.43178129 -76.02001953 245.77416992 C-68.69220225 253.11772968 -61.35915435 260.45603263 -54.02309537 267.79135853 C-46.97589742 274.83794726 -39.93155569 281.88738364 -32.88881683 288.93842888 C-29.88639472 291.94439088 -26.88311636 294.9494936 -23.87918854 297.95395088 C-20.34743389 301.48670624 -16.81822709 305.02198726 -13.29102135 308.55928421 C-11.9921687 309.86107016 -10.69245582 311.16199844 -9.39184761 312.46203041 C-7.62497664 314.22841454 -5.86118749 315.99781725 -4.09820557 317.76808167 C-3.57565603 318.2890826 -3.05310648 318.81008354 -2.51472211 319.34687239 C1 322.88582117 1 322.88582117 1 324 C-37.28 324.33 -75.56 324.66 -115 325 C-115.33 337.87 -115.66 350.74 -116 364 C-71.78 364 -27.56 364 18 364 C18 351.79 18 339.58 18 327 C22.05160458 329.02580229 24.65645995 331.38689113 27.77832031 334.55126953 C28.34461151 335.11726868 28.91090271 335.68326782 29.49435425 336.26641846 C31.36039238 338.1338472 33.21925096 340.00825462 35.078125 341.8828125 C36.37234554 343.18076411 37.66700905 344.47827416 38.96209717 345.77536011 C42.36625646 349.18714836 45.76436634 352.60490052 49.16125488 356.02392578 C52.62991407 359.5130592 56.10425583 362.99652387 59.578125 366.48046875 C66.39099302 373.31477368 73.1974842 380.15539203 80 387 C82.17374945 386.20720688 82.17374945 386.20720688 82.62341082 384.14125061 C83.9726697 377.33563318 84.28709264 370.79799958 84.26742554 363.87109375 C84.27422221 362.09485705 84.27422221 362.09485705 84.28115618 360.28273678 C84.29156953 357.02218047 84.2931358 353.76176412 84.29076743 350.50119662 C84.29035709 346.97405364 84.30141922 343.44694282 84.31088257 339.91981506 C84.32744841 333.01828288 84.33299016 326.11678487 84.33410732 319.21523446 C84.33506017 313.59920372 84.33918222 307.98318418 84.34550858 302.36715698 C84.36311112 286.41419395 84.37234932 270.46125774 84.37084763 254.50828493 C84.37076772 253.64945227 84.3706878 252.79061961 84.37060547 251.90576172 C84.37048283 250.61592328 84.37048283 250.61592328 84.37035771 249.30002749 C84.36954571 235.38064557 84.3886641 221.46137209 84.4168822 207.54202151 C84.44568569 193.21983315 84.45941831 178.89769754 84.45769465 164.57547951 C84.45703318 156.54677371 84.46241767 148.51818151 84.48405075 140.48950195 C84.50236141 133.65044549 84.50652975 126.81155408 84.4930319 119.97248358 C84.48655082 116.49066043 84.48620582 113.00915301 84.5037384 109.52736092 C84.63588661 77.37452692 77.94772254 50.30951511 54.96484375 26.8359375 C51.00013191 22.95146236 46.75131108 19.8604832 42 17 C40.93007813 16.33355469 39.86015625 15.66710937 38.7578125 14.98046875 C26.5998577 7.58623729 13.94436475 3.60662137 0 1 C0 0.67 0 0.34 0 0 Z " fill="#2D2D2D" transform="translate(396,19)"/>
<path d="M0 0 C25.74231167 -1.08600377 49.28539212 7.47159138 69 24 C69.56589844 24.42152344 70.13179688 24.84304687 70.71484375 25.27734375 C89.40825041 39.74823973 100.69212689 65.47298283 103.72146654 88.22578192 C104.71634263 98.13483646 104.42001031 108.16826778 104.39217401 118.11612678 C104.38530814 121.75488391 104.39590146 125.39360002 104.40411377 129.03234863 C104.41737315 136.1371479 104.41460868 143.24185147 104.40587585 150.34665431 C104.39906982 156.1255899 104.39819512 161.90449889 104.4014473 167.68343735 C104.401907 168.50941155 104.40236669 169.33538575 104.40284032 170.18638947 C104.4037996 171.86489743 104.40477224 173.54340538 104.4057581 175.22191332 C104.41428887 190.91796597 104.40451376 206.61396583 104.388357 222.31000982 C104.37495093 235.74950559 104.37728879 249.1889236 104.39111328 262.62841797 C104.4072015 278.27568555 104.41347034 293.92290703 104.40427649 309.57018173 C104.40332095 311.24151921 104.40237783 312.91285669 104.4014473 314.58419418 C104.40098447 315.40630179 104.40052164 316.2284094 104.40004479 317.07542936 C104.39746498 322.84192484 104.40180391 328.60839083 104.40888596 334.37488174 C104.41733708 341.4100054 104.41494522 348.44502876 104.39904372 355.48014106 C104.39121003 359.06284498 104.38798466 362.64538223 104.39799118 366.22808456 C104.4683974 393.6892151 104.4683974 393.6892151 101 406 C100.79748816 406.77232531 100.59497631 407.54465061 100.38632774 408.34037971 C93.6477351 432.54420307 76.24876635 453.96654603 55.0625 467.3125 C38.22528393 476.73590964 20.99585402 481.15026735 1.82098389 481.14717102 C0.59517585 481.15084771 -0.63063219 481.1545244 -1.89358592 481.1583125 C-5.28437763 481.16740374 -8.67512109 481.1720412 -12.06592035 481.17470181 C-15.72809753 481.17861991 -19.39026089 481.18819729 -23.0524292 481.19691467 C-31.89209579 481.21663896 -40.73176345 481.22674117 -49.57144654 481.23564246 C-53.74205672 481.24003288 -57.91266565 481.24539781 -62.08327484 481.25063133 C-75.96158713 481.26764126 -89.83989865 481.28213241 -103.71821976 481.28938007 C-107.31637829 481.29128974 -110.91453681 481.2932101 -114.51269531 481.29516602 C-115.85403019 481.29589163 -115.85403019 481.29589163 -117.22246274 481.2966319 C-131.68777444 481.30492096 -146.15300314 481.33023992 -160.61827865 481.36274669 C-175.49520691 481.39590379 -190.37209311 481.41383671 -205.24905849 481.41702431 C-213.59139706 481.41918166 -221.93361468 481.42781574 -230.27591705 481.45348549 C-237.3850993 481.47531123 -244.49413121 481.48318517 -251.60334316 481.47351871 C-255.2229895 481.46900776 -258.84232646 481.47066995 -262.46192932 481.49028015 C-296.44453431 481.66386783 -323.81277794 474.7540942 -349 451 C-368.18019165 430.60394834 -377.73960516 404.77628267 -377 377 C-374.72054627 380.41918059 -374.45171996 382.6505471 -373.8125 386.6875 C-371.365562 400.13989182 -365.49164529 411.35064156 -357 422 C-355.97654604 423.41477459 -354.9555009 424.83129661 -353.9375 426.25 C-340.87602501 443.42148579 -322.25007803 452.29315983 -302 458 C-302 458.66 -302 459.32 -302 460 C-294.55249201 460.90442406 -287.20956063 461.15159397 -279.71200562 461.15821838 C-278.51106408 461.16315636 -277.31012254 461.16809434 -276.07278883 461.17318195 C-272.7661138 461.1858146 -269.45948013 461.19414816 -266.15279078 461.20060861 C-262.57691569 461.20866289 -259.00106142 461.2223431 -255.42520142 461.23532104 C-249.23863762 461.25701296 -243.05207165 461.27518383 -236.86548996 461.29092598 C-227.92086141 461.31369131 -218.976256 461.34182467 -210.03164716 461.37124526 C-195.51769038 461.41883978 -181.00372411 461.46212586 -166.48974609 461.50268555 C-152.39533754 461.542082 -138.30093741 461.58351809 -124.20654297 461.62768555 C-122.90217976 461.63177196 -122.90217976 461.63177196 -121.57146578 461.63594092 C-117.20882321 461.64962108 -112.84618077 461.66334122 -108.48353839 461.67708123 C-72.32237644 461.79091804 -36.16119649 461.89775552 0 462 C0 461.34 0 460.68 0 460 C1.11375 459.78085937 2.2275 459.56171875 3.375 459.3359375 C11.40232272 457.69241619 19.19398373 455.82148383 26.875 452.9375 C27.53371094 452.69241699 28.19242187 452.44733398 28.87109375 452.19482422 C32.34026314 450.84137739 35.0487378 449.2299896 38 447 C38.99 447 39.98 447 41 447 C41 446.34 41 445.68 41 445 C42.51171875 443.94921875 42.51171875 443.94921875 44.6875 442.6875 C64.75476126 429.6248488 77.17522569 407.70734292 82.59584045 384.85578918 C84.98465545 373.39249193 84.43349119 361.56871556 84.40683305 349.92086852 C84.40205641 346.39721434 84.41465055 342.87361239 84.42485046 339.34997559 C84.44195706 332.46581952 84.44289545 325.58175506 84.43763756 318.69758328 C84.43357911 313.09596974 84.43505919 307.49438305 84.44038582 301.89277077 C84.44113424 301.09237001 84.44188266 300.29196925 84.44265376 299.46731392 C84.44418541 297.84075309 84.44572376 296.21419226 84.44726873 294.58763144 C84.4609645 279.36886952 84.45557686 264.15015915 84.44408352 248.93139843 C84.43415575 235.04466231 84.44708913 221.15805953 84.47101771 207.27134397 C84.4954701 192.97159143 84.50500145 178.67190083 84.49836498 164.37212783 C84.49488617 156.36027098 84.49701573 148.34851655 84.51461601 140.33667564 C84.52941516 133.51603039 84.52987374 126.6955597 84.5125451 119.87491759 C84.50409529 116.40319233 84.50173542 112.93177783 84.51719666 109.46006966 C84.63035938 77.33759447 77.92455912 50.28585714 54.96484375 26.8359375 C51.00013191 22.95146236 46.75131108 19.8604832 42 17 C40.93007813 16.33355469 39.86015625 15.66710937 38.7578125 14.98046875 C26.5998577 7.58623729 13.94436475 3.60662137 0 1 C0 0.67 0 0.34 0 0 Z " fill="#000000" transform="translate(396,19)"/>
<path d="M0 0 C4.39121339 0.7318689 7.58617859 1.4425134 11.63134766 2.9777832 C12.71332428 3.3852327 13.7953009 3.79268219 14.9100647 4.21247864 C16.06638397 4.6541185 17.22270325 5.09575836 18.4140625 5.55078125 C20.25756341 6.24661029 22.10106521 6.94243699 23.94461632 7.63813305 C26.52168306 8.61218266 29.09683343 9.59124485 31.67199707 10.5703125 C36.15178953 12.27274004 40.63392658 13.96896946 45.11703491 15.66264343 C47.49779073 16.56264135 49.87759346 17.46516612 52.2562561 18.37068176 C58.60973955 20.77674069 64.98715698 23.04590417 71.44577026 25.15441895 C75.00539468 26.33283721 78.49976595 27.65774923 82 29 C83.82246712 29.68479134 85.64542476 30.36827803 87.46875 31.05078125 C88.44424805 31.4166333 89.41974609 31.78248535 90.42480469 32.15942383 C92.51909931 32.94470118 94.61350479 33.72968296 96.70800781 34.5144043 C101.37554402 36.26348939 106.04258355 38.01359951 110.703125 39.78125 C111.39728516 40.04381592 112.09144531 40.30638184 112.80664062 40.5769043 C114.59566436 41.25408125 116.38381173 41.93357227 118.171875 42.61328125 C123.41188124 44.51144678 128.71278637 46.23759546 134 48 C134 60.21 134 72.42 134 85 C126.53806072 87.98477571 119.09249767 90.75741095 111.5 93.35546875 C107.30653573 94.80352438 103.16786739 96.31699394 99.0625 98 C92.89627202 100.50021275 86.56761589 102.40573126 80.2109375 104.35546875 C74.78051647 106.0457829 69.51695004 107.94601638 64.25488281 110.10302734 C61.34077808 111.26223271 58.38412162 112.1826176 55.375 113.0625 C51.2450614 114.27443412 47.23337298 115.65618717 43.20706177 117.1759491 C39.57652302 118.53148376 35.92130781 119.81570441 32.265625 121.1015625 C31.06495392 121.5244606 31.06495392 121.5244606 29.84002686 121.9559021 C28.16287564 122.54623984 26.48556648 123.13612905 24.80810547 123.72558594 C22.24248531 124.62764212 19.67787238 125.53252303 17.11328125 126.4375 C15.47662328 127.01319365 13.83990658 127.58872039 12.203125 128.1640625 C11.43953674 128.43384918 10.67594849 128.70363586 9.88922119 128.9815979 C6.60486138 130.13289649 3.38017272 131.15495682 0 132 C0 119.79 0 107.58 0 95 C18.78267715 88.71355295 37.57305087 82.45460054 56.4012146 76.3057251 C58.29103024 75.68830448 60.18053983 75.06994625 62.06973267 74.45062256 C64.73828073 73.57622576 67.40801975 72.70556586 70.078125 71.8359375 C70.86323959 71.57808472 71.64835419 71.32023193 72.45726013 71.05456543 C77.26632591 69.4942678 82.08222247 68.17538371 87 67 C85.9569873 66.64397705 84.91397461 66.2879541 83.83935547 65.92114258 C74.12940583 62.60661032 64.41981035 59.29104278 54.71052551 55.9745636 C49.05912703 54.04431175 43.40728252 52.11537422 37.75500488 50.18769836 C34.30413473 49.01057182 30.85359931 47.83246633 27.40313721 46.65414429 C25.7712432 46.09709791 24.13920583 45.54047135 22.50701904 44.98428345 C20.22174559 44.20547926 17.936991 43.4251702 15.65234375 42.64453125 C14.662593 42.30784424 14.662593 42.30784424 13.65284729 41.96435547 C9.06331056 40.39378403 4.54700597 38.70512724 0 37 C0 24.79 0 12.58 0 0 Z " fill="#FCFCFC" transform="translate(87,118)"/>
<path d="M0 0 C43.89 0 87.78 0 133 0 C133 12.87 133 25.74 133 39 C89.11 39 45.22 39 0 39 C0 26.13 0 13.26 0 0 Z " fill="#FCFCFC" transform="translate(280,344)"/>
<path d="M0 0 C5.17536562 -0.33866073 9.37342295 0.88790495 14.18359375 2.60546875 C15.37875107 3.01922005 15.37875107 3.01922005 16.59805298 3.44132996 C19.21410241 4.3486093 21.82565313 5.26820068 24.4375 6.1875 C27.18134623 7.14171714 29.9263891 8.09243223 32.67155457 9.04284668 C34.56416027 9.69818852 36.45641917 10.35453274 38.3483429 11.01184082 C48.55709638 14.55431287 58.8069669 17.97083175 69.0625 21.375 C70.77858678 21.94548947 72.49465184 22.51604431 74.21069336 23.08666992 C78.13991342 24.39277173 82.06974622 25.69701229 86 27 C85 29 85 29 81.30078125 30.26171875 C79.64007887 30.74412135 77.97712366 31.21880743 76.3125 31.6875 C74.49815126 32.21295986 72.68436938 32.7403801 70.87109375 33.26953125 C69.91702637 33.54748535 68.96295898 33.82543945 67.97998047 34.11181641 C61.94949694 35.90920286 55.96914714 37.86819302 49.9855957 39.81518555 C49.100896 40.10047119 48.21619629 40.38575684 47.3046875 40.6796875 C46.52077637 40.93476074 45.73686523 41.18983398 44.92919922 41.45263672 C43 42 43 42 41 42 C39.53216553 40.51216125 39.53216553 40.51216125 37.83496094 38.46606445 C34.28255683 34.29080274 30.5311455 30.40174444 26.640625 26.54296875 C25.96956726 25.87332596 25.29850952 25.20368317 24.6071167 24.51374817 C22.49044376 22.40260875 20.37030188 20.29499404 18.25 18.1875 C16.81356874 16.7560935 15.37736885 15.32445478 13.94140625 13.89257812 C10.79324505 10.75417885 7.64290146 7.61799007 4.49053955 4.48381042 C2.99142512 2.99146383 1.49516683 1.49630074 0 0 Z " fill="#343434" transform="translate(89,157)"/>
<path d="M0 0 C0.66 0.66 1.32 1.32 2 2 C1.625 4.625 1.625 4.625 1 7 C0.34 7 -0.32 7 -1 7 C-0.98839844 7.58007812 -0.97679687 8.16015625 -0.96484375 8.7578125 C-0.91213119 13.32121407 -1.1734767 17.50003981 -2 22 C-3.13591046 30.25033875 -3.12361281 38.4686684 -3.08178711 46.78125 C-3.0782241 48.24744055 -3.07514001 49.71363233 -3.07249451 51.17982483 C-3.0659842 54.31668576 -3.05645249 57.45351732 -3.04459953 60.59036255 C-3.02621071 65.5484351 -3.01668398 70.50650083 -3.00868225 75.46459961 C-2.98459745 89.55602068 -2.94849813 103.64739857 -2.90405273 117.73876953 C-2.87953536 125.53671287 -2.86215801 133.33463984 -2.85249335 141.13261604 C-2.84594358 146.06455878 -2.83037361 150.99636585 -2.80817592 155.92826176 C-2.79647926 158.98647993 -2.79308059 162.04466474 -2.79207802 165.10290337 C-2.78992393 166.52435701 -2.78430972 167.94581009 -2.7750473 169.36723518 C-2.76292605 171.30150972 -2.76418897 173.23585457 -2.76622009 175.17016602 C-2.76307769 176.25411148 -2.75993528 177.33805695 -2.75669765 178.45484924 C-3 181 -3 181 -5 183 C-5.31501055 185.47519602 -5.31501055 185.47519602 -5.2784729 188.40359497 C-5.28963638 189.55066925 -5.30079987 190.69774353 -5.31230164 191.87957764 C-5.31446182 193.14408752 -5.31662201 194.40859741 -5.31884766 195.71142578 C-5.32814218 197.05161141 -5.33831014 198.39179122 -5.34928894 199.73196411 C-5.37665686 203.37634519 -5.39175834 207.02068747 -5.40471697 210.66514444 C-5.42031792 214.47154106 -5.44711774 218.27785808 -5.4727478 222.084198 C-5.51958953 229.29479248 -5.55630745 236.50540184 -5.58942068 243.71607101 C-5.62760405 251.92399094 -5.67702406 260.13183105 -5.72740483 268.33968377 C-5.83080486 285.22639816 -5.92003892 302.1131587 -6 319 C-6.33 319 -6.66 319 -7 319 C-7.02288255 281.01129921 -7.04050647 243.02259945 -7.05106533 205.03389316 C-7.05231606 200.5502647 -7.05361038 196.06663625 -7.05493164 191.58300781 C-7.05519395 190.69038786 -7.05545626 189.7977679 -7.05572652 188.87809886 C-7.06007932 174.41976373 -7.06796474 159.96143256 -7.0771528 145.50309978 C-7.08650015 130.67052829 -7.09205791 115.83795888 -7.09408849 101.00538456 C-7.09546147 91.85090548 -7.0997999 82.69643762 -7.10791647 73.54196198 C-7.11319725 67.2667203 -7.11480125 60.99148443 -7.11350138 54.71624069 C-7.11286009 51.0943131 -7.11385195 47.47240514 -7.11920547 43.85048103 C-7.124966 39.92455452 -7.12299034 35.99865367 -7.12025452 32.07272339 C-7.12316736 30.9268069 -7.1260802 29.78089041 -7.12908131 28.60024917 C-7.11967773 23.62473021 -7.07180234 18.88682525 -6 14 C-5.34 14 -4.68 14 -4 14 C-4 11.36 -4 8.72 -4 6 C-3.34 6 -2.68 6 -2 6 C-1.34 4.02 -0.68 2.04 0 0 Z " fill="#737373" transform="translate(24,83)"/>
<path d="M0 0 C3.58128947 0.01099845 7.16255541 0.00446944 10.74385333 0.00021553 C17.73843349 -0.00538911 24.73290307 0.00483961 31.72746441 0.02050349 C39.87534671 0.03810848 48.02320808 0.03946406 56.17110643 0.04011908 C70.70166072 0.04180313 85.23216485 0.05757436 99.76269794 0.08160591 C113.8645902 0.10491157 127.96645064 0.11903832 142.068362 0.12262154 C142.93874277 0.1228443 143.80912354 0.12306707 144.70587948 0.12329659 C146.45927931 0.12373919 148.21267915 0.12418121 149.96607898 0.12462266 C151.26345596 0.12495201 151.26345596 0.12495201 152.58704257 0.12528801 C153.88113861 0.12561199 153.88113861 0.12561199 155.201378 0.12594251 C168.64765147 0.12963898 182.09391982 0.14099416 195.54018767 0.15341841 C200.41434013 0.15785587 205.2884921 0.16129315 210.16264579 0.16404054 C217.88418558 0.16846554 225.60570642 0.17621546 233.32723424 0.19081494 C236.85559699 0.19743472 240.38394297 0.20248994 243.91231227 0.20327568 C247.72942194 0.20420347 251.54649063 0.21287017 255.36358905 0.22241402 C257.05059779 0.22111429 257.05059779 0.22111429 258.77168751 0.21978831 C260.29566233 0.22555003 260.29566233 0.22555003 261.85042453 0.23142815 C262.73214052 0.23267464 263.61385652 0.23392114 264.52229118 0.23520541 C266.6333034 0.36285591 266.6333034 0.36285591 268.6333034 1.36285591 C268.6333034 2.02285591 268.6333034 2.68285591 268.6333034 3.36285591 C267.57859174 3.25710259 267.57859174 3.25710259 266.50257277 3.14921284 C253.72801786 2.04671258 240.94140221 2.21472545 228.12964129 2.21759224 C225.45243963 2.21459634 222.77524074 2.21122053 220.09804034 2.20741463 C213.60848287 2.19915588 207.11893448 2.196362 200.62937219 2.19580225 C195.34999014 2.19532501 190.07061107 2.19325997 184.79122996 2.19010162 C169.7874447 2.18130976 154.78366654 2.17668019 139.77987868 2.1774321 C138.57000825 2.17749203 138.57000825 2.17749203 137.33569598 2.17755318 C136.52811921 2.17759406 135.72054244 2.17763494 134.88849365 2.17767706 C121.79832222 2.17808359 108.70817954 2.1685084 95.61801643 2.15441481 C82.14210086 2.14002151 68.66619929 2.13314618 55.19027585 2.13400859 C47.63851266 2.13433943 40.08677967 2.13164157 32.53502345 2.12083054 C26.10737441 2.11168677 19.67976926 2.10958208 13.25211651 2.11633996 C9.97932011 2.11958511 6.7066244 2.11862896 3.43383288 2.11098671 C-9.34558926 2.083091 -21.75557015 2.16996617 -34.3666966 4.36285591 C-36.69923053 4.70173789 -39.03238005 5.03647909 -41.3666966 5.36285591 C-40.3666966 3.36285591 -40.3666966 3.36285591 -38.20687985 2.52382469 C-25.6265932 -0.55124658 -12.87018387 -0.05150456 0 0 Z " fill="#8C8C8C" transform="translate(129.36669659614563,18.637144088745117)"/>
<path d="M0 0 C97.68 0 195.36 0 296 0 C296 0.33 296 0.66 296 1 C198.32 1 100.64 1 0 1 C0 0.67 0 0.34 0 0 Z " fill="#7D7D7D" transform="translate(104,17)"/>
<path d="M0 0 C0.66 0.66 1.32 1.32 2 2 C1.625 4.625 1.625 4.625 1 7 C0.34 7 -0.32 7 -1 7 C-0.98839844 7.58007812 -0.97679687 8.16015625 -0.96484375 8.7578125 C-0.95130859 9.92957031 -0.95130859 9.92957031 -0.9375 11.125 C-0.92589844 11.89070313 -0.91429687 12.65640625 -0.90234375 13.4453125 C-1.01408172 16.36837782 -1.51874358 19.1124615 -2 22 C-2.39953938 25.62080306 -2.73071071 29.24743714 -3.0625 32.875 C-3.15337891 33.84953125 -3.24425781 34.8240625 -3.33789062 35.828125 C-3.56053078 38.21857724 -3.78117739 40.60919579 -4 43 C-4.33 43 -4.66 43 -5 43 C-5.02505615 42.37432129 -5.0501123 41.74864258 -5.07592773 41.10400391 C-5.19175273 38.27745381 -5.31453985 35.45124831 -5.4375 32.625 C-5.47681641 31.64015625 -5.51613281 30.6553125 -5.55664062 29.640625 C-5.59853516 28.69960937 -5.64042969 27.75859375 -5.68359375 26.7890625 C-5.72025146 25.91975098 -5.75690918 25.05043945 -5.79467773 24.15478516 C-5.87401544 21.9516738 -5.87401544 21.9516738 -7 20 C-6.71887936 17.99199544 -6.38932033 15.98985949 -6 14 C-5.34 14 -4.68 14 -4 14 C-4 11.36 -4 8.72 -4 6 C-3.34 6 -2.68 6 -2 6 C-1.34 4.02 -0.68 2.04 0 0 Z " fill="#6C6C6C" transform="translate(24,83)"/>
<path d="M0 0 C-2.83700862 2.83700862 -5.23825323 2.59857072 -9.1875 3.0625 C-10.48042969 3.21847656 -11.77335937 3.37445312 -13.10546875 3.53515625 C-15.03326172 3.76525391 -15.03326172 3.76525391 -17 4 C-19.335511 4.31997113 -21.66754937 4.65814926 -24 5 C-23.67 4.34 -23.34 3.68 -23 3 C-15.40593698 0.72595366 -7.90473416 -0.40886556 0 0 Z " fill="#7C7C7C" transform="translate(112,19)"/>
<path d="M0 0 C4.62 0 9.24 0 14 0 C14 0.66 14 1.32 14 2 C10.59598052 3.13732426 8.22543336 2.83989957 4.75 2.0625 C3.85796875 1.86785156 2.9659375 1.67320313 2.046875 1.47265625 C1.37140625 1.31667969 0.6959375 1.16070313 0 1 C0 0.67 0 0.34 0 0 Z " fill="#0C0C0C" transform="translate(396,19)"/>
<path d="M0 0 C1.62490954 -0.02698189 3.24994633 -0.04638757 4.875 -0.0625 C5.77992188 -0.07410156 6.68484375 -0.08570312 7.6171875 -0.09765625 C10 0 10 0 12 1 C12 1.66 12 2.32 12 3 C6.06 2.01 6.06 2.01 0 1 C0 0.67 0 0.34 0 0 Z " fill="#747474" transform="translate(386,19)"/>
<path d="M0 0 C2.29633824 3.44450737 2.54016485 5.93812283 3 10 C2.01 9.67 1.02 9.34 0 9 C0 6.03 0 3.06 0 0 Z " fill="#111111" transform="translate(19,396)"/>
<path d="M0 0 C1.98 0 3.96 0 6 0 C6 0.33 6 0.66 6 1 C4.02 1 2.04 1 0 1 C0 0.67 0 0.34 0 0 Z " fill="#7F7F7F" transform="translate(97,18)"/>
<path d="M0 0 C1 4 1 4 1 4 Z " fill="#9F9F9F" transform="translate(19,93)"/>
<path d="M0 0 C4 1 4 1 4 1 Z " fill="#9F9F9F" transform="translate(89,20)"/>
<path d="M0 0 C4 1 4 1 4 1 Z " fill="#606060" transform="translate(93,19)"/>
<path d="" fill="#2A2A2A" transform="translate(0,0)"/>
<path d="" fill="#AAAAAA" transform="translate(0,0)"/>
<path d="M0 0 C3 1 3 1 3 1 Z " fill="#AAAAAA" transform="translate(77,24)"/>
<path d="M0 0 C3 1 3 1 3 1 Z " fill="#AAAAAA" transform="translate(80,23)"/>
<path d="M0 0 C3 1 3 1 3 1 Z " fill="#AAAAAA" transform="translate(86,21)"/>
<path d="" fill="#7F7F7F" transform="translate(0,0)"/>
<path d="" fill="#FFFFFF" transform="translate(0,0)"/>
<path d="M0 0 C2 1 2 1 2 1 Z " fill="#000000" transform="translate(55,37)"/>
<path d="M0 0 C2 1 2 1 2 1 Z " fill="#000000" transform="translate(59,34)"/>
<path d="M0 0 C2 1 2 1 2 1 Z " fill="#000000" transform="translate(62,32)"/>
<path d="M0 0 C2 1 2 1 2 1 Z " fill="#000000" transform="translate(64,31)"/>
<path d="M0 0 C2 1 2 1 2 1 Z " fill="#000000" transform="translate(69,28)"/>
<path d="M0 0 C2 1 2 1 2 1 Z " fill="#7F7F7F" transform="translate(71,27)"/>
<path d="M0 0 C2 1 2 1 2 1 Z " fill="#000000" transform="translate(73,26)"/>
<path d="" fill="#000000" transform="translate(0,0)"/>
<path d="" fill="#FFFFFF" transform="translate(0,0)"/>
<path d="" fill="#FFFFFF" transform="translate(0,0)"/>
<path d="" fill="#FFFFFF" transform="translate(0,0)"/>
<path d="" fill="#000000" transform="translate(0,0)"/>
<path d="" fill="#FFFFFF" transform="translate(0,0)"/>
<path d="" fill="#000000" transform="translate(0,0)"/>
<path d="" fill="#FFFFFF" transform="translate(0,0)"/>
<path d="" fill="#000000" transform="translate(0,0)"/>
<path d="" fill="#FFFFFF" transform="translate(0,0)"/>
<path d="" fill="#000000" transform="translate(0,0)"/>
<path d="" fill="#FFFFFF" transform="translate(0,0)"/>
<path d="" fill="#000000" transform="translate(0,0)"/>
<path d="" fill="#FFFFFF" transform="translate(0,0)"/>
</svg>
